<?xml version="1.0" encoding="UTF-8" standalone="no"?>
<!-- Created with Inkscape (http://www.inkscape.org/) -->

<svg
   width="182mm"
   height="227mm"
   id="mapa"
   version="1.1"
   inkscape:version="1.3 (0e150ed6c4, 2023-07-21)"
   sodipodi:docname="Municipios_de_Maldonad2o.svg"
   inkscape:export-filename="Municipios_de_Maldonad1o.svg"
   inkscape:export-xdpi="96"
   inkscape:export-ydpi="96"
   xmlns:inkscape="http://www.inkscape.org/namespaces/inkscape"
   xmlns:sodipodi="http://sodipodi.sourceforge.net/DTD/sodipodi-0.dtd"
   xmlns="http://www.w3.org/2000/svg"
   xmlns:svg="http://www.w3.org/2000/svg"
   xmlns:rdf="http://www.w3.org/1999/02/22-rdf-syntax-ns#"
   xmlns:cc="http://creativecommons.org/ns#"
   xmlns:dc="http://purl.org/dc/elements/1.1/">
  <defs
     id="defs4" />
  <sodipodi:namedview
     id="base"
     pagecolor="#ffffff"
     bordercolor="#666666"
     borderopacity="1.0"
     inkscape:pageopacity="0.0"
     inkscape:pageshadow="2"
     inkscape:zoom="0.70710678"
     inkscape:cx="178.19091"
     inkscape:cy="429.21382"
     inkscape:document-units="px"
     inkscape:current-layer="layer1"
     showgrid="false"
     inkscape:window-width="1920"
     inkscape:window-height="1009"
     inkscape:window-x="-8"
     inkscape:window-y="-8"
     inkscape:window-maximized="1"
     inkscape:showpageshadow="2"
     inkscape:pagecheckerboard="0"
     inkscape:deskcolor="#d1d1d1" />
  <metadata
     id="metadata7">
    <rdf:RDF>
      <cc:Work
         rdf:about="">
        <dc:format>image/svg+xml</dc:format>
        <dc:type
           rdf:resource="http://purl.org/dc/dcmitype/StillImage" />
      </cc:Work>
    </rdf:RDF>
  </metadata>
  <g
     inkscape:label="Capa 1"
     inkscape:groupmode="layer"
     id="layer1"
     transform="matrix(1.2018582,0,0,1.1872488,-101.38983,-136.7386)">
    <path
       style="display:inline;fill:#b2b2b2;fill-opacity:1;stroke:#000000;stroke-width:1.18747px;stroke-linecap:butt;stroke-linejoin:miter;stroke-opacity:0"
       d="m 313.62456,688.08354 c -3e-5,0 1e-5,2e-5 0,0 -2.05411,-3.02091 -2.61833,-3.56858 -3.60638,-6.09954 -0.3174,-0.81303 0.16284,-3.89706 -1.6634,-3.15275 -1.79181,0.73028 -3.43872,1.19346 -2.97585,3.70792 0.63923,3.47254 1.61095,10.06856 4.73008,11.72287 2.09328,1.11024 5.07279,1.11081 7.59565,1.16522 2.19222,0.0473 4.7107,-0.97266 5.82295,1.19791 0.29986,0.58518 1.27425,4.01914 0.77328,4.56263 -0.50641,0.5494 -1.8662,1.68506 -3.42234,2.63157 -1.98921,1.20991 -4.66494,3.67878 -6.05186,3.03198 -1.12881,-0.52643 -4.21715,-2.34475 -4.78893,-1.53689 -5.12031,7.23439 7.98151,9.01281 -0.50043,15.61275 -3.42324,1.9524 -2.72944,1.07931 -4.61333,3.09323 -0.96884,1.03571 -1.71283,3.9679 -2.07906,4.72516 -0.28489,0.58908 -1.0279,2.29532 -1.24166,2.5039 -1.03459,1.00951 -3.12237,0.32539 -3.85963,1.0723 0.48885,4.04461 -1.55564,5.53194 -4.59514,6.2163 -0.41893,0.0943 -6.03537,-0.26698 -6.28279,-0.37081 -1.35207,-0.5674 -0.97441,-1.56054 -0.91872,-2.58336 0.055,-1.0106 0.3642,-1.59531 0.23261,-2.38012 -0.20175,-1.20343 -1.30741,-2.4235 -4.10737,-2.4235 -1.71116,0 -2.37975,1.41758 -3.42056,2.94891 -0.97377,1.43271 -2.79053,3.15521 -4.51067,2.59573 -1.58572,-0.51576 -1.56145,-3.92122 -2.78579,-7.10625 -0.9006,-2.34283 -1.48589,-3.70886 -3.60103,-4.39682 -2.3249,-0.75618 -4.08972,0.25593 -4.06935,2.94049 0.0287,3.78931 3.22943,9.34754 3.32546,9.44124 1.17615,1.14764 2.1315,1.07991 3.33765,2.25681 1.50414,1.46769 4.14787,3.46726 6.95882,4.15297 1.18223,0.2884 6.98587,-6.32824 6.98587,-1.3378 -0.66745,0.87194 4.11679,4.19667 4.89327,2.98566 0.47501,-0.74083 0.53571,-3.47049 1.35779,-4.39325 3.35473,-3.76561 1.36011,4.71877 5.77022,3.28437 1.60138,-0.52085 2.40701,-0.32349 3.55264,-1.44135 1.67578,-1.63514 3.86722,2.44711 5.10268,2.84894 1.44289,0.4693 4.35184,-0.58658 5.4223,0.45793 2.45863,2.39905 -2.49917,2.06694 -2.30353,4.13332 0.24699,2.60874 18.19874,1.93484 19.48124,-2.01068 1.20031,-3.69266 1.03609,-17.34339 2.64468,-22.05217 1.08499,-3.17606 1.26802,-5.02299 3.12553,-7.74173 2.075,-2.37885 2.83378,-7.55721 0,-10.32229 -0.4284,-0.41801 -1.82264,-0.17425 -2.16383,-1.17299 -0.52453,-1.53545 1.10508,-6.42883 0,-7.50712 -0.62751,-0.6123 -1.9234,-1.55025 -1.9234,-1.87678 0,-0.50997 0.602,-1.09479 -0.10401,-1.55405 -0.99155,-0.645 -1.49816,-2.29375 -1.95581,-3.63342 -0.51939,-1.52041 1.10506,-11.35403 -0.44845,-10.13117 -5.42364,-1.37655 -3.44695,13.48514 -13.1194,5.93473 z"
       id="Laguna del Sauce"
       inkscape:connector-curvature="0"
       sodipodi:nodetypes="cssssssssssscssscssssssssssssscssssssssscsssssscc" />
    <path
       style="display:inline;fill:#b2b2b2;fill-opacity:1;stroke:#000000;stroke-width:1.18747px;stroke-linecap:butt;stroke-linejoin:miter;stroke-opacity:0"
       d="m 485.50255,733.63327 c -1.16019,-0.0278 -5.32178,-0.76229 -5.32178,-1.4694 0,-1.80064 3.90206,-3.22883 4.99017,-5.35229 0.0701,-0.13683 2.27853,-6.5341 3.30789,-5.52964 0.13476,0.1315 1.11792,-0.27246 3.0607,1.05285 0.88407,0.60309 1.87306,2.85175 3.02829,3.97898 1.66943,1.62897 0.9019,-1.65646 1.98147,-2.70988 1.41983,-1.3854 3.77999,-0.87028 5.26302,-2.31736 0.82785,-0.80778 -3.11332,-5.34769 -2.11183,-5.34769 4.64761,0 2.11642,-4.08484 3.0283,-4.97461 2.11561,-2.06433 2.45426,0.0193 4.5809,-1.36412 2.27515,-1.48 3.83827,-1.04667 5.46567,0.54128 0.52469,0.51198 2.73518,1.6114 2.08547,3.51329 -0.99019,2.89858 2.82778,1.92159 0.51536,3.04977 -0.65624,0.32017 -1.29418,1.23632 -2.97092,2.87241 -0.85928,0.83845 -1.42112,2.02405 -0.90224,3.54299 0.80115,2.34517 4.09645,9.78879 6.00248,11.64862 0.68507,0.66847 3.82935,1.23682 4.26283,2.08276 1.10245,2.15146 0.88709,3.26554 0.22154,5.21379 -0.30517,0.89332 -3.27891,2.08735 -4.24394,2.08735 -0.56669,0 -1.42545,0.27087 -1.82616,-0.12014 -0.45864,-0.44752 -4.74567,0.86451 -6.40031,0.0572 -3.25861,-1.58981 -7.17659,4.01465 -11.41078,1.94886 -2.53619,-1.23735 -8.92724,-10.25123 -12.60613,-12.40506 z"
       id="Laguna José Ignacio"
       inkscape:connector-curvature="0"
       inkscape:label=""
       sodipodi:nodetypes="cssssssssssssssssssssssc" />
    <path
       id="Laguna Garzón"
       style="display:inline;fill:#b3b3b3;fill-opacity:1;stroke:#000000;stroke-width:1.18747px;stroke-linecap:butt;stroke-linejoin:miter;stroke-opacity:1"
       d="m 597.00235,686.54213 c 0.85668,0.8951 0.87823,-2.30504 -1.45072,-2.76038 -0.74644,0.82857 -2.08372,-1.10636 -2.07372,-1.12636 0.16346,-0.33136 -2.0342,-1.32115 -2.02318,-1.51434 -0.0208,0.002 -1.61406,-1.95418 -2.84393,-1.70213 -0.0571,0.18161 -3.37123,-1.91778 -3.42523,-1.73513 -0.65357,2.27096 -2.5579,-9.25922 -3.12295,-6.96441 -0.26721,1.05761 -6.03115,4.09754 -6.02031,5.19748 0.12388,0.37003 0.18026,7.27831 0.16912,7.78753 -0.009,0.38895 3.36327,1.2969 3.2666,1.67543 -0.1141,0.57764 -1.44078,1.30083 -1.36678,1.88718 0.0353,0.41167 -2.77887,1.61478 -2.98071,1.97691 -1.49803,2.68756 1.0692,7.99429 -0.37927,4.72056 -0.40872,0.81029 -13.48582,-1.86485 -14.04139,-1.77135 0.16401,0.4419 -13.08949,15.63941 -12.82766,16.25197 6.09692,14.26405 28.64588,7.25754 28.52709,8.26892 0.21798,0.6391 3.612,-3.09212 3.83624,-2.45528 0.10228,0.28017 1.55824,-0.96633 1.66261,-0.68679 0.24643,-0.0638 0.49705,-0.12213 0.75196,-0.17188 2.56686,-1.20946 10.7824,-3.08745 8.41601,-5.39648 -0.92069,-0.89837 -2.24156,-2.80669 -2.64453,-3.98633 -0.11445,-0.33491 2.47229,-2.91587 1.20117,-5.39649 -0.45099,-0.87965 -3.85982,-0.67897 -2.16406,-3.98828 0.35576,-0.69426 2.09544,-3.98828 2.64453,-3.98828 1.43517,0 -0.31641,2.91382 3.12695,3.75391 1.14105,0.27835 3.8477,0.46688 4.32618,0 0.0398,-0.0388 2.4031,-3.32401 1.20312,-5.39649 z"
       clip-path="none"
       sodipodi:nodetypes="cccccccccccsccsccccsscsssscc" />
    <path
       style="display:inline;fill:#d7d7d7;fill-opacity:1;stroke:#000000;stroke-width:1.18747px;stroke-linecap:butt;stroke-linejoin:miter;stroke-opacity:1"
       d="m 179.46706,722.87102 c 0.91711,-2.67189 2.46187,-1.73192 4.46504,-3.68653 1.5102,-1.47359 1.51404,-3.04107 1.26249,-4.67564 -0.2981,-1.93695 -0.95483,-3.9681 0.11131,-6.04883 0.63267,-1.23466 6.00805,1.25804 7.21277,0.67028 2.53665,-1.23758 4.48946,-8.3033 3.22497,-8.3033 -3.5233,0 -6.83383,-0.29094 -9.90027,-1.787 -1.58023,-0.77095 -2.23369,-0.5541 -3.85246,-1.0806 -0.80354,-0.26136 -0.79718,-0.70794 -1.15323,-1.75015 -0.11733,-0.34343 -0.35242,-3.24615 1.42285,-5.75593 1.60381,-2.26737 3.29534,-4.88526 2.77999,-7.13934 -0.7187,-3.14353 2.93916,-2.49104 0.92331,-4.45803 -2.6142,-2.55082 -0.26645,-4.0689 0.46789,-6.2185 0.21865,-0.64005 -0.19245,-2.05132 0.10952,-2.34597 1.92152,-1.87495 0.36452,-3.03237 0.92088,-3.57523 0.65303,-0.63722 4.23242,-4.25352 3.72133,-5.74962 -0.67708,-1.98201 -0.52266,-4.93551 -1.35453,-6.55893 -0.41851,-0.81675 -1.93008,-7.02058 -3.28707,-10.99288 -0.51872,-1.51846 -1.88424,-4.79238 -2.30026,-6.76064 -0.2856,-1.35123 -0.44502,-3.78158 -1.44641,-4.75867 -1.04945,-1.02402 -1.47963,-2.76883 -2.50827,-3.77253 -0.46182,-0.45063 -5.72507,-10.75345 -7.10876,-12.1036 -1.87683,-1.83133 -1.68806,-3.60027 -2.91463,-5.99393 -2.13024,-4.15722 0.25734,-13.76227 0.84955,-20.82079 0.16472,-1.96321 -2.63498,-1.39101 -3.32389,-2.7354 -1.60808,-3.1382 -6.70918,0.84917 -7.89971,2.01083 -2.62168,2.55815 -8.64022,0.28284 -9.61701,-0.67027 -0.0611,-0.0596 -2.50835,1.64186 -3.43466,1.34056 -0.90555,-0.29453 -4.38551,-2.34167 -6.49564,-2.47296 -1.90149,-0.11831 -2.43239,1.6341 -3.46484,2.13782 -3.58589,1.74946 -3.57079,-0.51429 -7.21277,0.67028 -1.54819,0.50355 -1.22675,4.11747 -4.1216,4.69195 -3.04505,0.6043 -5.33205,1.07195 -8.29093,-0.2319 -1.69125,-0.74526 -3.06634,-3.49939 -3.73034,-4.79519 -0.97183,-1.89657 -1.92513,-4.66097 -3.09119,-6.36766 -1.25187,-1.83227 -1.98676,-0.3582 -3.212,-2.15931 -0.70622,-1.03817 -2.09213,2.06807 -2.49,3.78957 -0.46024,1.99138 0.24575,3.73198 -0.48037,3.73198 -1.55721,0 -3.29546,-1.00318 -4.465037,10e-6 -2.83942,2.43544 -1.02449,3.60151 -1.43336,8.4015 -0.43699,5.13023 -0.66783,10.58319 -0.28398,11.70686 0.40887,1.19686 3.085577,6.25815 6.003257,8.90184 2.67374,2.42265 5.2614,5.50915 5.67456,5.50915 3.64953,0 6.14855,2.65261 7.39333,4.22032 2.63091,3.31343 0.84983,7.59032 0.84983,12.53666 0,0.31364 4.47103,5.35931 2.40426,6.36765 -1.51275,0.73803 -1.08695,1.5873 -1.3442,3.02699 -0.64162,3.59102 -2.81591,2.78318 -3.4643,4.68122 -0.60051,1.75783 -2.01052,3.54589 -1.16324,5.61525 0.69864,1.7063 2.32775,3.71114 1.85016,5.10921 -0.43063,1.26056 -3.59563,6.54572 -2.74773,7.37306 1.30589,1.27422 2.82104,-1.1282 6.56981,-0.74904 2.08524,0.2109 3.77925,-0.79596 6.15739,0.37728 2.08273,1.02749 4.93029,4.19563 5.81993,5.06372 3.22383,3.14568 -0.30677,4.09328 1.03039,6.70279 1.6536,3.22702 7.983,3.93038 8.9301,6.70278 0.98551,2.88487 4.20309,6.81098 4.90129,10.10478 0.47417,2.23688 -1.50902,4.18215 -1.12317,5.31163 0.68473,2.00437 3.10006,1.02273 3.77812,2.34599 0.24794,0.48385 5.4636,0.6392 5.8389,1.00541 3.68371,3.59442 5.59553,0.4328 8.58664,3.3514 2.15764,2.10535 7.37228,3.50704 9.61702,5.69737 1.01153,0.98701 3.56336,1.80128 4.46504,2.68111 0.18841,0.18384 1.21829,2.65076 1.37387,2.68112 z"
       id="Solís Grande"
       inkscape:connector-curvature="0"
       sodipodi:nodetypes="cssssssscssssscscsscssssssssssssssssssssssssssssssssssssssssssscc" />
    <path
       style="display:inline;fill:#d7d7d7;fill-opacity:1;stroke:#000000;stroke-width:1.18747px;stroke-linecap:butt;stroke-linejoin:miter;stroke-opacity:1"
       d="m 170.19349,587.47468 c 6.82347,-0.0893 1.11382,1.00542 7.8997,1.00542 2.50786,0 6.1166,7.63692 9.9605,2.01083 2.01892,-2.95495 -4.77251,-2.31083 -5.49544,-3.01625 -0.92698,-0.90451 1.50661,-2.55158 0.68693,-3.35139 -0.22684,-0.22135 -3.77812,0.17063 -3.77812,0 0,-1.4681 4.86185,-4.97505 3.09119,-6.70279 -0.29424,-0.2871 -1.14526,-1.82477 -1.71733,-2.01084 -1.27128,-0.41349 -1.71732,-6.78654 -1.71732,-8.37849 0,-1.22866 0.89156,-2.60986 1.37385,-4.02167 0.58693,-1.7181 -1.78621,-2.5467 -1.03039,-4.02167 0.1537,-0.29996 3.07731,-1.68923 3.09119,-1.6757 1.08007,1.0539 -0.49707,-4.35682 1.03039,-4.35682 2.12493,0 3.9816,-4.0763 5.8389,-3.35139 1.67948,0.6555 8.60413,9.19074 10.99089,5.69737 1.94116,-2.84114 1.5181,-8.32482 3.43465,-12.06501 1.22784,-2.39616 7.72825,-0.25203 8.58663,-2.34598 1.03927,-2.53518 3.16511,-3.16052 4.46506,-5.69737 0.71478,-1.39494 -0.81304,-3.08695 1.03039,-3.68654 2.4471,-0.79593 8.83285,4.27673 9.61702,4.02168 1.11445,-0.36248 1.83663,-1.79211 2.40426,-2.34598 0.58355,-0.5694 4.66141,0.71813 5.83891,0.33513 2.5576,-0.83185 -0.34346,-7.83837 -0.34346,-9.71903 0,-0.58233 3.95604,-2.69323 4.46504,-3.68654 0.51819,-1.01123 -0.10495,-4.47314 1.0304,-5.02709 1.35181,-0.65952 4.18223,0.94624 4.80851,0.33514 2.02008,-1.97112 1.41698,-8.56709 3.77811,-9.71904 2.96455,-1.44634 14.07975,3.02081 16.8298,-2.34598 0.90538,-1.76687 5.95812,-8.15276 8.9301,-6.70279 2.17022,1.05881 8.91312,3.06593 7.55623,7.03793 -1.59199,4.6602 -3.49917,4.04504 -5.81239,8.55936 -1.64054,3.20154 2.61341,3.3617 1.32309,5.87979 -2.56831,5.01213 -4.69887,6.55433 -7.16201,10.15947 -1.52211,2.22782 -6.52538,6.18186 -3.52899,7.76606 l 1.19484,0.63171 c 0.71784,0.37952 3.93216,1.09231 6.44341,3.54268 1.18599,1.15725 -4.91757,0.89477 -3.15881,1.75283 1.36628,0.66657 2.3437,-0.0507 3.41532,0.99499 5.01108,4.88962 0.0247,2.58687 1.37387,5.21993 0.38386,0.74913 4.20874,7.34702 0.82485,10.64888 -2.4695,2.40964 -4.68079,3.37513 -6.05186,6.05025 -1.68346,3.28531 -5.00957,2.83071 -3.57482,5.63064 1.82157,3.55485 -1.45519,2.24245 0.0508,5.18136 1.31363,2.56357 0.55484,4.33446 2.31485,6.0518 1.65465,1.61455 0.33786,3.65136 2.44537,5.70778 3.11185,3.03643 5.96758,5.89655 8.95188,8.8085 0.51778,0.50523 3.34927,5.19425 3.66198,6.10965 3.03255,8.87709 -5.64997,11.13561 -7.48861,14.72375 -1.86603,3.6416 1.21943,16.26182 3.61615,18.60044 3.01412,2.94106 6.13383,5.20881 8.01336,8.87678 0.56047,1.09376 2.84971,5.45339 4.34172,6.42394 3.93088,2.21702 6.77712,1.94469 9.56379,4.6638 2.03089,1.98166 6.11142,4.51869 5.92483,7.06455 -0.15487,2.11322 1.35026,9.03493 2.30148,10.89124 2.55915,4.99424 -5.03221,4.17422 -6.65882,7.34859 -0.72679,1.41835 2.713,12.55078 3.77812,13.07044 3.14226,1.53304 10.01136,1.67924 12.36474,1.34055 1.85577,-0.26708 3.49785,5.49898 2.40426,6.03251 -2.08455,1.01701 -5.257,4.16755 -7.8997,5.0271 -3.99199,1.29841 -4.98627,-5.17703 -6.8693,0.33514 -1.91154,5.59559 4.7112,7.22783 2.74772,11.0596 -1.72443,3.36524 -6.00333,4.0074 -7.21277,6.36764 -1.0189,1.98842 -2.16613,5.46503 -3.77812,7.03793 -0.62612,0.61095 -2.56493,-0.19992 -3.09119,1.34056 -0.37781,1.10597 0.37782,2.58058 0,3.68654 -0.0848,0.24805 -3.24136,1.50111 -3.77811,1.6757 -1.41621,0.46062 -3.62374,0 -5.15198,0 -6.49276,0 2.24135,-4.74494 -5.83891,-7.37308 -3.87327,-1.25979 -5.56621,8.64457 -9.61702,4.69195 -0.24809,-0.24205 -1.80767,-14.91079 -9.27357,-10.05417 -2.164,1.40769 2.26227,12.16331 2.74773,12.40015 2.63535,1.28574 13.63093,7.37936 12.76987,9.89993 l -12.59616,10.09616 c -6.07674,-5.73161 -13.5697,-10.02039 -17.68885,-16.04935 -4.09217,-2.27939 -7.59929,-6.19826 -11.45719,-8.08045 l -2.28143,-12.77265 c -1.49471,-1.34226 -2.63492,-2.32302 -3.80315,-3.46294 -3.38233,-3.68157 -5.063,-7.91633 -6.23088,-12.4746 -0.90206,-2.04296 -1.64435,-2.74476 -2.40584,-3.2401 -6.98768,-1.86926 -13.62421,-0.40935 -20.48586,-0.40935 -2.01024,0.28686 -5.94674,1.88158 -6.23088,1.97399 -0.68693,-0.11167 -0.45457,-0.0373 -1.1415,-0.14902 l -1.26275,-0.18612 c -3.83117,-0.57028 -7.7915,-0.33514 -11.67783,-0.33514 -1.7415,-3.02875 -3.48345,-1.57956 -5.15197,-4.02167 v -7.03793 c 2.27199,-1.66051 2.74772,-2.68596 2.74772,-5.02709 0.38945,-0.87556 0.72107,-1.77562 1.0304,-2.68112 v -1.6757 c -0.11444,-0.11167 -0.22898,-0.22342 -0.34347,-0.33513 0.11444,-0.782 0.22898,-1.56398 0.34347,-2.34598 -0.57244,-0.44685 -1.14488,-0.89371 -1.71732,-1.34056 v -0.33513 -1.34056 -0.33514 c 2.10585,-1.30769 4.12158,-1.41434 4.12158,-3.01626 -1.64508,-0.83521 -1.24136,-1.5895 -2.40426,-2.34597 0.5443,-0.80089 1.14488,-1.56399 1.71733,-2.34598 -0.0136,-0.94708 0.49062,-1.91494 0.68693,-2.68112 2.17828,-1.10273 2.56569,-1.44557 4.46504,-2.68111 -2.68883,-1.90628 -2.98584,-4.53776 -4.46504,-6.70279 v -9.71904 c -1.76538,-2.38763 -3.55082,-8.04827 -3.77812,-8.71363 v -3.68653 c -4.43031,-3.39319 -6.20422,-9.78298 -7.55623,-13.74073 -2.07961,-1.94085 -4.80851,-3.94212 -4.80851,-7.03793 0.16734,-2.43921 -0.79649,-4.44922 -1.37387,-6.70278 0.2609,-3.55226 2.25215,-6.62189 2.78515,-10.4301 0.43547,-3.11129 -0.90187,-7.16134 1.67989,-8.67285 z"
       id="Pan de Azúcar"
       inkscape:connector-curvature="0"
       sodipodi:nodetypes="cssssssssssssssssssssssscssssssssssssssscssssssssscsssssssssssssccsscsscccccccccccccccccccccsscccccccccccccscc" />
    <path
       style="display:inline;fill:#d7d7d7;fill-opacity:1;stroke:#000000;stroke-width:1.18747px;stroke-linecap:butt;stroke-linejoin:miter;stroke-opacity:1"
       d="m 179.46706,723.54129 c 0.0346,-3.74665 5.14749,-3.00312 6.18237,-6.0325 0.66045,-1.93335 -2.01057,-8.4275 -0.34347,-10.05418 2.10779,-2.0567 7.0164,2.53758 7.8997,1.67569 1.93952,-1.8925 1.64014,-5.2869 3.77812,-7.37306 2.78692,-2.71937 8.57773,-2.34598 12.70822,-2.34598 3.29974,0 10.20777,-1.38749 12.36474,-0.33514 6.85759,3.34568 5.56211,8.50858 8.93009,15.08127 1.30191,2.54069 5.62723,3.27341 6.86931,5.69738 1.57289,3.06952 1.71733,10.78348 1.71733,12.73529 4.59566,0.90781 6.92959,4.72136 10.30395,6.36765 2.01465,2.70966 6.6261,6.27263 10.66532,10.01829 3.09688,2.87181 5.43268,6.40354 8.56874,6.40354 2.95695,-3.74899 8.24316,-5.69878 8.24316,-10.72446 1.79052,-2.74106 2.60653,-4.69195 5.49544,-4.69195 2.08782,1.13785 3.08464,8.38488 6.86931,4.69195 1.16985,-1.14149 -0.95211,-4.05987 0.34346,-4.69195 4.35571,-2.12506 2.56099,2.92515 4.80851,4.02168 1.66677,0.81317 3.59831,-0.94694 4.80852,-1.34056 2.24521,-0.73027 2.96482,1.55239 4.12158,2.68111 0.80595,0.78642 8.87584,-1.90496 6.52583,2.68112 -0.39134,0.7637 -1.84543,0.25 -2.40425,1.34055 -1.37699,2.68722 9.58792,-0.12496 5.83891,5.36223 -2.28551,3.34515 -10.75366,4.07351 -14.76901,6.03252 -1.48663,0.72529 -3.90012,-0.18374 -5.49544,0.33513 -0.0625,0.0203 2.35103,3.45505 1.25897,3.70061 -1.02201,0.22981 -2.57704,-0.0141 -3.66323,-0.0141 -5.09616,0 -27.81482,-2.01369 -31.94226,0 -4.86392,2.37301 -9.20023,0.46693 -13.05168,2.34598 -2.69595,1.31529 -6.83734,3.16822 -9.27355,4.35681 -5.06405,2.47064 -7.24018,7.21887 -12.36475,9.71904 -3.36411,1.64128 -3.47312,-5.238 -6.18237,-4.3568 -2.34316,0.76212 -7.18162,6.68678 -7.55624,3.35139 -0.54696,-4.86986 1.78139,-5.29973 0.34346,-6.7028 -2.92067,-2.84988 -7.24233,-2.03968 -9.96049,-4.69195 -2.29977,-2.24403 0.57358,-3.13016 1.0304,-4.02167 0.25776,-0.50302 -0.10435,-2.2144 -0.34346,-2.68111 -0.25345,-0.49462 -0.574,-2.23126 -0.34348,-2.68112 1.33255,-2.60049 4.30632,-2.14039 2.74773,-6.70279 -1.85387,-5.42679 -11.24967,-3.18615 -13.39513,-7.37306 -1.40494,-2.74176 0.5571,-5.74227 -0.34347,-8.37849 -0.93695,-2.74273 -3.89562,-3.80118 -5.49545,-5.36223 -1.36097,-1.32799 -1.85242,-5.29073 -2.74773,-7.03793 -0.40978,-0.79971 -2.1301,0.5263 -2.74771,-1.00543 z"
       id="Piriápolis"
       inkscape:connector-curvature="0"
       sodipodi:nodetypes="cssssssssccscccssssssssscsssssssssssssssssscc" />
    <path
       style="display:inline;fill:#d6d6d6;fill-opacity:1;stroke:#000000;stroke-width:1.18747px;stroke-linecap:butt;stroke-linejoin:miter;stroke-opacity:1"
       d="m 294.87136,764.76345 c -0.69516,-1.52684 -2.4683,-2.95376 -1.71732,-3.68654 0.60413,-0.58948 2.98529,0.38681 3.77812,0 3.16066,-1.54202 6.87008,-2.23451 10.30394,-3.35139 4.27378,-1.39006 5.11302,-4.17023 8.24318,-5.69737 1.69746,-0.82816 3.77237,0.2253 5.49544,-0.33514 3.0369,-0.98776 7.07917,-1.88047 7.55623,-6.0325 0.1328,-1.15588 -0.0798,-18.27688 1.37385,-21.11379 1.9704,-3.84527 2.45172,-6.41396 4.80853,-8.71362 1.57244,-1.53433 -1.14065,-5.14708 -0.34347,-6.7028 1.03686,-2.02344 0.46317,-7.38108 1.27844,-8.97209 1.33812,-2.61137 0.301,-8.20115 3.26173,-8.60282 11.96797,-1.62367 5.65115,-0.10922 5.57137,-4.95191 -0.0843,-5.11553 0.46932,-8.85663 1.66725,-12.3633 0.70895,-2.07533 2.58058,-4.39718 3.18976,-6.18042 0.83629,-2.44807 4.44663,-6.39133 4.7776,-7.0372 1.40695,-2.74569 9.98615,1.31332 11.89877,1.9354 3.99241,1.29855 7.76118,1.9141 11.26081,3.05237 4.0998,1.33348 4.50471,8.98811 6.74251,11.17166 1.16796,1.13965 0.53025,5.07382 0.95923,6.32956 1.16884,3.42152 -1.31124,5.48647 0.5148,9.04999 2.43541,4.75275 2.01309,6.67366 2.01309,16.19627 0,2.47735 -0.31597,6.10564 0.0477,6.81533 1.97155,3.84753 2.92841,7.45594 4.1975,11.17091 1.83822,5.38097 -0.30125,5.87238 2.20808,10.76936 0.8361,1.63167 -0.38747,3.34575 0.30235,4.69195 1.17106,2.28536 -0.0949,5.78753 2.06326,5.39039 14.81625,-2.72654 1.74878,8.98163 1.74878,13.04228 0,18.39832 5.18528,7.24519 7.46436,11.69287 1.22728,2.39507 2.91556,4.79127 5.29709,7.11505 2.31085,2.25485 4.4823,5.32997 7.3507,6.7294 0.43423,0.21186 2.38258,8.41551 1.36419,8.41551 -2.34803,0 -2.53667,-0.90245 -4.80851,-2.01083 -4.4101,-2.1516 -23.69391,-0.67028 -30.56841,-0.67028 -3.3616,-0.26615 -6.38928,0.33513 -9.96049,0.33513 -1.82317,1.74724 -1.90519,3.07924 -2.06079,3.68654 1.75498,2.85289 0.81729,5.44298 0.34347,6.36765 -0.45795,0.11167 -0.91591,0.22343 -1.37387,0.33514 -3.65389,-1.85651 -6.17148,-4.78951 -8.93009,-8.37849 -4.04678,-2.90576 -7.75974,-5.24431 -12.36474,-6.36764 -2.68436,-0.63034 -5.17722,0 -7.8997,0 -1.52297,0.74205 -1.96165,1.51934 -3.09119,2.34597 -1.63845,-0.27348 -1.91981,-0.2576 -2.40426,-1.67569 -2.17775,-1.98709 -5.53841,-1.34056 -6.86931,-1.34056 -2.55174,-0.12344 -3.19659,1.10827 -4.12158,2.01083 -0.99874,2.18476 -1.55876,2.07098 -2.40425,2.34597 -3.69612,-3.8964 -1.71733,-1.09799 -1.71733,-2.34597 2.53647,-1.12308 1.92208,-6.0633 2.0608,-3.68653 0.0865,-3.57075 0.20511,-5.22725 2.06078,-7.03793 1.85418,-1.45323 1.71733,-3.45808 1.71733,-4.02167 0.14209,-2.12775 -0.4509,-2.84353 -2.06079,-4.02168 -2.45988,-1.62172 -5.54119,-5.36222 -8.24317,-5.36222 -2.81565,-2.23732 -6.32121,-1.67571 -10.30395,-1.67571 -4.22455,-0.0998 -8.35007,0.69115 -11.67782,1.34056 z"
       id="Maldonado"
       inkscape:connector-curvature="0"
       sodipodi:nodetypes="csssssssssssssscsssssssssssssscssccccccccccccccccccccc" />
    <path
       style="display:inline;fill:#d7d7d7;fill-opacity:1;stroke:#000000;stroke-width:1.18747px;stroke-linecap:butt;stroke-linejoin:miter;stroke-opacity:1"
       d="m 371.80757,802.96935 c 3.02561,-3.4356 -2.47789,-7.26069 1.05218,-10.70518 1.41155,-1.75901 24.77198,-1.0247 36.38553,-1.0247 1.76738,-0.14116 3.58637,0.0296 5.15197,0.33513 2.05222,0.0842 2.527,1.79548 3.43465,2.68112 -3.02845,3.05511 -6.9551,3.68654 -11.33435,3.68654 -3.38564,0.3826 -5.8111,3.00269 -7.8997,4.02167 -2.83152,2.55406 -4.89753,5.42013 -7.89969,7.37303 -4.03629,1.9959 -5.5368,6.22107 -6.86931,7.3731 -1.30365,1.0861 -0.3644,2.07571 -1.19186,2.76006 -4.49278,2.7792 -2.30441,2.96463 -4.4856,6.15713 -1.12169,1.11857 -2.77797,-0.0404 -3.25263,0.80191 -0.74047,1.6799 -0.89886,3.1588 -1.71733,4.3568 -2.56922,0.1047 -2.14731,0.2085 -3.43466,-1.6757 -0.17891,-3.3999 0.0458,-2.5806 1.0304,-4.0217 2.06403,-1.5469 1.57412,-1.2847 3.43465,-2.0108 2.22993,-0.9799 3.77812,-2.3923 3.77812,-4.3569 -10e-6,-2.0108 -0.93728,-3.26017 -1.71732,-4.6919 -3.65374,-5.5402 -5.20148,-8.90388 -4.46505,-11.05961 z"
       id="Punta del Este"
       inkscape:connector-curvature="0"
       sodipodi:nodetypes="ccccccccccccccccscc" />
    <path
       style="display:inline;fill:#d7d7d7;fill-opacity:1;stroke:#000000;stroke-width:1.18747px;stroke-linecap:butt;stroke-linejoin:miter;stroke-opacity:1"
       d="m 431.91398,445.71069 c -1.14953,-2.74917 -3.01697,-2.54525 -5.49545,-3.35139 -1.2533,-0.40765 -1.07386,-3.36554 -3.09119,-4.02167 -2.01663,-0.65592 -4.12504,6.36765 -6.18236,6.36765 -1.57388,0 -4.11213,-2.02006 -5.83892,-0.33515 -1.59386,1.55524 0.14065,6.96931 -2.74772,8.37849 -3.27005,1.59539 -4.94883,-3.97603 -5.8389,-3.68654 -1.72285,0.56036 -4.71982,6.78934 -6.86931,4.69196 -1.61816,-1.57894 -1.09058,-9.52211 -5.49544,-7.37307 -1.99585,0.97374 -4.76929,5.58257 -5.49545,7.70821 -0.39182,1.14697 -3.4435,1.01405 -4.12158,1.6757 -2.20371,2.15028 -3.69692,7.16588 -6.8693,8.71362 -5.17761,2.52605 -8.96395,-6.58006 -14.76901,-4.69195 -7.07251,2.30036 -3.28475,9.98105 -8.24316,12.40016 -1.41238,0.68907 -3.87906,1.22223 -5.49544,2.01083 -2.06569,1.00781 -4.49603,1.80758 -5.83891,2.68112 -1.12755,0.73347 -0.0357,3.29993 -0.56778,4.95859 -0.63098,1.96713 -2.84779,3.06614 -3.89727,4.09018 -0.24336,0.23745 -1.47118,1.72317 -2.06079,2.01083 -0.93283,0.45512 -2.41875,-1.64742 -3.09118,-0.33513 -0.67413,1.31555 -1.38926,2.04085 -2.0608,3.35139 -0.0976,0.19042 0.20115,1.9127 0,2.01084 -1.69296,0.82596 -6.0111,-1.50769 -7.21277,-0.33514 -2.07208,2.02186 -0.52986,6.54953 -2.74772,8.71362 -1.62215,1.58283 -5.82205,0.99994 -7.8997,1.67569 -1.59571,0.51902 -1.10617,2.25892 -2.40425,2.68113 -1.45292,0.47256 -3.916,-2.5466 -4.80852,-1.6757 -4.84224,4.72486 -0.01,6.37091 -9.27356,9.38391 -0.30431,0.099 -1.67613,0.71046 -2.06079,0.33513 -2.34384,-2.28703 -5.64205,-7.9473 -8.58663,-9.3839 -1.38574,0.46731 -2.12327,2.04131 -3.43465,2.68112 -1.70311,0.83091 -6.76515,-0.77192 -7.8997,0.33513 -4.99414,4.87309 5.65574,8.49764 1.71733,11.0596 -3.62054,2.35519 -7.49561,6.58447 -8.9301,9.38391 -1.87234,3.65389 -1.09548,6.29828 -4.80851,8.71362 -4.23298,1.01526 -5.0015,-0.57612 -8.24316,1.00543 0.15821,3.07 3.71501,4.09006 4.80851,4.3568 1.58663,-0.92058 2.75314,-1.00541 4.46504,-1.00541 2.50634,-0.77515 2.84594,1.19708 3.09119,1.6757 -0.39096,1.98475 -1.17572,2.77136 -1.71732,4.35681 -0.95681,2.84931 2.06078,2.25093 2.06078,4.35681 2.2531,2.28898 2.79208,4.86505 3.43466,7.37307 0.12307,1.37365 -0.34347,2.06195 -0.34347,3.35139 -6.23332,5.62732 -9.41046,-0.5367 -10.99088,1.00542 -2.24053,2.04933 -1.91351,2.10625 -2.40426,4.02167 -0.60427,3.32628 5.54156,3.55272 6.18237,4.02167 2.96079,1.97926 -5.85481,4.86198 -3.77811,6.36766 1.59269,2.76814 3.08229,3.12218 5.49543,4.69196 2.97567,1.1372 3.59876,1.31075 4.1216,3.35139 -0.20659,2.20006 0.34346,3.90592 0.34346,6.03251 0.20404,3.61177 6.73784,4.42817 10.30395,7.03793 2.13967,1.70857 1.05934,3.77125 1.71733,5.69737 0.73811,1.78408 0.13931,5.48874 0,6.03251 0.0573,4.63595 -5.08942,2.68111 -10.30396,2.68111 -1.41796,-0.0861 -1.93904,0.1772 -2.94608,1.17741 -0.92,0.83671 -1.1755,1.34137 -1.1755,2.50913 -0.66121,4.68335 1.304,7.4355 2.40426,11.72988 1.00137,3.97736 3.52763,10.52541 5.49544,13.40557 1.57358,2.35591 3.35771,4.28174 5.49545,6.36765 1.6358,2.32215 1.89438,3.92367 4.12158,6.7028 1.88656,2.31717 3.48445,2.20269 6.52583,3.68652 2.56825,1.80577 4.70417,6.01324 8.13916,6.01324 2.47855,0.0179 6.25929,1.02469 7.66025,1.02469 2.29381,0.42712 6.18236,8.58156 6.18236,11.72988 0.22119,3.43103 1.71129,6.86152 3.43466,9.38391 1.93718,3.46578 5.8222,4.02982 7.8997,3.01625 1.36348,-2.36946 2.25544,-4.92659 3.09118,-7.37306 1.46257,-0.69767 2.07021,-0.67028 3.43466,-0.67028 v 8.37849 c -0.23163,2.72342 0.31784,4.66694 2.06078,6.36765 -0.43375,2.82452 1.37387,3.45358 1.37387,6.0325 v 4.35682 c 1.04051,0.65523 2.21552,1.15639 3.09119,2.01084 2.48084,-1.45786 3.49868,-0.73277 5.49544,-2.68112 v -10.72447 c 0.0228,-2.90589 7.40342,-1.00542 10.30396,-1.00542 2.7639,0.6805 -2.59012,-9.54122 -1.0304,-13.74071 0.66451,-1.54868 1.44012,-2.43219 2.40425,-3.68653 1.46668,-1.08716 3.14134,-0.0808 3.09119,-1.6757 -0.75941,-2.54789 0.34347,-6.26235 0.34347,-7.70821 1.88477,-5.37917 3.26601,-4.62606 3.53165,-2.79241 1.1613,2.53006 2.48907,5.86124 4.71151,5.13839 2.4926,-1.09096 7.35229,-0.67028 8.9301,-0.67028 1.82393,0.31416 3.20052,1.1121 3.43465,1.34056 1.94631,1.72704 -0.52649,5.16163 -0.34346,5.69737 -0.47469,1.56338 -0.34348,4.04374 -0.34348,4.69195 0.7508,2.66357 2.99103,4.02167 3.77812,4.02167 0.96431,0.3362 1.37387,1.68192 1.37387,2.68112 -0.58081,1.37849 -0.54737,2.94285 -1.03039,4.35681 -0.53323,2.48821 -0.75239,3.43106 -0.34348,5.0271 0.57327,3.17137 1.34805,4.79525 4.12158,5.69736 0.48179,1.64409 0.34348,3.33891 0.34348,5.02709 -1.53548,2.88882 -1.50741,7.22404 -2.0608,9.38391 1.31699,2.82446 4.47235,5.3729 5.83891,7.37307 1.60978,2.52587 0.22615,3.42495 2.06079,4.02167 0.29458,3.41065 -0.96097,5.66349 -3.77812,7.03793 -2.38952,1.30863 -2.74772,1.91774 -2.74772,3.35139 0.61232,1.50911 1.37387,2.74905 1.37387,4.35682 -10e-6,1.00541 0,2.01083 0,3.01626 -0.14082,2.08339 3.86544,3.60322 6.18236,4.3568 1.70782,0.95637 1.80766,1.56979 2.40426,2.34598 1.87186,5.37518 0.93589,12.6768 -0.68693,17.42725 -0.27624,2.1479 2.28837,4.52233 2.40425,4.69195 2.37083,1.27879 3.61442,3.3514 6.52585,3.3514 2.34383,-0.23991 2.86126,5.0243 3.09118,5.69737 1.27809,1.76453 2.32254,2.60137 3.09119,3.35139 1.00459,1.27538 6.62503,0.67028 9.61702,0.67028 2.15863,1.2042 2.23914,2.46629 3.43466,4.02167 h 10.64742 c 1.53476,-1.18233 1.24775,-2.31197 1.71733,-3.68652 1.57245,-2.25391 5.03766,-2.49488 7.55623,-1.67571 1.04671,0.15432 1.58646,0.47344 2.40425,1.00543 4.58932,-0.50794 8.37738,-3.41688 11.67782,-5.0271 0.89317,-0.72019 2.95239,-1.20512 3.77812,-2.01083 1.4474,-1.41233 3.64328,-3.75855 4.46504,-5.36223 0.56107,-1.09494 12.59569,-8.60384 14.42554,-10.38932 2.09385,-2.04309 6.21573,-2.71367 8.24318,-4.69196 1.13606,-1.10853 2.93734,-4.28176 4.46504,-5.0271 1.69958,-0.82919 3.08719,-1.33276 3.77812,-2.68111 0.26549,-0.51812 5.65578,-0.72243 6.52583,-1.00542 3.17513,-1.03271 6.22313,-3.87398 9.27357,-5.36222 1.2228,-0.59659 2.81879,0.0886 4.12158,-0.33515 2.10023,-0.6831 6.49588,-0.37898 5.15197,-2.34598 -0.84282,-1.23358 -4.76421,0.62696 -4.80851,0.33515 -1.52595,-0.74448 -3.18266,-1.50356 -5.49544,-0.67028 -2.28137,0.82196 -2.89342,3.86257 -7.55623,2.34598 -2.0836,-0.6777 -3.28507,-3.73705 -5.38532,-6.08387 -2.76914,-3.09425 -6.33986,-5.69223 -8.00983,-7.32171 -0.39671,-0.3871 -6.61561,1.51573 -5.15197,-1.34056 0.70914,-1.38393 3.95657,-1.3537 4.80851,-3.01626 0.94545,-1.84507 0.34466,-7.03754 4.46504,-5.69737 0.78523,0.2554 3.37611,5.81164 3.77812,5.0271 0.28297,-0.55223 3.13875,0.89985 2.53878,-2.27805 -0.21731,-1.15101 1.89176,-1.37482 2.26973,-1.74363 0.5441,-0.53091 3.52803,-0.85249 3.77812,-1.34056 0.65046,-1.2694 -0.65893,-3.32407 -1.0304,-3.68653 -1.99796,-1.94954 1.24548,-2.89099 1.71732,-3.3514 1.54423,-1.08322 -1.08847,-1.54868 0.3157,-3.77967 0.85031,-1.35102 2.79606,1.16385 4.65286,-0.47518 0.89269,-0.78798 3.38116,-2.58877 4.10113,-4.34993 0.64697,-1.58264 2.79061,-2.19411 3.09632,-2.49242 0.74372,-0.72569 5.34324,-1.07662 5.85998,-2.08504 0.19267,-0.376 -5.47148,-7.76344 -6.35663,-10.62312 -0.84393,-2.72649 -0.71723,-4.846 -1.24573,-6.39306 -0.89385,-2.61658 -0.80944,-7.93804 -0.7734,-7.9732 0.8786,-0.85731 1.47727,-1.33433 1.96224,-2.75396 0.73384,-2.14814 1.78015,-3.04509 2.5687,-5.35336 0.53956,-1.57946 0.78036,-4.86485 1.33274,-6.4818 0.30728,-0.89948 5.58032,-10.00598 1.12475,-8.93307 -3.39601,0.81776 -3.91431,-4.57061 -5.03832,-7.86092 -6.68901,0.2193 -1.86001,-2.56896 -3.33065,-4.00395 -0.57189,-0.55802 -1.39503,-2.21203 -1.81168,-3.02512 -0.70458,-1.37499 -2.60312,-2.19824 -2.03652,-3.30395 0.90605,-1.76815 -0.44476,-3.67441 -0.94898,-5.83092 -0.5407,-2.31262 0.26377,-4.6709 0.78207,-6.69381 1.11024,-4.33332 -0.32679,-5.91225 -1.67868,-8.55049 -0.31301,-0.61084 -1.3071,-2.27917 -1.26179,-4.23718 0.0663,-2.86939 -1.04025,-3.50263 -0.44342,-4.085 0.79331,-0.77408 0.003,-2.50983 0.86596,-4.70083 1.50078,-3.81034 -0.83477,-6.05098 1.40285,-9.32606 2.80955,-4.11216 2.17786,-5.1413 3.50968,-9.03989 0.8308,-2.432 2.42063,-6.23629 2.40919,-9.71831 -0.013,-3.94233 -0.37568,-6.82906 0.89967,-9.31792 1.46714,-2.86314 3.93727,-2.56835 7.35463,-4.49397 2.37275,-1.337 4.75588,-3.8321 6.47831,-5.51278 2.19399,-2.1408 3.87753,-6.03232 3.17705,-8.67835 -0.66152,-2.49888 0.31143,-7.67893 -1.69317,-10.21386 -1.20046,-1.51804 -3.80458,-4.02682 -5.27744,-5.46476 -1.48443,-1.44925 -5.16268,1.01867 -5.57186,0.41976 -4.61425,-10.83974 -13.21155,-19.75219 -23.18155,-24.61635 -2.41827,-3.89988 -5.78978,-3.37272 -9.4308,-4.55697 -1.16377,-0.37852 -3.30808,-0.59469 -5.77601,-0.59469 -3.1451,0 -5.72652,-1.21427 -6.76777,-2.23028 -1.78601,-1.74272 -5.94858,-1.23938 -8.73174,-1.78252 -7.76453,-1.51527 -7.98873,-0.97339 -13.96841,-2.9183 -2.97719,-0.96833 -3.95821,-3.08982 -6.013,-5.09535 -3.50293,-3.41803 -24.36178,9.35413 -24.36178,-2.77908 3.85979,-1.98536 1.67596,-9.34355 2.0608,-9.71904 6.32715,-6.17378 7.47676,-25.05793 7.55623,-25.13546 1.54205,-1.50467 1.86484,-1.7251 2.40426,-4.35682 z"
       id="San Carlos"
       inkscape:connector-curvature="0"
       sodipodi:nodetypes="csssssssssssssssscscccssssscscssssccccccccccccccccccccccccccccccccccccsccccccccccccccccccccccccccccccccccccccccccsssssscscscsssssssssssccsssscssssssscssssssssssssssssssccsssssccccc" />
    <path
       style="display:inline;fill:#d7d7d7;fill-opacity:1;stroke:#000000;stroke-width:1.18747px;stroke-linecap:butt;stroke-linejoin:miter;stroke-opacity:1"
       d="m 519.98009,530.32896 c 4.00516,0.36232 6.91391,-4.16327 8.03631,-5.25848 0.38843,-0.37903 0.23785,-4.67119 0.3556,-4.90097 1.21465,-2.37044 -0.0973,-2.14226 1.35207,-4.97079 3.4554,-6.74329 6.66448,-8.04829 7.66271,-9.99634 1.82635,-3.56418 -2.16187,-8.76662 -0.96997,-9.92961 1.40408,-1.37005 -1.08134,-4.766 -0.43288,-6.66423 0.12409,-0.36324 3.63825,-2.29854 3.87965,-2.29854 1.30631,0 3.40898,-1.93988 4.1627,-4.14624 1.74769,-5.11598 10.30321,-10.47022 11.52284,-11.32956 14.64357,-10.31776 0.89302,-5.25277 14.94576,-9.74874 1.08271,-0.34639 9.01422,-6.92208 12.37165,-6.92208 3.2892,0 9.79009,-9.79053 9.44569,-10.79866 -0.32977,-0.96534 -1.69702,-0.63066 -2.06078,-1.34057 -0.8424,-1.64393 -4.20928,-10.02565 -3.09119,-10.38931 4.27748,-1.39127 3.52535,2.89294 5.8389,4.02167 2.41666,1.17904 7.58941,-6.33528 10.30396,-3.68653 2.38848,2.33059 0.64711,4.61422 1.71732,6.70278 1.04534,2.03998 4.67396,-0.0293 5.83891,1.6757 0.91681,1.34189 -0.60914,5.1641 1.0304,5.69738 4.49695,1.46264 2.20421,-7.37308 6.52584,-7.37308 1.74804,0 3.09119,-3.14753 3.09119,-5.02708 0,-1.40516 -2.97575,-5.25239 -1.71734,-7.70821 1.4135,-2.75847 1.96119,-5.07064 3.09119,-8.37849 0.25666,-0.75128 2.27385,-1.29395 2.74773,-2.68111 1.15653,-3.38549 -0.34347,-17.86677 -0.34347,-22.45435 3.40745,-1.62228 0.82705,-27.85408 1.71732,-29.15713 0.48067,-0.70352 3.64905,-5.0698 3.43466,-5.69738 -0.41829,-1.22446 -1.81063,-2.10187 -2.40425,-2.68111 -1.87624,-1.83074 -1.03041,-7.13764 -1.03041,-9.71904 0,-1.70949 -0.76536,-5.5443 0,-7.03792 0.69246,-1.35136 3.02897,-2.80257 2.0608,-4.69196 -2.88506,-5.63026 -4.90467,-15.18859 -3.77812,-21.78406 0.84452,-4.94425 3.09119,-8.91171 3.09119,-12.73531 2.87975,-6.19897 -6.93661,-10.32364 -1.71733,-15.41641 0.39788,-0.38823 1.47656,0.23493 2.0608,-0.33514 2.15712,-2.10484 -1.3382,-4.81526 3.43465,-6.36765 1.50585,-0.48978 7.75466,0.58086 6.52583,-3.01626 -0.45557,-1.33357 -0.52712,-3.60857 -2.06079,-4.3568 -1.00272,-0.48921 -9.34156,-2.94992 -6.52584,-5.69738 0.75435,-0.73605 1.32595,-2.3226 2.74773,-3.01625 1.55714,-0.75971 7.49874,-0.44734 5.49544,-4.35682 -1.05409,-2.05709 -10.08905,-7.12219 -8.24317,-10.72446 0.56862,-1.10966 3.56901,0.53919 4.80851,-0.67028 1.70638,-1.665 -1.27893,-4.8772 -0.34346,-6.70278 0.78639,-1.53466 3.32446,0.0537 4.12158,-0.33515 0.99677,-0.4863 -0.85251,-5.87093 0,-6.70278 1.59674,-1.55804 3.40465,0.42298 4.46506,-2.68113 0.70453,-2.06234 -7.75659,-10.44515 -9.27357,-13.40557 -1.82911,-3.56955 6.4515,-2.49105 5.15197,-5.02709 -0.98205,-1.91652 -2.36157,-2.9746 -3.77811,-4.35682 -3.87857,-3.78454 6.07329,-9.03293 5.15198,-11.72988 -2.40508,-7.04031 -9.00202,-11.80005 -13.39515,-16.08668 -2.03881,-1.9894 3.18569,-4.2061 3.43466,-4.69196 1.08295,-2.1134 -1.78405,-4.2266 -1.0304,-5.69738 1.58872,-3.10039 2.93282,-9.11299 2.06079,-10.38931 0.17995,-2.46914 2.25993,-2.06432 3.09119,-3.68654 0.37455,-0.73094 -1.8917,-1.84585 -2.40425,-2.34598 -0.98306,-0.95921 1.25554,-3.80198 0.68693,-4.3568 -0.7859,-0.76686 -2.56135,-0.22993 -3.09119,-1.00542 -1.76946,-2.58985 2.9616,-3.43365 3.77812,-5.0271 0.58083,-1.1335 -2.97907,-2.56478 -1.71734,-5.02708 3.77046,-7.35811 -0.22402,-4.34234 -1.71732,-8.71363 -0.44458,-1.30144 1.61714,-3.11402 0.68693,-4.02168 -2.27172,-2.21666 -3.85169,2.71701 -4.46504,3.01625 -2.80599,1.36899 -4.61508,-2.66698 -6.18238,-3.68652 -1.51042,-0.98254 -2.58154,2.34598 -3.43464,2.34598 -0.8209,0 -2.06097,-2.17834 -3.09119,-1.67571 -0.92937,0.45342 -1.03095,2.68165 -1.71733,3.3514 -1.23068,1.20084 -3.65615,0.21612 -4.80851,1.34055 -1.83554,1.79105 -2.23786,3.18903 -4.12159,5.0271 -2.45049,2.39109 2.83267,4.86132 1.71733,7.03793 -1.61312,3.14803 -6.21199,1.7335 -7.8997,5.02708 -0.47788,0.93259 2.08501,7.3967 2.40426,7.70821 1.02401,0.9992 -2.02151,2.75779 -1.37386,4.02167 1.05769,2.06411 4.80208,3.0351 3.77812,6.03252 -1.74867,5.11884 -8.96176,3.70712 -12.02129,5.69737 -0.65151,0.42382 -0.42324,2.3849 -1.0304,2.68112 -2.92348,1.4263 -5.28154,3.07947 -7.89969,4.3568 -3.04287,1.48456 0.98274,14.4575 -1.37386,16.75698 -0.90824,0.88622 -8.37681,-1.44294 -10.64742,-0.33514 -3.80158,1.85471 -1.33857,7.02071 -4.12159,8.37849 -3.81584,1.86167 -6.10698,-2.20975 -8.58663,-3.01626 -3.78278,-1.23036 -7.75482,4.73907 -12.02128,3.35139 -4.28947,-1.39516 -0.39159,-3.06321 -2.40425,-5.02709 -1.13371,-1.10621 -4.91513,1.23653 -5.83892,0.33514 -1.38765,-1.35402 -0.98957,-1.82335 -2.74772,-2.68111 -2.88024,-1.40522 -2.54389,5.49849 -3.77812,6.70279 -4.11277,4.01308 -6.88837,-3.23348 -10.64741,-2.01084 -4.39705,1.43015 -1.83562,6.81822 -3.77813,8.71362 -1.51345,1.47677 -5.05781,0.5784 -6.18236,1.6757 -0.91466,0.89249 -0.38064,3.05254 -1.37386,4.02167 -3.98316,3.8866 1.55904,2.03709 3.09118,5.0271 1.84642,3.60334 -2.55348,6.80447 -3.43466,9.3839 -0.8083,2.36612 1.23739,2.2128 2.0608,3.01626 0.0694,0.0677 -1.44356,9.58548 -1.71732,9.71904 -0.37031,0.18066 -1.7484,0.0303 -2.0608,0.33515 -1.93065,1.88385 2.32288,6.11191 -0.34346,8.71362 -2.68356,1.36366 -7.23355,7.35278 -4.80851,9.71904 0.36127,0.35252 4.05627,2.07457 3.09118,3.01626 -3.20022,3.12264 -12.28965,2.19943 -14.08207,5.69736 -1.15276,2.24963 -2.36912,7.10649 -1.0304,9.71905 0.41338,0.80672 4.38144,2.7627 3.09119,4.02168 -2.76819,2.70107 -6.67999,-0.18473 -8.58663,1.67569 -2.02881,1.97963 -3.68649,7.64861 -5.83891,9.04877 -1.17351,0.76337 -1.84753,0.6933 -2.74772,2.01083 -3.59208,5.25752 5.45111,14.7894 2.06079,18.09753 -2.0841,2.03359 -6.02357,6.5731 -6.86931,9.04877 -1.23958,3.62862 3.12199,5.78751 4.12158,8.71363 1.30698,3.82586 -4.15449,6.46399 -5.15197,9.3839 -1.72723,5.05609 6.17886,7.71507 3.43465,13.07044 -1.28403,2.50581 -3.76979,5.68925 -5.49544,7.37306 -1.71026,1.66881 -0.52868,6.12287 -3.09118,7.37308 -1.62333,0.79198 -7.98353,-12.98866 -10.99089,-10.05419 -2.23829,2.18403 0.49532,5.58799 -0.34347,8.04335 -1.1885,3.47908 -3.30755,8.41539 -2.06079,12.06501 -2.67693,3.55827 -2.60954,13.47106 -4.12158,16.42184 -2.71094,5.29044 -5.2344,15.24214 -8.24316,21.11379 -2.35199,4.58994 1.40435,8.65412 -1.37386,14.07585 -1.9167,3.74048 -1.03678,10.07286 -2.40426,14.07585 -0.67973,1.98976 -2.8287,4.87765 -3.84322,8.32644 -0.59809,2.0332 -0.0176,5.02664 -0.62183,6.08457 -3.33895,5.84572 -0.58776,12.01664 -7.55623,18.76781 -2.79617,2.50215 1.87198,6.19403 -2.0608,10.38932 -2.26073,2.08669 0.44966,3.45501 1.37387,4.35681 3.56992,3.48339 14.33441,3.5412 17.86018,2.68112 0.89051,-0.33411 1.8419,-0.26443 2.58083,1.91963 -1.24638,2.66303 -1.7786,6.68747 0.1669,6.45885 3.37935,-0.18401 3.30167,-2.03959 5.83891,-1.67569 2.37391,0.11003 3.61813,-2.01084 5.8389,-2.01084 2.17766,-0.0384 4.30089,1.5689 5.49545,2.34597 2.77138,1.54485 4.27004,3.68654 5.49544,3.68654 3.41628,-0.27417 6.61002,0.33514 9.96049,0.33514 h 3.09118 c 1.65175,-0.0637 -0.30273,3.31844 2.0608,3.3514 2.07858,0.21116 3.80938,-0.33515 5.83891,-0.33515 1.69512,0.0131 3.43151,0.44481 4.80851,1.34056 6.14374,2.76918 9.32728,5.98804 14.42554,9.71905 1.30975,0.9585 3.05234,3.03706 4.46505,4.02166 1.74926,1.2192 4.32331,4.7537 1.58862,1.41502 3.13021,3.05433 3.20251,7.12658 9.88475,7.1266 z"
       id="Aiguá"
       inkscape:connector-curvature="0"
       sodipodi:nodetypes="cssssscsssssssssssssssscscssssssscsssssscsssscssssssscscssssssssssssssssssssssssssssssssssssssscccssssssssssssssssscssssssccscccccccsccccsscc" />
    <path
       style="display:inline;fill:#d7d7d7;fill-opacity:1;stroke:#000000;stroke-width:1.18747px;stroke-linecap:butt;stroke-linejoin:miter;stroke-opacity:1"
       d="m 524.51219,743.91777 c -14.09811,0.62153 3.95582,-2.76198 -6.04498,-7.64117 -5.45406,-4.74285 -6.28243,-9.03821 -11.33435,-12.73531 -1.22697,-3.22058 2.33131,-1.1982 3.77812,-4.02167 0.77911,-1.52045 -3.03591,-1.72964 -1.71734,-3.01625 1.4493,-1.41416 5.15198,1.13537 5.15198,-3.01625 0,-2.35768 -6.72988,-2.61806 -4.46505,-7.03793 0.4191,-0.81788 4.19169,-4.22 4.12158,-4.35682 -0.83575,-1.631 -2.34498,-2.84276 -2.74771,-4.02167 -0.96858,-2.83529 -2.74772,-19.87621 -2.74772,-22.78948 0,-0.41619 1.74401,-2.06293 2.06078,-2.68112 0.36771,-0.71759 -1.33479,-3.09249 -0.68693,-4.35681 1.12635,-2.19807 7.1122,-9.91531 5.49545,-13.07044 -2.6097,-5.09288 -6.49043,-5.66281 -9.27356,-8.37849 -0.89993,-0.87812 -1.49435,-6.70278 -0.34347,-6.70278 0.51105,0 -2.67846,0.0676 -3.43465,-0.67028 -0.74631,-0.72823 2.74772,-3.45146 2.74772,-5.0271 0,-3.27655 -1.98112,-3.19591 -2.74772,-4.69195 -0.38703,-0.75529 1.37387,-9.78544 1.37387,-11.72988 -1.38341,-3.90955 -4.81263,-3.36341 -5.49545,-5.36222 -0.38024,-1.11309 1.56307,-2.04496 2.06079,-3.01626 1.07841,-2.10455 -1.36807,-5.0384 -0.34346,-7.03793 0.66459,-1.29698 3.35785,-0.44549 4.12158,-2.68112 0.5283,-1.54648 -3.54075,-5.49033 -2.0608,-8.37848 1.10083,-2.14828 4.94602,-10.32254 7.21277,-14.74614 2.16256,-4.22027 -1.69697,-11.76958 0.68693,-16.42183 0.91993,-1.79526 9.36779,-4.94603 11.67782,-5.69738 1.78074,-0.57919 -0.10578,-1.5725 1.0304,-2.68111 1.46366,-1.42818 4.41569,-3.25508 5.49544,-5.36223 0.43967,-0.85803 -0.36807,-1.72372 -0.68693,-2.34598 -0.76398,-1.49091 -0.1404,-4.09753 -0.68693,-5.69737 -0.96314,-2.81937 -8.09896,-5.11408 -7.21277,-7.70821 0.40554,-1.18711 0.17299,0.29488 1.37386,-1.00541 1.5444,-1.67227 -1.51076,-5.43021 -0.68693,-7.03793 0.46093,-0.89952 1.92655,-0.5393 2.0608,-0.67028 0.94734,-0.92438 0.59119,-8.74107 2.40425,-11.39475 1.65775,-2.42635 6.97122,-3.55027 7.8997,-5.36223 0.0221,-0.0433 0.86212,-2.51017 1.37386,-2.01083 2.03516,-0.3351 -3.52654,-8.86943 -3.43465,-9.04877 0.79761,-1.55655 4.19383,-4.29325 4.80851,-4.89304 0.71332,-0.69602 0.50225,-2.79083 0.90392,-3.4827 1.26679,-2.18215 2.17499,-3.00303 4.24805,-5.70012 1.34282,-8.68996 -3.93306,-17.97906 -0.68692,-27.48143 0.57573,-1.6853 3.76425,-2.97566 4.46504,-5.02709 1.60618,-4.70173 0.45797,-5.25053 2.74773,-9.71905 0.55196,-1.07716 -1.95449,-3.45512 -0.68693,-4.69195 0.69412,-0.67729 3.38011,5.64415 5.15197,7.37308 1.02877,1.00383 5.11493,3.66845 6.52584,4.3568 1.68316,0.82119 6.1404,-1.71665 7.55624,-0.33513 2.69181,2.62655 -3.12534,9.04876 5.15197,9.04876 1.64655,0 12.02128,-0.6145 12.02128,1.00542 0,2.6146 -3.15653,5.17094 -2.06078,8.37848 0.44197,1.29382 3.26437,2.01367 4.12158,3.68654 0.92952,1.81399 -0.34432,7.70736 1.03039,9.04877 1.72301,1.68124 5.32291,2.34439 6.18238,4.02167 3.65867,7.13997 4.54665,15.65531 6.8693,22.45435 1.9898,5.82467 -9.4822,6.16406 -6.52584,9.04875 3.49722,3.41245 4.06734,9.33098 5.15199,10.38932 3.17314,3.09625 3.18709,-2.96945 5.8389,-1.67569 0.43058,0.21007 -0.29606,2.53668 0.68693,3.01626 0.94837,0.46269 3.10459,0.34822 3.77811,1.00541 1.99362,1.9453 -0.50379,5.54094 0.34347,6.36766 1.23423,1.2043 5.20037,7.17958 5.49545,8.04334 0.60541,1.77222 2.68499,12.46136 1.03039,14.07586 -0.15209,0.14841 -3.09119,1.24861 -3.09119,0.67028 0,-1.36363 -1.96232,2.05774 -2.40426,3.35139 -0.69216,2.02616 -4.28971,4.80132 -6.18237,6.03252 2.01148,-1.6533 2.41231,1.98725 1.71733,4.02167 -1.10026,3.22074 -5.82417,-1.03417 -7.55624,2.34597 -0.73534,1.43504 3.61909,2.50115 2.0608,4.02168 -0.47476,0.46324 -2.63957,2.78664 -2.40426,3.01625 0.92895,0.90643 4.34698,1.01589 3.43465,3.68654 -0.67843,1.98595 -5.30165,6.47065 -6.52584,10.05417 -1.6026,4.69126 3.73532,6.91266 4.46505,9.04877 1.56426,4.57902 -2.71963,6.95567 -3.77811,10.05419 -0.74548,2.18221 0.40499,5.24213 -0.68694,7.37306 -0.47601,0.92896 -2.04512,0.6397 -2.40425,1.34056 -3.88327,7.57828 10.93695,7.76083 6.18238,12.40016 -1.23389,1.20397 -0.98964,8.02346 -1.03041,8.04335 -0.43726,0.21333 -3.97833,2.1506 -2.74772,3.35139 1.38488,1.35132 2.74772,3.78604 2.74772,5.69738 0,1.73598 -3.38898,6.27851 -4.46504,8.37848 -1.31997,2.57594 2.05487,2.99894 2.74772,5.02709 0.59192,1.73274 -1.4591,6.61962 -0.34346,7.70821 0.83695,0.81667 2.84243,1.09784 3.43465,1.6757 0.82885,0.80876 0.37335,5.42055 1.03039,6.70278 -0.53386,0.85428 1.30165,5.51499 0.46038,7.79052 -0.29389,0.79491 -0.62602,3.75981 -1.49299,3.89203 -1.0973,0.16734 -2.76191,-2.64978 -3.08897,-2.96891 -0.93913,-0.91637 -0.53767,-2.52086 -2.06079,-3.01626 -1.79719,-0.58455 -4.19826,-1.75052 -5.49544,-3.01626 -1.07639,-1.05029 -4.16347,1.2997 -5.15199,0.33514 -1.18567,-1.15693 2.39772,-9.04557 -1.03039,-7.37307 -1.36641,0.66665 -5.30616,8.74789 -4.80851,9.71904 0.64673,1.26213 3.45186,1.03901 4.46505,3.01626 1.10348,2.15348 -3.33856,3.59277 -4.12159,4.35682 -2.93925,2.868 0.20837,7.90593 -1.71733,10.72445 -3.87637,5.67363 -5.06136,-8.55015 -10.40919,-6.48701 -0.0546,0.0211 -3.88331,3.34095 -6.4206,5.81674 -0.85254,0.83187 -0.0399,2.38491 -0.68693,3.01625 -3.42255,3.33958 -2.56762,-1.02176 -5.83891,5.36223 -0.70196,1.3699 2.93639,6.86486 3.43465,6.7028 3.69255,-1.20102 -4.42258,-10.15209 7.21277,-6.36765 4.05531,2.05525 3.43727,-5.02328 5.49544,-2.01084 1.04099,1.5236 1.65288,1.61281 2.74773,2.68112 2.2842,2.22883 -1.55041,5.77879 2.40426,7.7082 3.0039,1.46554 6.27493,-4.36193 9.3766,-2.84869 0.36921,0.18014 -2.55887,1.8936 -2.85076,2.17842 -2.78714,2.71956 -7.25988,2.0568 -9.61703,4.3568 -1.75625,1.71368 -15.04014,10.58922 -17.51673,11.39475 -2.0351,0.66192 -7.06895,2.20564 -8.58663,3.68652 -6.2475,6.09607 2.59067,12.11611 -2.40426,13.74073 -8.3454,2.71436 -5.04387,-4.47164 -6.86929,-5.36224 -3.33604,-1.62758 -6.81274,0.98567 -9.75442,0.26811 z"
       id="Garzón"
       inkscape:connector-curvature="0"
       sodipodi:nodetypes="cccssssssssssssssccssssssssssssssscscccsscssssssssscsssssssssssssscssssssssssscsssssscsssssssssssssssscssscssssssc" />
    <text
       xml:space="preserve"
       style="font-style:normal;font-weight:bold;line-height:0%;font-family:sans-serif;-inkscape-font-specification:'Sans Bold';letter-spacing:0px;word-spacing:0px;display:none;fill:#000000;fill-opacity:1;stroke:none"
       x="555.53198"
       y="334.02914"
       id="text3832"><tspan
         sodipodi:role="line"
         id="tspan3834"
         x="0"
         y="0"
         style="font-size:28px;line-height:0.01;font-family:sans-serif">1</tspan></text>
    <text
       xml:space="preserve"
       style="font-style:normal;font-weight:bold;line-height:0%;font-family:sans-serif;-inkscape-font-specification:'Sans Bold';letter-spacing:0px;word-spacing:0px;display:none;fill:#000000;fill-opacity:1;stroke:none"
       x="547.53198"
       y="610.02911"
       id="text3836"><tspan
         sodipodi:role="line"
         id="tspan3838"
         x="547.53198"
         y="610.02911"
         style="font-size:28px;line-height:0.01;font-family:sans-serif">2</tspan></text>
    <text
       xml:space="preserve"
       style="font-style:normal;font-weight:bold;line-height:0%;font-family:sans-serif;-inkscape-font-specification:'Sans Bold';letter-spacing:0px;word-spacing:0px;display:none;fill:#000000;fill-opacity:1;stroke:none"
       x="351.53195"
       y="752.02911"
       id="text3840"><tspan
         sodipodi:role="line"
         id="tspan3842"
         x="0"
         y="0"
         style="font-size:28px;line-height:0.01;font-family:sans-serif">3</tspan></text>
    <text
       xml:space="preserve"
       style="font-style:normal;font-weight:bold;line-height:0%;font-family:sans-serif;-inkscape-font-specification:'Sans Bold';letter-spacing:0px;word-spacing:0px;display:none;fill:#000000;fill-opacity:1;stroke:none"
       x="219.53197"
       y="648.02911"
       id="text3844"><tspan
         sodipodi:role="line"
         id="tspan3846"
         x="219.53197"
         y="648.02911"
         style="font-size:28px;line-height:0.01;font-family:sans-serif">4</tspan></text>
    <text
       xml:space="preserve"
       style="font-style:normal;font-weight:bold;line-height:0%;font-family:sans-serif;-inkscape-font-specification:'Sans Bold';letter-spacing:0px;word-spacing:0px;display:none;fill:#000000;fill-opacity:1;stroke:none"
       x="219.53197"
       y="756.02911"
       id="text3848"><tspan
         sodipodi:role="line"
         id="tspan3850"
         x="219.53197"
         y="756.02911"
         style="font-size:28px;line-height:0.01;font-family:sans-serif">5</tspan></text>
    <text
       xml:space="preserve"
       style="font-style:normal;font-weight:bold;line-height:0%;font-family:sans-serif;-inkscape-font-specification:'Sans Bold';letter-spacing:0px;word-spacing:0px;display:none;fill:#000000;fill-opacity:1;stroke:none"
       x="387.53195"
       y="814.02911"
       id="text3852"><tspan
         sodipodi:role="line"
         id="tspan3854"
         x="387.53195"
         y="814.02911"
         style="font-size:28px;line-height:0.01;font-family:sans-serif">6</tspan></text>
    <text
       xml:space="preserve"
       style="font-style:normal;font-weight:bold;line-height:0%;font-family:sans-serif;-inkscape-font-specification:'Sans Bold';letter-spacing:0px;word-spacing:0px;display:none;fill:#000000;fill-opacity:1;stroke:none"
       x="399.53195"
       y="614.02911"
       id="text3856"><tspan
         sodipodi:role="line"
         id="tspan3858"
         x="399.53195"
         y="614.02911"
         style="font-size:28px;line-height:0.01;font-family:sans-serif">7</tspan></text>
    <text
       xml:space="preserve"
       style="font-style:normal;font-weight:bold;line-height:0%;font-family:sans-serif;-inkscape-font-specification:'Sans Bold';letter-spacing:0px;word-spacing:0px;display:none;fill:#000000;fill-opacity:1;stroke:none"
       x="143.53197"
       y="656.02911"
       id="text3860"><tspan
         sodipodi:role="line"
         id="tspan3862"
         x="143.53197"
         y="656.02911"
         style="font-size:28px;line-height:0.01;font-family:sans-serif">8</tspan></text>
  </g>
</svg>
