<svg id="mapa" width="400" height="513.27" version="1.1" xmlns="http://www.w3.org/2000/svg">
 <g transform="matrix(1.2019 0 0 1.1872 -245.33 -309.08)">
  <path id="Laguna del Sauce" d="m335.88 605.35c-2e-5 0 0 1e-5 0 0-1.2509-1.8397-1.5945-2.1732-2.1962-3.7146-0.19329-0.49512 0.0992-2.3733-1.013-1.92-1.0912 0.44473-2.0941 0.7268-1.8123 2.2581 0.38929 2.1147 0.98105 6.1316 2.8806 7.1391 1.2748 0.67613 3.0893 0.67647 4.6257 0.70961 1.335 0.0288 2.8688-0.59234 3.5461 0.72951 0.18261 0.35637 0.77601 2.4476 0.47092 2.7786-0.3084 0.33458-1.1365 1.0262-2.0842 1.6026-1.2114 0.73682-2.8409 2.2403-3.6855 1.8464-0.68743-0.32059-2.5682-1.4279-2.9164-0.93595-3.1182 4.4057 4.8606 5.4887-0.30476 9.508-2.0847 1.189-1.6622 0.65729-2.8095 1.8837-0.59001 0.63074-1.0431 2.4164-1.2661 2.8776-0.17349 0.35874-0.62598 1.3978-0.75616 1.5248-0.63005 0.61478-1.9015 0.19815-2.3505 0.65301 0.29771 2.4631-0.94736 3.3689-2.7984 3.7857-0.25513 0.0574-3.6755-0.16259-3.8262-0.22582-0.8234-0.34554-0.59341-0.95035-0.55949-1.5732 0.0335-0.61544 0.22179-0.97152 0.14165-1.4495-0.12286-0.73288-0.79619-1.4759-2.5013-1.4759-1.0421 0-1.4492 0.86329-2.0831 1.7959-0.59301 0.8725-1.6994 1.9215-2.747 1.5808-0.96568-0.3141-0.9509-2.388-1.6965-4.3276-0.54846-1.4268-0.90489-2.2586-2.193-2.6776-1.4158-0.46051-2.4906 0.15586-2.4782 1.7907 0.0175 2.3076 1.9667 5.6926 2.0252 5.7496 0.71626 0.6989 1.2981 0.65765 2.0326 1.3744 0.91601 0.89381 2.526 2.1115 4.2378 2.5291 0.71996 0.17564 4.2543-3.8538 4.2543-0.8147-0.40647 0.531 2.5071 2.5557 2.98 1.8182 0.28927-0.45116 0.32624-2.1135 0.82688-2.6754 2.043-2.2932 0.82829 2.8737 3.514 2.0002 0.97523-0.3172 1.4658-0.19701 2.1635-0.87777 1.0205-0.99578 2.3551 1.4903 3.1075 1.735 0.8787 0.2858 2.6502-0.35722 3.3021 0.27888 1.4973 1.461-1.522 1.2587-1.4028 2.5171 0.15042 1.5887 11.083 1.1783 11.864-1.2245 0.73098-2.2488 0.63097-10.562 1.6106-13.43 0.66075-1.9342 0.77221-3.0589 1.9034-4.7146 1.2636-1.4487 1.7257-4.6022 0-6.2862-0.26089-0.25457-1.11-0.10612-1.3178-0.71434-0.31943-0.93507 0.67298-3.9151 0-4.5718-0.38215-0.37289-1.1713-0.94409-1.1713-1.1429 0-0.31057 0.36661-0.66671-0.0633-0.9464-0.60384-0.3928-0.91236-1.3969-1.1911-2.2127-0.3163-0.92591 0.67297-6.9145-0.2731-6.1698-3.3029-0.8383-2.0992 8.2123-7.9896 3.6142z" fill="#b2b2b2" stroke-opacity="0"/>
  <path id="Laguna José Ignacio" d="m440.55 633.09c-0.70654-0.0169-3.2409-0.46422-3.2409-0.89484 0-1.0966 2.3763-1.9663 3.039-3.2595 0.0427-0.0833 1.3876-3.9792 2.0145-3.3675 0.0821 0.0801 0.6808-0.16592 1.8639 0.64118 0.53839 0.36727 1.1407 1.7367 1.8442 2.4232 1.0167 0.99203 0.54924-1.0088 1.2067-1.6503 0.86466-0.8437 2.302-0.53 3.2051-1.4112 0.50415-0.49193-1.896-3.2567-1.2861-3.2567 2.8303 0 1.2889-2.4876 1.8442-3.0295 1.2884-1.2572 1.4946 0.0118 2.7897-0.83074 1.3855-0.9013 2.3375-0.63741 3.3285 0.32964 0.31953 0.31179 1.6657 0.98132 1.27 2.1396-0.60301 1.7652 1.7221 1.1702 0.31385 1.8573-0.39964 0.19498-0.78814 0.75291-1.8092 1.7493-0.5233 0.51061-0.86545 1.2326-0.54946 2.1576 0.48789 1.4282 2.4947 5.9613 3.6554 7.0939 0.4172 0.40709 2.332 0.75321 2.596 1.2684 0.67138 1.3102 0.54023 1.9887 0.13491 3.1751-0.18584 0.54403-1.9968 1.2712-2.5845 1.2712-0.3451 0-0.86808 0.16495-1.1121-0.0732-0.2793-0.27253-2.8901 0.52648-3.8977 0.0348-1.9845-0.96818-4.3705 2.4449-6.949 1.1868-1.5445-0.75353-5.4366-6.2429-7.677-7.5545z" fill="#b2b2b2" stroke-opacity="0"/>
  <path id="Laguna Garzón" d="m508.45 604.41c0.52171 0.54511 0.53484-1.4037-0.88347-1.681-0.45457 0.50459-1.269-0.67376-1.2629-0.68594 0.0995-0.20179-1.2388-0.80456-1.2321-0.92221-0.0127 1e-3 -0.98295-1.1901-1.7319-1.0366-0.0348 0.1106-2.053-1.1679-2.0859-1.0567-0.39802 1.383-1.5577-5.6388-1.9018-4.2412-0.16273 0.64407-3.6729 2.4954-3.6663 3.1652 0.0754 0.22534 0.10977 4.4324 0.10299 4.7425-5e-3 0.23687 2.0482 0.7898 1.9893 1.0203-0.0695 0.35178-0.87742 0.79219-0.83235 1.1493 0.0215 0.2507-1.6923 0.98338-1.8152 1.2039-0.91228 1.6367 0.65113 4.8684-0.23097 2.8748-0.24891 0.49346-8.2127-1.1357-8.551-1.0787 0.0999 0.26912-7.9714 9.5242-7.8119 9.8973 3.713 8.6866 17.445 4.4198 17.373 5.0357 0.13274 0.3892 2.1997-1.8831 2.3362-1.4952 0.0623 0.17062 0.94895-0.58849 1.0125-0.41825 0.15008-0.0389 0.3027-0.0744 0.45794-0.10467 1.5632-0.73655 6.5664-1.8802 5.1252-3.2864-0.56069-0.54709-1.3651-1.7092-1.6105-2.4276-0.0697-0.20395 1.5056-1.7757 0.7315-3.2864-0.27464-0.53569-2.3506-0.41348-1.3179-2.4288 0.21666-0.4228 1.2761-2.4288 1.6105-2.4288 0.87401 0-0.19269 1.7745 1.9043 2.2861 0.69489 0.16951 2.3432 0.28432 2.6346 0 0.0242-0.0236 1.4635-2.0243 0.73268-3.2864z" fill="#b3b3b3" stroke="#000" stroke-width=".72316px"/>
  <g fill="#d7d7d7" stroke="#000" stroke-width=".72316px">
   <path id="Solís Grande" d="m254.18 626.53c0.55851-1.6272 1.4992-1.0547 2.7192-2.2451 0.9197-0.8974 0.92203-1.852 0.76884-2.8474-0.18154-1.1796-0.58148-2.4165 0.0678-3.6837 0.38529-0.75189 3.6588 0.76613 4.3925 0.40819 1.5448-0.75367 2.734-5.0566 1.964-5.0566-2.1456 0-4.1617-0.17718-6.0292-1.0883-0.96234-0.4695-1.3603-0.33745-2.3461-0.65808-0.48935-0.15916-0.48547-0.43113-0.70231-1.0658-0.0714-0.20914-0.21461-1.9769 0.8665-3.5053 0.97671-1.3808 2.0068-2.9751 1.693-4.3478-0.43768-1.9144 1.7899-1.517 0.56228-2.7149-1.592-1.5534-0.16226-2.4779 0.28494-3.787 0.13316-0.38978-0.1172-1.2492 0.0667-1.4287 1.1702-1.1418 0.22199-1.8467 0.5608-2.1773 0.39769-0.38806 2.5775-2.5904 2.2662-3.5014-0.41233-1.207-0.31829-3.0057-0.82489-3.9943-0.25487-0.49739-1.1754-4.2754-2.0018-6.6945-0.31589-0.92472-1.1475-2.9185-1.4008-4.1172-0.17393-0.82288-0.27101-2.3029-0.88085-2.898-0.6391-0.62361-0.90108-1.6862-1.5275-2.2974-0.28124-0.27443-3.4865-6.5487-4.3292-7.371-1.143-1.1153-1.028-2.1925-1.775-3.6502-1.2973-2.5317 0.15672-8.3811 0.51737-12.68 0.10031-1.1956-1.6047-0.84711-2.0242-1.6658-0.97931-1.9111-4.0858 0.51714-4.8108 1.2246-1.5966 1.5579-5.2618 0.17224-5.8566-0.40819-0.0372-0.0363-1.5276 0.99987-2.0917 0.81638-0.55147-0.17936-2.6707-1.426-3.9558-1.506-1.158-0.072-1.4813 0.99515-2.11 1.3019-2.1838 1.0654-2.1746-0.3132-4.3925 0.40819-0.94283 0.30666-0.74708 2.5075-2.51 2.8574-1.8544 0.36801-3.2472 0.6528-5.0491-0.14123-1.03-0.45385-1.8674-2.1311-2.2717-2.9202-0.59184-1.155-1.1724-2.8385-1.8825-3.8778-0.76238-1.1158-1.2099-0.21814-1.9561-1.315-0.43008-0.63224-1.2741 1.2594-1.5164 2.3078-0.28028 1.2127 0.14966 2.2727-0.29254 2.2727-0.94832 0-2.0069-0.61093-2.7192 0-1.7292 1.4832-0.62391 2.1933-0.8729 5.1164-0.26613 3.1242-0.40671 6.445-0.17294 7.1293 0.24899 0.72888 1.8791 3.8112 3.6559 5.4211 1.6283 1.4754 3.2041 3.355 3.4557 3.355 2.2225 0 3.7444 1.6154 4.5025 2.5701 1.6022 2.0178 0.51753 4.6224 0.51753 7.6347 0 0.19101 2.7228 3.2638 1.4642 3.8778-0.92125 0.44945-0.66194 0.96665-0.8186 1.8434-0.39074 2.1869-1.7149 1.6949-2.1097 2.8508-0.3657 1.0705-1.2244 2.1594-0.7084 3.4196 0.42546 1.0391 1.4176 2.26 1.1267 3.1114-0.26225 0.76766-2.1897 3.9863-1.6733 4.4901 0.79527 0.77598 1.718-0.68706 4.0009-0.45616 1.2699 0.12844 2.3015-0.48473 3.7498 0.22976 1.2684 0.62573 3.0025 2.5551 3.5443 3.0838 1.9633 1.9157-0.18682 2.4928 0.6275 4.0819 1.007 1.9652 4.8616 2.3936 5.4383 4.0819 0.60016 1.7568 2.5596 4.1478 2.9848 6.1537 0.28876 1.3622-0.91898 2.5469-0.684 3.2347 0.41699 1.2206 1.8879 0.62283 2.3008 1.4287 0.15099 0.29466 3.3273 0.38926 3.5558 0.61228 2.2433 2.189 3.4076 0.26357 5.2292 2.041 1.314 1.2821 4.4896 2.1357 5.8567 3.4696 0.61601 0.60108 2.17 1.097 2.7192 1.6328 0.11473 0.11196 0.74192 1.6143 0.83667 1.6328z"/>
   <path id="Pan de Azúcar" d="m248.53 544.08c4.1554-0.0544 0.67831 0.61229 4.8108 0.61229 1.5273 0 3.7249 4.6508 6.0658 1.2246 1.2295-1.7995-2.9064-1.4073-3.3467-1.8369-0.56452-0.55083 0.91751-1.5539 0.41834-2.041-0.13815-0.1348-2.3008 0.10392-2.3008 0 0-0.89405 2.9608-3.0298 1.8825-4.0819-0.17919-0.17484-0.69745-1.1113-1.0458-1.2246-0.7742-0.25181-1.0458-4.1329-1.0458-5.1024 0-0.74824 0.54295-1.5894 0.83666-2.4492 0.35743-1.0463-1.0878-1.5509-0.6275-2.4492 0.0936-0.18267 1.874-1.0287 1.8825-1.0205 0.65775 0.64181-0.30271-2.6532 0.6275-2.6532 1.2941 0 2.4248-2.4824 3.5558-2.041 1.0228 0.39919 5.2398 5.5971 6.6933 3.4696 1.1821-1.7302 0.9245-5.0697 2.0917-7.3474 0.74774-1.4592 4.7064-0.15348 5.2292-1.4287 0.63291-1.5439 1.9275-1.9247 2.7192-3.4696 0.4353-0.8495-0.49513-1.8799 0.6275-2.2451 1.4903-0.48471 5.3791 2.6045 5.8566 2.4492 0.67869-0.22075 1.1185-1.0914 1.4642-1.4287 0.35538-0.34676 2.8388 0.43733 3.5558 0.20409 1.5576-0.50659-0.20916-4.7735-0.20916-5.9188 0-0.35463 2.4092-1.6401 2.7192-2.2451 0.31557-0.61583-0.0639-2.7241 0.6275-3.0614 0.82324-0.40164 2.5469 0.57625 2.9283 0.2041 1.2302-1.2004 0.86292-5.2173 2.3008-5.9188 1.8054-0.8808 8.5744 1.8396 10.249-1.4287 0.55137-1.076 3.6284-4.9649 5.4383-4.0819 1.3216 0.64481 5.428 1.8671 4.6017 4.286-0.96951 2.838-2.131 2.4634-3.5397 5.2126-0.99907 1.9497 1.5915 2.0472 0.80575 3.5807-1.5641 3.0523-2.8616 3.9915-4.3616 6.187-0.92695 1.3567-3.9739 3.7647-2.1491 4.7294l0.72764 0.3847c0.43716 0.23112 2.3946 0.66521 3.924 2.1574 0.72225 0.70475-2.9948 0.54491-1.9237 1.0675 0.83204 0.40593 1.4273-0.0309 2.0799 0.60593 3.0517 2.9777 0.015 1.5754 0.83667 3.1789 0.23376 0.45621 2.5631 4.4742 0.50232 6.485-1.5039 1.4674-2.8506 2.0554-3.6855 3.6845-1.0252 2.0007-3.0508 1.7239-2.177 3.429 1.1093 2.1649-0.88619 1.3656 0.0309 3.1554 0.79999 1.5612 0.33789 2.6396 1.4097 3.6855 1.0077 0.98324 0.20575 2.2236 1.4892 3.476 1.8951 1.8492 3.6342 3.5909 5.4516 5.3643 0.31533 0.30768 2.0397 3.1632 2.2301 3.7207 1.8468 5.406-3.4408 6.7815-4.5605 8.9666-1.1364 2.2177 0.74262 9.9033 2.2022 11.327 1.8356 1.7911 3.7354 3.1721 4.88 5.4058 0.34132 0.66609 1.7354 3.3211 2.6441 3.9121 2.3939 1.3501 4.1272 1.1843 5.8242 2.8402 1.2368 1.2068 3.7218 2.7518 3.6082 4.3022-0.0943 1.2869 0.82229 5.5022 1.4016 6.6326 1.5585 3.0414-3.0646 2.5421-4.0552 4.4752-0.44261 0.86376 1.6522 7.6433 2.3008 7.9598 1.9136 0.93361 6.0968 1.0226 7.53 0.81638 1.1301-0.16265 2.1302 3.3488 1.4642 3.6737-1.2695 0.61935-3.2015 2.538-4.8108 3.0614-2.4311 0.79071-3.0366-3.1528-4.1833 0.20409-1.1641 3.4077 2.8691 4.4017 1.6733 6.7352-1.0502 2.0494-3.656 2.4405-4.3925 3.8778-0.6205 1.2109-1.3192 3.3281-2.3008 4.286-0.3813 0.37206-1.562-0.12175-1.8825 0.81638-0.23009 0.67352 0.23008 1.5715 0 2.2451-0.0516 0.15106-1.974 0.91416-2.3008 1.0205-0.86246 0.28052-2.2068 0-3.1375 0-3.954 0 1.365-2.8896-3.5558-4.4901-2.3588-0.7672-3.3898 5.2644-5.8566 2.8574-0.15109-0.14741-1.1008-9.0805-5.6475-6.1229-1.3178 0.85727 1.3777 7.4073 1.6733 7.5516 1.6049 0.783 8.3011 4.494 7.7767 6.029l-7.6709 6.1484c-3.7007-3.4905-8.2638-6.1023-10.772-9.7739-2.4921-1.3881-4.6279-3.7747-6.9773-4.9209l-1.3894-7.7784c-0.91026-0.81742-1.6046-1.4147-2.3161-2.1089-2.0598-2.242-3.0833-4.821-3.7945-7.5969-0.54935-1.2441-1.0014-1.6715-1.4651-1.9732-4.2554-1.1384-8.297-0.24929-12.476-0.24929-1.2242 0.17469-3.6215 1.1459-3.7945 1.2021-0.41833-0.068-0.27683-0.0227-0.69516-0.0907l-0.769-0.11334c-2.3331-0.3473-4.7449-0.2041-7.1117-0.2041-1.0606-1.8445-2.1214-0.96193-3.1375-2.4492v-4.286c1.3836-1.0112 1.6733-1.6357 1.6733-3.0614 0.23717-0.53321 0.43912-1.0813 0.6275-1.6328v-1.0205c-0.0697-0.068-0.13944-0.13606-0.20917-0.20409 0.0697-0.47622 0.13945-0.95244 0.20917-1.4287l-1.0458-0.81639v-1.2246c1.2824-0.79637 2.51-0.86132 2.51-1.8369-1.0018-0.50863-0.75597-0.96798-1.4642-1.4287 0.33147-0.48773 0.69722-0.95245 1.0458-1.4287-8e-3 -0.57676 0.29878-1.1662 0.41833-1.6328 1.3266-0.67155 1.5625-0.88034 2.7192-1.6328-1.6375-1.1609-1.8183-2.7634-2.7192-4.0819v-5.9188c-1.0751-1.454-2.1624-4.9013-2.3008-5.3065v-2.245c-2.698-2.0664-3.7783-5.9577-4.6017-8.368-1.2665-1.182-2.9283-2.4007-2.9283-4.286 0.10191-1.4854-0.48505-2.7095-0.83667-4.0819 0.15888-2.1633 1.3715-4.0326 1.6961-6.3518 0.2652-1.8947-0.54922-4.3612 1.023-5.2817z"/>
   <path id="Piriápolis" d="m254.18 626.94c0.0211-2.2817 3.1348-1.8289 3.765-3.6737 0.4022-1.1774-1.2244-5.1322-0.20917-6.1229 1.2836-1.2525 4.2729 1.5454 4.8108 1.0205 1.1812-1.1525 0.99883-3.2197 2.3008-4.4901 1.6972-1.6561 5.2237-1.4287 7.7392-1.4287 2.0095 0 6.2164-0.84497 7.53-0.2041 4.1762 2.0375 3.3873 5.1816 5.4383 9.1843 0.79285 1.5473 3.4269 1.9935 4.1833 3.4696 0.95787 1.8693 1.0458 6.567 1.0458 7.7556 2.7987 0.55285 4.22 2.8753 6.275 3.8778 1.2269 1.6502 4.0352 3.82 6.4951 6.101 1.886 1.7489 3.3084 3.8997 5.2183 3.8997 1.8008-2.2831 5.02-3.4705 5.02-6.5311 1.0904-1.6693 1.5873-2.8573 3.3467-2.8573 1.2715 0.69293 1.8785 5.1063 4.1833 2.8573 0.71243-0.69515-0.57982-2.4724 0.20916-2.8573 2.6526-1.2941 1.5596 1.7814 2.9283 2.4492 1.015 0.49522 2.1913-0.57667 2.9283-0.81638 1.3673-0.44473 1.8055 0.94539 2.51 1.6328 0.49082 0.47892 5.4053-1.1601 3.9742 1.6328-0.23832 0.46508-1.1238 0.15224-1.4642 0.81638-0.83858 1.6365 5.8389-0.0761 3.5558 3.2655-1.3918 2.0372-6.5489 2.4807-8.9942 3.6737-0.90534 0.44169-2.3751-0.1119-3.3467 0.20409-0.0381 0.0124 1.4318 2.1041 0.76669 2.2536-0.62239 0.13995-1.5694-9e-3 -2.2309-9e-3 -3.1035 0-16.939-1.2263-19.452 0-2.9621 1.4451-5.6028 0.28436-7.9483 1.4287-1.6418 0.80099-4.1639 1.9294-5.6475 2.6532-3.084 1.5046-4.4092 4.3962-7.53 5.9188-2.0487 0.99952-2.1151-3.1899-3.765-2.6532-1.427 0.46412-4.3735 4.0722-4.6017 2.041-0.33309-2.9657 1.0848-3.2275 0.20917-4.0819-1.7787-1.7356-4.4105-1.2421-6.0658-2.8574-1.4005-1.3666 0.34931-1.9062 0.6275-2.4492 0.15698-0.30633-0.0635-1.3485-0.20916-1.6328-0.15435-0.30122-0.34956-1.3588-0.20917-1.6328 0.8115-1.5837 2.6225-1.3035 1.6733-4.0819-1.129-3.3048-6.8509-1.9403-8.1575-4.4901-0.85559-1.6697 0.33927-3.497-0.20917-5.1024-0.57059-1.6703-2.3724-2.3149-3.3467-3.2655-0.82881-0.80873-1.1281-3.222-1.6733-4.286-0.24955-0.48701-1.2972 0.32051-1.6733-0.6123z"/>
  </g>
  <path id="Maldonado" d="m324.46 652.05c-0.42334-0.92983-1.5032-1.7988-1.0458-2.2451 0.36791-0.35899 1.818 0.23556 2.3008 0 1.9248-0.93907 4.1838-1.3608 6.275-2.041 2.6027-0.84653 3.1138-2.5396 5.02-3.4696 1.0337-0.50434 2.2973 0.1372 3.3467-0.2041 1.8494-0.60153 4.3111-1.1452 4.6017-3.6737 0.0809-0.70392-0.0486-11.13 0.83666-12.858 1.2-2.3417 1.4931-3.906 2.9283-5.3065 0.9576-0.93439-0.69464-3.1345-0.20917-4.0819 0.63144-1.2322 0.28206-4.495 0.77855-5.4639 0.8149-1.5903 0.18331-4.9944 1.9864-5.239 7.2884-0.98879 3.4415-0.0665 3.3929-3.0156-0.0513-3.1153 0.28581-5.3936 1.0153-7.5291 0.43174-1.2639 1.5715-2.6778 1.9425-3.7638 0.50929-1.4908 2.7079-3.8922 2.9095-4.2856 0.85682-1.6721 6.0814 0.79979 7.2462 1.1786 2.4313 0.7908 4.7265 1.1657 6.8577 1.8589 2.4967 0.81208 2.7433 5.4737 4.1061 6.8034 0.71128 0.69403 0.32292 3.0899 0.58416 3.8546 0.71181 2.0837-0.79853 3.3412 0.31351 5.5113 1.4831 2.8944 1.226 4.0642 1.226 9.8633 0 1.5087-0.19242 3.7183 0.029 4.1505 1.2006 2.3431 1.7834 4.5406 2.5562 6.803 1.1194 3.277-0.18346 3.5762 1.3447 6.5584 0.50918 0.99366-0.23596 2.0375 0.18413 2.8573 0.71316 1.3918-0.0578 3.5245 1.2565 3.2827 9.0229-1.6604 1.065 5.4697 1.065 7.9426 0 11.204 3.1578 4.4122 4.5457 7.1208 0.7474 1.4586 1.7755 2.9178 3.2259 4.333 1.4073 1.3732 2.7297 3.2459 4.4765 4.0981 0.26444 0.12902 1.451 5.125 0.83078 5.125-1.4299 0-1.5448-0.54958-2.9283-1.2246-2.6857-1.3103-14.429-0.40819-18.616-0.40819-2.0472-0.16208-3.891 0.20409-6.0658 0.20409-1.1103 1.064-1.1602 1.8752-1.255 2.2451 1.0688 1.7374 0.49772 3.3147 0.20917 3.8778-0.27888 0.068-0.55778 0.13606-0.83667 0.20409-2.2252-1.1306-3.7584-2.9168-5.4383-5.1024-2.4644-1.7696-4.7256-3.1937-7.53-3.8778-1.6347-0.38387-3.1529 0-4.8108 0-0.92747 0.4519-1.1946 0.92526-1.8825 1.4287-0.99779-0.16655-1.1691-0.15688-1.4642-1.0205-1.3262-1.2101-3.3728-0.81639-4.1833-0.81639-1.554-0.0752-1.9467 0.67493-2.51 1.2246-0.60822 1.3305-0.94927 1.2612-1.4642 1.4287-2.2509-2.3729-1.0458-0.66867-1.0458-1.4287 1.5447-0.68395 1.1705-3.6925 1.255-2.2451 0.0527-2.1745 0.12491-3.1833 1.255-4.286 1.1292-0.885 1.0458-2.1059 1.0458-2.4492 0.0865-1.2958-0.27459-1.7317-1.255-2.4492-1.498-0.98761-3.3745-3.2655-5.02-3.2655-1.7147-1.3625-3.8496-1.0205-6.275-1.0205-2.5727-0.0608-5.0851 0.42091-7.1117 0.81639z" fill="#d6d6d6" stroke="#000" stroke-width=".72316px"/>
  <g fill="#d7d7d7" stroke="#000" stroke-width=".72316px">
   <path id="Punta del Este" d="m371.31 675.31c1.8426-2.0922-1.509-4.4217 0.64077-6.5193 0.85961-1.0712 15.086-0.62403 22.158-0.62403 1.0763-0.086 2.1841 0.018 3.1375 0.20409 1.2498 0.0513 1.5389 1.0934 2.0917 1.6328-1.8443 1.8605-4.2356 2.2451-6.9025 2.2451-2.0618 0.233-3.5389 1.8286-4.8108 2.4492-1.7244 1.5554-2.9825 3.3008-4.8108 4.4901-2.458 1.2155-3.3718 3.7886-4.1833 4.4901-0.79391 0.66142-0.22191 1.2641-0.72583 1.6808-2.736 1.6925-1.4034 1.8054-2.7317 3.7496-0.68309 0.6812-1.6918-0.0246-1.9808 0.48836-0.45094 1.023-0.5474 1.9237-1.0458 2.6532-1.5646 0.0638-1.3077 0.12697-2.0917-1.0205-0.10896-2.0705 0.0279-1.5716 0.6275-2.4492 1.257-0.94205 0.95862-0.78237 2.0917-1.2246 1.358-0.59675 2.3008-1.4569 2.3008-2.6533 0-1.2246-0.57079-1.9854-1.0458-2.8573-2.2251-3.3739-3.1676-5.4224-2.7192-6.7352z"/>
   <path id="San Carlos" d="m407.91 457.75c-0.70005-1.6742-1.8373-1.55-3.3467-2.041-0.76324-0.24825-0.65396-2.0496-1.8825-2.4492-1.2281-0.39945-2.5121 3.8778-3.765 3.8778-0.95848 0-2.5042-1.2302-3.5558-0.2041-0.97064 0.94712 0.0857 4.2442-1.6733 5.1024-1.9914 0.97158-3.0138-2.4214-3.5558-2.2451-1.0492 0.34125-2.8743 4.1346-4.1833 2.8574-0.98545-0.96156-0.66416-5.7989-3.3467-4.4901-1.2154 0.593-2.9044 3.3997-3.3467 4.6942-0.23862 0.69849-2.097 0.61754-2.51 1.0205-1.342 1.3095-2.2514 4.3639-4.1833 5.3065-3.1531 1.5383-5.459-4.0072-8.9942-2.8574-4.3071 1.4009-2.0004 6.0784-5.02 7.5516-0.86013 0.41963-2.3623 0.74432-3.3467 1.2246-1.258 0.61375-2.738 1.1008-3.5558 1.6328-0.68667 0.44668-0.0217 2.0096-0.34578 3.0197-0.38425 1.198-1.7343 1.8672-2.3734 2.4909-0.1482 0.1446-0.89593 1.0494-1.255 1.2246-0.56808 0.27717-1.473-1.0033-1.8825-0.20409-0.41054 0.80116-0.84604 1.2429-1.255 2.041-0.0594 0.11596 0.12249 1.1648 0 1.2246-1.031 0.503-3.6607-0.91817-4.3925-0.2041-1.2619 1.2313-0.32268 3.9886-1.6733 5.3065-0.98787 0.96392-3.5456 0.60895-4.8108 1.0205-0.97177 0.31608-0.67364 1.3757-1.4642 1.6328-0.88481 0.28779-2.3848-1.5508-2.9283-1.0205-2.9489 2.8774-6e-3 3.8798-5.6475 5.7147-0.18533 0.0603-1.0208 0.43267-1.255 0.2041-1.4274-1.3928-3.436-4.8398-5.2292-5.7147-0.8439 0.28458-1.293 1.2431-2.0917 1.6328-1.0372 0.50601-4.1199-0.47009-4.8108 0.20409-3.0414 2.9677 3.4443 5.175 1.0458 6.7352-2.2049 1.4343-4.5647 4.0099-5.4383 5.7147-1.1402 2.2252-0.66713 3.8356-2.9283 5.3065-2.5778 0.61828-3.0458-0.35085-5.02 0.6123 0.0964 1.8696 2.2624 2.4908 2.9283 2.6532 0.96624-0.56063 1.6766-0.61229 2.7192-0.61229 1.5263-0.47205 1.7332 0.72901 1.8825 1.0205-0.23809 1.2087-0.716 1.6877-1.0458 2.6532-0.58268 1.7352 1.255 1.3708 1.255 2.6532 1.3721 1.394 1.7004 2.9628 2.0917 4.4901 0.075 0.83653-0.20917 1.2557-0.20917 2.041-3.796 3.427-5.7309-0.32685-6.6933 0.61229-1.3645 1.248-1.1653 1.2827-1.4642 2.4492-0.36799 2.0257 3.3748 2.1636 3.765 2.4492 1.8031 1.2054-3.5655 2.9609-2.3008 3.8778 0.96993 1.6858 1.8771 1.9014 3.3467 2.8574 1.8122 0.69254 2.1916 0.79823 2.51 2.041-0.12581 1.3398 0.20917 2.3787 0.20917 3.6737 0.12426 2.1995 4.1033 2.6967 6.275 4.286 1.303 1.0405 0.64512 2.2966 1.0458 3.4696 0.4495 1.0865 0.0848 3.3426 0 3.6737 0.0349 2.8232-3.0994 1.6328-6.275 1.6328-0.86353-0.0524-1.1809 0.10791-1.7941 0.71703-0.56027 0.50954-0.71587 0.81688-0.71587 1.528-0.40267 2.8521 0.79412 4.5281 1.4642 7.1434 0.60982 2.4222 2.1483 6.4099 3.3467 8.1638 0.95829 1.4347 2.0448 2.6075 3.3467 3.8778 0.99619 1.4142 1.1537 2.3895 2.51 4.0819 1.1489 1.4111 2.122 1.3414 3.9742 2.245 1.564 1.0997 2.8648 3.662 4.9566 3.662 1.5094 0.0109 3.8118 0.62403 4.665 0.62403 1.3969 0.26011 3.765 5.2261 3.765 7.1434 0.13471 2.0895 1.0422 4.1786 2.0917 5.7147 1.1797 2.1106 3.5457 2.4541 4.8108 1.8369 0.83034-1.443 1.3735-3.0002 1.8825-4.4901 0.89069-0.42488 1.2607-0.4082 2.0917-0.4082v5.1024c-0.14106 1.6585 0.19356 2.8421 1.255 3.8778-0.26415 1.7201 0.83667 2.1032 0.83667 3.6737v2.6532c0.63366 0.39903 1.3492 0.70423 1.8825 1.2246 1.5108-0.88782 2.1306-0.44625 3.3467-1.6328v-6.5311c0.0139-1.7696 4.5086-0.61229 6.275-0.61229 1.6832 0.41442-1.5774-5.8105-0.6275-8.3679 0.40468-0.94313 0.87702-1.4812 1.4642-2.2451 0.89319-0.66207 1.913-0.0492 1.8825-1.0205-0.46247-1.5516 0.20917-3.8137 0.20917-4.6942 1.1478-3.2759 1.989-2.8172 2.1507-1.7006 0.70722 1.5408 1.5158 3.5694 2.8693 3.1292 1.518-0.66438 4.4775-0.40819 5.4383-0.40819 1.1108 0.19132 1.9491 0.67725 2.0917 0.81638 1.1853 1.0518-0.32062 3.1434-0.20916 3.4696-0.28908 0.95208-0.20918 2.4626-0.20918 2.8573 0.45723 1.6221 1.8215 2.4492 2.3008 2.4492 0.58725 0.20475 0.83667 1.0243 0.83667 1.6328-0.35371 0.83949-0.33335 1.7922-0.6275 2.6532-0.32473 1.5153-0.4582 2.0895-0.20917 3.0614 0.34911 1.9313 0.82094 2.9202 2.51 3.4696 0.29341 1.0012 0.20918 2.0334 0.20918 3.0614-0.93509 1.7593-0.918 4.3994-1.255 5.7147 0.80203 1.7201 2.7236 3.272 3.5558 4.4901 0.98034 1.5382 0.13773 2.0858 1.255 2.4492 0.1794 2.077-0.58522 3.449-2.3008 4.286-1.4552 0.79694-1.6733 1.1679-1.6733 2.041 0.37289 0.91903 0.83667 1.6741 0.83667 2.6532-1e-5 0.61228 0 1.2246 0 1.8369-0.0858 1.2688 2.354 2.1943 3.765 2.6532 1.04 0.58242 1.1008 0.95599 1.4642 1.4287 1.1399 3.2734 0.56995 7.72-0.41833 10.613-0.16823 1.308 1.3936 2.754 1.4642 2.8574 1.4438 0.77877 2.2011 2.041 3.9742 2.041 1.4274-0.1461 1.7425 3.0597 1.8825 3.4696 0.77835 1.0746 1.4144 1.5842 1.8825 2.041 0.61179 0.7767 4.0346 0.4082 5.8567 0.4082 1.3146 0.73334 1.3636 1.5019 2.0917 2.4492h6.4842c0.93465-0.72003 0.75986-1.408 1.0458-2.245 0.9576-1.3726 3.0679-1.5194 4.6017-1.0205 0.63743 0.094 0.96614 0.28832 1.4642 0.6123 2.7948-0.30933 5.1017-2.0808 7.1117-3.0614 0.54393-0.43859 1.798-0.7339 2.3008-1.2246 0.88145-0.8601 2.2187-2.2889 2.7192-3.2655 0.34169-0.66681 7.6706-5.2396 8.785-6.327 1.2751-1.2442 3.7853-1.6526 5.02-2.8574 0.69185-0.67508 1.7888-2.6075 2.7192-3.0614 1.035-0.50497 1.8801-0.81164 2.3008-1.6328 0.16168-0.31553 3.4443-0.43995 3.9742-0.61229 1.9336-0.62891 3.7898-2.3592 5.6475-3.2655 0.74467-0.36332 1.7166 0.054 2.51-0.2041 1.279-0.416 3.9559-0.2308 3.1375-1.4287-0.51327-0.75123-2.9014 0.38181-2.9283 0.2041-0.92929-0.45338-1.9382-0.91565-3.3467-0.40819-1.3893 0.50057-1.7621 2.3523-4.6017 1.4287-1.2689-0.41272-2.0006-2.2758-3.2796-3.705-1.6864-1.8844-3.8609-3.4665-4.8779-4.4588-0.2416-0.23574-4.0288 0.92306-3.1375-0.81639 0.43186-0.84279 2.4095-0.82438 2.9283-1.8369 0.57577-1.1236 0.2099-4.2858 2.7192-3.4696 0.4782 0.15554 2.056 3.5392 2.3008 3.0614 0.17233-0.3363 1.9115 0.548 1.5461-1.3873-0.13234-0.70095 1.1521-0.83725 1.3822-1.0618 0.33135-0.32332 2.1485-0.51915 2.3008-0.81638 0.39613-0.77305-0.40128-2.0243-0.6275-2.2451-1.2167-1.1872 0.75848-1.7606 1.0458-2.041 0.94042-0.65967-0.66287-0.94313 0.19226-2.3018 0.51783-0.82275 1.7028 0.70877 2.8335-0.28938 0.54363-0.47987 2.0591-1.5765 2.4975-2.6491 0.394-0.96381 1.6994-1.3362 1.8856-1.5178 0.45292-0.44194 3.254-0.65565 3.5687-1.2698 0.11734-0.22898-3.3321-4.7278-3.8711-6.4694-0.51395-1.6604-0.43679-2.9512-0.75864-3.8933-0.54434-1.5935-0.49294-4.8342-0.47099-4.8556 0.53506-0.52209 0.89964-0.81259 1.195-1.6771 0.4469-1.3082 1.0841-1.8544 1.5643-3.2601 0.32859-0.96188 0.47523-2.9626 0.81162-3.9473 0.18713-0.54778 3.3984-6.0935 0.68496-5.4401-2.0681 0.498-2.3838-2.7834-3.0683-4.7872-4.0735 0.13355-1.1327-1.5645-2.0283-2.4384-0.34828-0.33983-0.84956-1.3471-1.1033-1.8423-0.42908-0.83735-1.5853-1.3387-1.2402-2.0121 0.55177-1.0768-0.27086-2.2377-0.57792-3.551-0.32928-1.4084 0.16063-2.8445 0.47627-4.0764 0.67612-2.639-0.19901-3.6005-1.0223-5.2072-0.19062-0.37199-0.79601-1.388-0.76841-2.5804 0.0404-1.7474-0.6335-2.1331-0.27004-2.4877 0.48312-0.4714 2e-3 -1.5285 0.52736-2.8628 0.91396-2.3204-0.50837-3.685 0.85432-5.6795 1.711-2.5042 1.3263-3.131 2.1374-5.5052 0.50595-1.4811 1.4741-3.7978 1.4672-5.9183-8e-3 -2.4008-0.22878-4.1588 0.54789-5.6745 0.89347-1.7436 2.3978-1.5641 4.4789-2.7368 1.445-0.81422 2.8963-2.3337 3.9452-3.3572 1.3361-1.3037 2.3614-3.6736 1.9348-5.285-0.40285-1.5218 0.18966-4.6764-1.0311-6.2201-0.73106-0.92447-2.3169-2.4523-3.2139-3.328-0.904-0.88258-3.144 0.62036-3.3932 0.25563-2.81-6.6013-8.0457-12.029-14.117-14.991-1.4727-2.375-3.5259-2.054-5.7432-2.7751-0.70872-0.23051-2.0146-0.36216-3.5175-0.36216-1.9153 0-3.4874-0.73948-4.1215-1.3582-1.0877-1.0613-3.6226-0.75477-5.3175-1.0855-4.7285-0.92278-4.865-0.59278-8.5066-1.7772-1.8131-0.5897-2.4105-1.8817-3.6618-3.103-2.1332-2.0815-14.836 5.6966-14.836-1.6924 2.3506-1.2091 1.0206-5.6901 1.255-5.9188 3.8532-3.7598 4.5533-15.26 4.6016-15.307 0.93909-0.91633 1.1357-1.0506 1.4642-2.6533z"/>
   <path id="Aiguá" d="m461.54 509.28c2.4391 0.22065 4.2105-2.5354 4.894-3.2024 0.23655-0.23082 0.14485-2.8447 0.21656-2.9846 0.73971-1.4436-0.0593-1.3046 0.82339-3.0272 2.1043-4.1066 4.0586-4.9013 4.6665-6.0876 1.1122-2.1706-1.3166-5.3388-0.5907-6.047 0.85507-0.83435-0.65853-2.9024-0.26362-4.0584 0.0756-0.22121 2.2156-1.3998 2.3627-1.3998 0.79553 0 2.076-1.1814 2.535-2.525 1.0643-3.1156 6.2745-6.3762 7.0173-6.8996 8.9178-6.2834 0.54384-3.1989 9.1018-5.9369 0.65935-0.21095 5.4896-4.2155 7.5342-4.2155 2.0031 0 5.962-5.9623 5.7523-6.5763-0.20083-0.58788-1.0335-0.38406-1.255-0.81639-0.51302-1.0011-2.5634-6.1055-1.8825-6.327 2.6049-0.84727 2.1469 1.7618 3.5558 2.4492 1.4717 0.71802 4.6219-3.8581 6.275-2.245 1.4546 1.4193 0.39409 2.81 1.0458 4.0819 0.6366 1.2423 2.8464-0.0178 3.5558 1.0205 0.55833 0.8172-0.37096 3.1449 0.6275 3.4696 2.7386 0.89074 1.3423-4.4901 3.9742-4.4901 1.0645 0 1.8825-1.9168 1.8825-3.0614 0-0.85573-1.8122-3.1986-1.0458-4.6942 0.8608-1.6799 1.1943-3.088 1.8825-5.1024 0.1563-0.45752 1.3847-0.788 1.6733-1.6328 0.70432-2.0617-0.20917-10.881-0.20917-13.674 2.0751-0.98795 0.50367-16.963 1.0458-17.756 0.29272-0.42844 2.2222-3.0874 2.0917-3.4696-0.25473-0.74568-1.1026-1.28-1.4642-1.6328-1.1426-1.1149-0.62751-4.3467-0.62751-5.9188 0-1.0411-0.46609-3.3764 0-4.286 0.4217-0.82297 1.8446-1.7067 1.255-2.8574-1.757-3.4288-2.9869-9.2497-2.3008-13.266 0.51431-3.011 1.8825-5.4271 1.8825-7.7557 1.7537-3.7751-4.2243-6.287-1.0458-9.3884 0.2423-0.23643 0.89921 0.14307 1.255-0.20409 1.3137-1.2818-0.81495-2.9324 2.0917-3.8778 0.91705-0.29827 4.7225 0.35374 3.9742-1.8369-0.27744-0.81213-0.32101-2.1976-1.255-2.6532-0.61064-0.29792-5.6889-1.7965-3.9742-3.4696 0.45939-0.44825 0.80749-1.4144 1.6733-1.8369 0.94828-0.46266 4.5666-0.27243 3.3467-2.6533-0.64193-1.2527-6.1441-4.3373-5.02-6.5311 0.34628-0.67577 2.1735 0.32836 2.9283-0.40819 1.0392-1.014-0.77885-2.9702-0.20916-4.0819 0.4789-0.93459 2.0246 0.0327 2.51-0.2041 0.60702-0.29615-0.51917-3.5753 0-4.0819 0.9724-0.94883 2.0734 0.25759 2.7192-1.6328 0.42905-1.2559-4.7237-6.361-5.6475-8.1638-1.1139-2.1738 3.9289-1.517 3.1375-3.0614-0.59805-1.1671-1.4382-1.8115-2.3008-2.6532-2.362-2.3047 3.6986-5.501 3.1375-7.1434-1.4647-4.2875-5.4821-7.1861-8.1575-9.7966-1.2416-1.2115 1.94-2.5615 2.0917-2.8574 0.6595-1.287-1.0865-2.574-0.6275-3.4696 0.96751-1.8881 1.786-5.5497 1.255-6.327 0.10958-1.5037 1.3763-1.2572 1.8825-2.2451 0.22809-0.44514-1.152-1.1241-1.4642-1.4287-0.59867-0.58415 0.76461-2.3154 0.41834-2.6532-0.47861-0.46701-1.5598-0.14003-1.8825-0.61229-1.0776-1.5772 1.8036-2.091 2.3008-3.0614 0.35372-0.69029-1.8142-1.5619-1.0458-3.0614 2.2962-4.481-0.13643-2.6444-1.0458-5.3065-0.27074-0.79257 0.98482-1.8964 0.41833-2.4492-1.3834-1.3499-2.3456 1.6546-2.7192 1.8369-1.7088 0.8337-2.8105-1.6242-3.765-2.245-0.91983-0.59835-1.5721 1.4287-2.0917 1.4287-0.49992 0-1.2551-1.3266-1.8825-1.0205-0.56598 0.27613-0.62784 1.6331-1.0458 2.041-0.74947 0.7313-2.2266 0.13162-2.9283 0.81638-1.1178 1.0907-1.3628 1.9421-2.51 3.0614-1.4923 1.4562 1.7251 2.9605 1.0458 4.286-0.98237 1.9171-3.783 1.0557-4.8108 3.0614-0.29102 0.56794 1.2698 4.5045 1.4642 4.6942 0.62361 0.6085-1.2311 1.6795-0.83667 2.4492 0.64413 1.257 2.9244 1.8483 2.3008 3.6737-1.0649 3.1173-5.4576 2.2576-7.3208 3.4696-0.39676 0.2581-0.25775 1.4524-0.6275 1.6328-1.7804 0.8686-3.2164 1.8754-4.8108 2.6532-1.8531 0.90408 0.59848 8.8044-0.83666 10.205-0.55311 0.5397-5.1014-0.87873-6.4842-0.20409-2.3151 1.1295-0.81517 4.2755-2.51 5.1024-2.3238 1.1337-3.7191-1.3457-5.2292-1.8369-2.3037-0.74927-4.7226 2.886-7.3208 2.041-2.6122-0.84964-0.23848-1.8655-1.4642-3.0614-0.69042-0.67367-2.9933 0.75303-3.5558 0.2041-0.84506-0.82459-0.60264-1.1104-1.6733-1.6328-1.754-0.85576-1.5492 3.3485-2.3008 4.0819-2.5046 2.4439-4.1949-1.9692-6.4842-1.2246-2.6778 0.87094-1.1179 4.1522-2.3008 5.3065-0.92168 0.89934-3.0802 0.35224-3.765 1.0205-0.55702 0.54352-0.23181 1.859-0.83667 2.4492-2.4257 2.3669 0.94944 1.2406 1.8825 3.0614 1.1244 2.1944-1.555 4.1438-2.0917 5.7147-0.49225 1.4409 0.75356 1.3476 1.255 1.8369 0.0423 0.0412-0.87911 5.8374-1.0458 5.9188-0.22551 0.11002-1.0648 0.0185-1.255 0.20411-1.1757 1.1472 1.4146 3.7221-0.20916 5.3065-1.6343 0.83045-4.4052 4.4778-2.9283 5.9188 0.22001 0.21468 2.4702 1.2634 1.8825 1.8369-1.9489 1.9017-7.4842 1.3394-8.5758 3.4696-0.70202 1.37-1.4428 4.3278-0.6275 5.9188 0.25174 0.49129 2.6682 1.6825 1.8825 2.4492-1.6858 1.6449-4.068-0.1125-5.2292 1.0205-1.2355 1.2056-2.245 4.6579-3.5558 5.5106-0.71465 0.46489-1.1251 0.42222-1.6733 1.2246-2.1875 3.2018 3.3197 9.0066 1.255 11.021-1.2692 1.2384-3.6683 4.0029-4.1833 5.5106-0.75489 2.2098 1.9012 3.5245 2.51 5.3065 0.79594 2.3299-2.53 3.9365-3.1375 5.7147-1.0519 3.0791 3.7629 4.6984 2.0917 7.9598-0.78196 1.526-2.2958 3.4647-3.3467 4.4901-1.0415 1.0163-0.32196 3.7288-1.8825 4.4901-0.98859 0.4823-4.8619-7.91-6.6933-6.1229-1.3631 1.33 0.30165 3.403-0.20917 4.8983-0.72378 2.1187-2.0143 5.1249-1.255 7.3474-1.6302 2.167-1.5892 8.2037-2.51 10.001-1.6509 3.2218-3.1877 9.2823-5.02 12.858-1.4323 2.7952 0.85523 5.2703-0.83667 8.572-1.1672 2.2779-0.63138 6.1343-1.4642 8.572-0.41395 1.2117-1.7226 2.9704-2.3405 5.0707-0.36423 1.2382-0.0107 3.0612-0.37869 3.7054-2.0334 3.56-0.35794 7.318-4.6017 11.429-1.7028 1.5238 1.14 3.7721-1.255 6.327-1.3768 1.2708 0.27384 2.1041 0.83667 2.6532 2.174 2.1214 8.7295 2.1566 10.877 1.6328 0.54231-0.20347 1.1217-0.16103 1.5717 1.169-0.75903 1.6218-1.0831 4.0726 0.10164 3.9334 2.058-0.11206 2.0107-1.2421 3.5558-1.0205 1.4457 0.067 2.2034-1.2246 3.5558-1.2246 1.3262-0.0234 2.6192 0.95544 3.3467 1.4287 1.6877 0.94079 2.6004 2.2451 3.3467 2.2451 2.0805-0.16697 4.0254 0.20409 6.0658 0.20409h1.8825c1.0059-0.0388-0.18436 2.0209 1.255 2.041 1.2658 0.12859 2.3199-0.2041 3.5558-0.2041 1.0323 8e-3 2.0898 0.27088 2.9283 0.81638 3.7415 1.6864 5.6802 3.6466 8.785 5.9188 0.79763 0.58372 1.8588 1.8495 2.7192 2.4492 1.0653 0.74248 2.6328 2.895 0.96745 0.86173 1.9063 1.86 1.9503 4.34 6.0197 4.34z"/>
   <path id="Garzón" d="m464.3 639.35c-8.5856 0.3785 2.409-1.682-3.6813-4.6534-3.3215-2.8883-3.8259-5.5042-6.9025-7.7557-0.74721-1.9613 1.4198-0.72969 2.3008-2.4492 0.47447-0.92594-1.8488-1.0533-1.0458-1.8369 0.8826-0.86121 3.1375 0.69143 3.1375-1.8369 0-1.4358-4.0984-1.5944-2.7192-4.286 0.25523-0.49808 2.5527-2.5699 2.51-2.6533-0.50896-0.99326-1.4281-1.7312-1.6733-2.4492-0.58985-1.7267-1.6733-12.104-1.6733-13.879 0-0.25346 1.0621-1.2563 1.255-1.6328 0.22393-0.43701-0.81287-1.8833-0.41833-2.6532 0.68593-1.3386 4.3312-6.0383 3.3467-7.9598-1.5893-3.1015-3.9526-3.4486-5.6475-5.1024-0.54804-0.53476-0.91004-4.0819-0.20917-4.0819 0.31123 0-1.6312 0.0412-2.0917-0.4082-0.45449-0.44348 1.6733-2.1019 1.6733-3.0614 0-1.9954-1.2065-1.9463-1.6733-2.8574-0.2357-0.45996 0.83667-5.9592 0.83667-7.1434-0.84248-2.3809-2.9308-2.0483-3.3467-3.2655-0.23156-0.67786 0.9519-1.2454 1.255-1.8369 0.65674-1.2816-0.83314-3.0683-0.20916-4.286 0.40473-0.78985 2.0449-0.2713 2.51-1.6328 0.32173-0.94179-2.1563-3.3436-1.255-5.1024 0.67039-1.3083 3.0121-6.2863 4.3925-8.9802 1.317-2.5701-1.0334-7.1675 0.41833-10.001 0.56023-1.0933 5.7049-3.0121 7.1117-3.4696 1.0844-0.35272-0.0644-0.95763 0.6275-1.6328 0.89135-0.86974 2.6891-1.9823 3.3467-3.2655 0.26775-0.52253-0.22415-1.0497-0.41833-1.4287-0.46526-0.90795-0.0855-2.4954-0.41833-3.4696-0.58655-1.717-4.9322-3.1144-4.3925-4.6942 0.24697-0.72294 0.10535 0.17957 0.83667-0.61229 0.94052-1.0184-0.92004-3.3069-0.41834-4.286 0.2807-0.54779 1.1732-0.32842 1.255-0.40819 0.57692-0.56294 0.36003-5.3232 1.4642-6.9393 1.0096-1.4776 4.2454-2.1621 4.8108-3.2655 0.0134-0.0264 0.52502-1.5287 0.83666-1.2246 1.2394-0.20407-2.1476-5.4014-2.0917-5.5106 0.48573-0.94792 2.554-2.6145 2.9283-2.9798 0.4344-0.42386 0.30586-1.6996 0.55047-2.1209 0.77146-1.3289 1.3246-1.8288 2.587-3.4713 0.81776-5.2921-2.3952-10.949-0.41833-16.736 0.35061-1.0263 2.2924-1.8121 2.7192-3.0614 0.97814-2.8633 0.2789-3.1975 1.6733-5.9188 0.33613-0.65598-1.1903-2.1041-0.41834-2.8573 0.42271-0.41247 2.0584 3.4372 3.1375 4.4901 0.62651 0.61132 3.1149 2.234 3.9742 2.6532 1.025 0.50009 3.7394-1.0454 4.6017-0.20409 1.6393 1.5995-1.9033 5.5106 3.1375 5.5106 1.0027 0 7.3208-0.37422 7.3208 0.61229 0 1.5923-1.9223 3.149-1.255 5.1024 0.26916 0.78792 1.988 1.2263 2.51 2.2451 0.56607 1.1047-0.20969 4.6937 0.6275 5.5106 1.0493 1.0238 3.2416 1.4277 3.765 2.4492 2.2281 4.3482 2.7689 9.5339 4.1833 13.674 1.2118 3.5472-5.7746 3.7538-3.9742 5.5106 2.1298 2.0781 2.477 5.6825 3.1375 6.327 1.9324 1.8856 1.9409-1.8084 3.5558-1.0205 0.26222 0.12793-0.18029 1.5448 0.41834 1.8369 0.57754 0.28177 1.8907 0.21206 2.3008 0.61228 1.2141 1.1847-0.3068 3.3744 0.20917 3.8778 0.75163 0.7334 3.167 4.3723 3.3467 4.8983 0.36869 1.0793 1.6351 7.5888 0.6275 8.572-0.0926 0.0904-1.8825 0.76039-1.8825 0.40819 0-0.83043-1.195 1.2531-1.4642 2.041-0.42152 1.2339-2.6124 2.924-3.765 3.6737 1.225-1.0068 1.4691 1.2102 1.0458 2.4492-0.67005 1.9614-3.5468-0.6298-4.6017 1.4287-0.44782 0.87392 2.204 1.5232 1.255 2.4492-0.28912 0.28211-1.6075 1.697-1.4642 1.8369 0.56572 0.55201 2.6473 0.61867 2.0917 2.2451-0.41316 1.2094-3.2286 3.9406-3.9742 6.1229-0.97596 2.8569 2.2748 4.2097 2.7192 5.5106 0.95261 2.7886-1.6562 4.2359-2.3008 6.1229-0.45399 1.3289 0.24664 3.1924-0.41834 4.4901-0.28988 0.56572-1.2454 0.38957-1.4642 0.81638-2.3649 4.6151 6.6605 4.7263 3.765 7.5516-0.75142 0.7332-0.60268 4.8862-0.62751 4.8983-0.26628 0.12991-2.4228 1.3097-1.6733 2.041 0.84338 0.82294 1.6733 2.3056 1.6733 3.4696 0 1.0572-2.0638 3.8235-2.7192 5.1024-0.80384 1.5687 1.2514 1.8263 1.6733 3.0614 0.36048 1.0552-0.88857 4.0313-0.20916 4.6942 0.50969 0.49734 1.731 0.66857 2.0917 1.0205 0.50476 0.49253 0.22737 3.301 0.6275 4.0819-0.32511 0.52024 0.79269 3.3586 0.28037 4.7443-0.17898 0.48409-0.38124 2.2897-0.90922 2.3702-0.66824 0.10191-1.682-1.6137-1.8812-1.808-0.57191-0.55806-0.32743-1.5352-1.255-1.8369-1.0945-0.35599-2.5567-1.066-3.3467-1.8369-0.65551-0.63962-2.5355 0.7915-3.1375 0.2041-0.72206-0.70456 1.4602-5.5086-0.62749-4.4901-0.83213 0.40598-3.2314 5.3274-2.9283 5.9188 0.39385 0.76863 2.1021 0.63275 2.7192 1.8369 0.67201 1.3114-2.0331 2.188-2.51 2.6533-1.79 1.7466 0.1269 4.8146-1.0458 6.5311-2.3607 3.4552-3.0823-5.207-6.3391-3.9505-0.0333 0.0128-2.3649 2.0346-3.9101 3.5423-0.51919 0.5066-0.0243 1.4524-0.41834 1.8369-2.0843 2.0338-1.5636-0.62224-3.5558 3.2655-0.42748 0.83425 1.7882 4.1806 2.0917 4.0819 2.2487-0.73141-2.6933-6.1825 4.3925-3.8778 2.4696 1.2516 2.0933-3.0591 3.3467-1.2246 0.63395 0.92786 1.0066 0.98218 1.6733 1.6328 1.391 1.3573-0.94418 3.5192 1.4642 4.6942 1.8293 0.8925 3.8214-2.6564 5.7102-1.7348 0.22484 0.1097-1.5583 1.1532-1.7361 1.3266-1.6973 1.6562-4.4212 1.2526-5.8567 2.6532-1.0695 1.0436-9.1593 6.4487-10.667 6.9393-1.2394 0.4031-4.3049 1.3432-5.2292 2.245-3.8047 3.7124 1.5777 7.3786-1.4642 8.368-5.0822 1.653-3.0717-2.7232-4.1833-3.2656-2.0316-0.99118-4.1489 0.60026-5.9403 0.16328z"/>
  </g>
 </g>
</svg>
