<svg id="mapa" width="500" height="500" fill="#6f9c76" stroke="#ffffff" stroke-linecap="round" stroke-linejoin="round" stroke-width=".5" baseprofile="tiny" version="1.2" viewBox="0 0 1000 1000" xmlns="http://www.w3.org/2000/svg">
<g id="features" fill="#d7d7d7" stroke-width="3">
<path id="Paysandú" d="m144.4 303.6 0.5-0.2 2.6-1.3 2.3-0.7 2.5 0.3 2.7 0.7h1.8l0.8-0.2 0.2-0.1v-0.1l0.3-2.7 0.5-0.7 0.8-0.5 5.8-1.5h1.2l1.6 0.3 4.2 1.6 10.4 5.9 1.3 1.2 0.6 0.7 0.4 0.8 2 6.4 0.4 0.9 0.4 0.8 0.6 0.7 0.7 0.6 0.8 0.4 1.2 0.5 23.1 5 11.2 5.8 5.3 3.8 1.7 1 3.7 1.4 3.8 0.6 4.5 0.1 2.8 0.7 1.7 0.7 0.7 0.7 3.5 5.4 1.1 1.3 2.1 1.7 3.6 1.8 12.5 3.6 1.7 0.9 5.8 4.5 1.8 0.5 13.3 1.6 2 0.6h1.4l1.5-0.2 2.2-0.8 1.2-0.7 0.9-0.7 0.7-0.5 1-0.4h1.2l6.9 2.6 3.2 0.8h1.8l13.6-3h1.9l2.7 0.4 1.5 0.4 1.1 0.6 3.1 2.1 0.9 0.3 1.1 0.2 6.6 0.1 1.7 0.2 1.3 0.4 7.9 5.1 2 0.6 1.1 0.2 8.1 0.3 11.2 3.4 1 0.1h1.7l2.6-0.5 2-0.7 0.9-0.7 0.8-0.8 0.7-1.6 0.4-0.8 0.4-2.1 1-1.4 4.8-5.1 1.4-1.9 0.8-1.6 0.3-1 2.4-1.8 8.3-2.2 5.1 6.2 0.8 1.6 0.6 1.9 0.1 1.2-0.3 4 0.2 4.3 0.4 1.5 0.4 1.1 3.8 4.7 0.6 1.1 0.3 1.2-0.1 1.3-0.4 1-0.5 0.5-0.7 0.2-1.4 0.3-1.6 0.6-0.8 0.4-0.7 0.6-0.5 1.3-0.4 1.9 0.1 7.9-0.1 1.2v0.1l-0.7 7.8-1.1 3.9-0.8 1.9-1.8 3.2-0.7 2.2-4.5 20.7-1.2 3.2-4.7 5.6-5.3 4.9-5.8 4.3-4.7 4.3-2.6 4.1-8.4 25.3-5-2.7-2.1-1.4-8.7-7.3-1.6-1-8.6-2.7-2.8-0.4-1.1 0.1-1.9 0.5-1.5 0.1-2.1-0.2-6.1-1.1-1.7-0.2-3.9 1-3.4 0.2-3.5-0.2-3.8-1-5-3-8.6-4-2.3-0.6-1.7-0.1-0.8 0.3-1.6 0.8-3 2.3-1.6 0.9-0.8 0.3-2.1 0.4-9.9 0.1-1.5 0.4-1.7 0.8-10.3 7.5-1.1 0.5-1.6 0.4-2.8 0.5-1.6-0.2-1.4-0.4-3.4-1.6-1.4-0.1-1.1 0.2-2.4 1.4-2.7 1-4.1 0.7-1.5-0.1-5.6-1-2.1-0.1-1.6 0.2-0.8 0.4-1.4 1.1-1.2 1.3-0.5 0.7-1.5 1.4-0.7 0.4-3.7 1.2-0.9 0.4-0.7 0.5-0.6 0.7-0.8 1.5-0.1 0.4-0.1 0.1-1 2.7-0.5 0.9-1.1 1.5-0.6 0.6-1.6 1.1-27.3 4.1-0.7 0.6-0.5 0.8-0.4 0.9-0.2 1.1-0.6 3.8-0.7 1-1.2 1-2.3 1.1-1.4 0.2-1.2-0.3-0.8-0.5-13.8-1.4-1.9-0.4-1.6-1.1-3.2-0.9-3.8-0.4-1.9-0.5-1.2-0.5-0.4-0.6-0.2-0.4-1-3.2-0.8-1.6-0.6-0.8-0.6-0.6-3.5-1.9-0.7-0.5-0.7-0.6-4.3-5.1-0.5-0.6-0.7-0.6-1-0.7-1.8-0.7-1.3-0.3-8 0.5-4.6 0.9h-0.1l-0.9-4.1-0.4-4.2v-0.5l1.6-2 3.9-8.3 10-14.5 0.8-5.7-1.7-5.4-10.7-14.4-1.8-3.9 0.9-3.8 3.5-5.8 1.6-7.1 0.5-8.4-0.6-7.9-1.5-5.8-5-5.6-1.9-3.8 1-3.8 4.3-4.9 2.5-1.8 3.5-1.5 7.4-1.5 3.8-1.6 1.6-2.6 9.5-28.5 1.4-8.1-1.1-8.3-4.2-5.2z" name="Paysandú"/>
<path id="Artigas" d="m182 172-0.4-3.3-1-4.8-1.5-6.4-1.3-4.1-3.5-7.6-2.3-3.5-3.5-7.1-0.7-7.1 2-6.6 4.3-5.4 31-28.4 3.4-5.9 1.1-7-2.2-7.9-0.7-4 6.2-0.4 2.5 2.4 3.1 9.5 4.9 3.3 3.9 0.4 6.9-1.2 3.8-0.1 2.1 1.1 2.3 3.7 2.5 0.6 1.5-0.8 3.6-3.2 2-0.9 3.1 0.1 2 1.3 1.6 1.5 2.3 1 1.3-0.5 1.9-2.4 0.9-0.4 1.3 0.6 1.9 2.1 0.8 0.6 5.1-1.1 4.5-3.6 3.2-5.2 0.8-5.7 1.2-4.6 3.3-5.9 4.3-5.2 4-2.8 1.5 0.2 3 1.4h1.6l3.1-1.6 1.1-0.4 5.8-1.1 3.1-0.1 7.6 2.1 5.8-1 6-0.2 5.7 4 2.9 4.9 1.5 1.9 9.8 6.7 4.8 2.3 2.7 1.9 2.4 2.3 1.4 2.4 0.5 3.7-0.5 1.9 0.2 1.2 2.5 1.6 1.6 0.4 1.5-0.1 1.6 0.2 1.6 1.1 0.9 1 1.4 2.3 5.8 6.7 2 1.6 2.6 2.4 8.4 5.4 2.6 2.7 3.8 6.4 2.2 3.1 2.1 1.8 7.3 4.1 9.2 7.8 5.1 2.6 3.2 3 4.9 6 0.9 2 0.5 1.9 0.6 1.8 1.8 1.5 3 2 1.4 1.3 1 1.5 5.2 10.2 2.4 3 10.3 8.3 2.5 5.1 1 5.4v0.1l-0.8 5.4-2.7 5-0.7 4-0.1 12-0.9 8.3v4l0.8 1.3-0.2-0.1-5.8-4.6-1.2-1.3-1.6-2.1-1.2-1.4-4-3.4-1.8-2.2-2.4-3.8-1.1-1.4-3.2-2.8-2.6-1.6-1-0.4-24.9-5.5-8.8-3.2-1.2-0.3-1.6-0.2-2.8 0.3-1.6 0.4-1.1 0.5-1.2 1.4-0.9 1.7-1.1 2.7-0.9 1.7-0.6 0.7-1.4 1.2-0.7 0.4-3.5 1.4-1.6 1-0.6 0.6-2.3 2.8-1.4 1-1.9 0.6-5.2 0.7-1.8 0.6-1.5 0.9-9.2 7.8-1.4 0.7-1.8 0.7-1.9 0.5-7.6 0.7-3.7 1.1-2.2-0.1-17.8-3.3-3.8-0.2-10.4 1.3-1 0.4-1.5 0.8-4.2 3.3-0.9 0.4-0.9 0.3-1 0.1-1.6-0.1-9.5-2.9-3.8-2-2.9-2.1-7.3-7.2v-0.1l-2.4-2-1.2-0.7-7.5-2.4-20.8-11.1-5.2-3.7-0.9-1-2.6-1.9-1.3-0.6-1.6-0.4-3.3-0.5h-5.5l-1.4-0.2-1.5-0.5-1.9-1.3-1-0.8-0.8-0.9-2.6-3.6-1.1-1.3-2.7-2.5-10.2-7.6-2.1-1.3-1.7-0.6-4.3-0.5-1.6 0.1-1.1 0.8-0.8 0.7z" name="Artigas"/>
<path id="Salto" d="m144.4 303.6-1.9-1.4-3.8-4.7 2-5.7 3-2.5 5.9-3.6 2.5-2.2 1.5-3.4 0.8-8.4 1.4-3.8 1.1-1.2 2.6-2 1.1-1.2 3.3-7 1.5-2.1v-4.8l-1-8.1 2-8.1 3.9-6.1 3-6.3-1.3-8.6-6.6-9.8-1-2.1 1.2-3.2 2.9-2 6.7-1.7 3.6 0.4 2-0.7 0.8-2.8 0.9-4.4 0.2-1.9-0.1-7.7-0.6-4.5 3.8-5.6 0.8-0.7 1.1-0.8 1.6-0.1 4.3 0.5 1.7 0.6 2.1 1.3 10.2 7.6 2.7 2.5 1.1 1.3 2.6 3.6 0.8 0.9 1 0.8 1.9 1.3 1.5 0.5 1.4 0.2h5.5l3.3 0.5 1.6 0.4 1.3 0.6 2.6 1.9 0.9 1 5.2 3.7 20.8 11.1 7.5 2.4 1.2 0.7 2.4 2v0.1l7.3 7.2 2.9 2.1 3.8 2 9.5 2.9 1.6 0.1 1-0.1 0.9-0.3 0.9-0.4 4.2-3.3 1.5-0.8 1-0.4 10.4-1.3 3.8 0.2 17.8 3.3 2.2 0.1 3.7-1.1 7.6-0.7 1.9-0.5 1.8-0.7 1.4-0.7 9.2-7.8 1.5-0.9 1.8-0.6 5.2-0.7 1.9-0.6 1.4-1 2.3-2.8 0.6-0.6 1.6-1 3.5-1.4 0.7-0.4 1.4-1.2 0.6-0.7 0.9-1.7 1.1-2.7 0.9-1.7 1.2-1.4 1.1-0.5 1.6-0.4 2.8-0.3 1.6 0.2 1.2 0.3 8.8 3.2 24.9 5.5 1 0.4 2.6 1.6 3.2 2.8 1.1 1.4 2.4 3.8 1.8 2.2 4 3.4 1.2 1.4 1.6 2.1 1.2 1.3 5.8 4.6 0.2 0.1 0.9 1.4h0.2l-4.2 14.4-1 2.7-2 3.8-1.6 1.6-2 1.2-10.9 3.2-2.1 1-2.2 1.5-1.1 1.5-0.7 1.2-0.2 2.2 0.4 1.1 0.5 1 2.5 2.6 1.4 1.9-1 3.4-1.4 3.2-1.2 7-0.4 1.8-0.6 1.3-0.7 0.5-2 2-1.5 2.1-1 1.1-1 0.8-0.8 0.4-2.9 1.1-1.2 0.7-0.8 1.2-2.6 5.6-0.8 1.1-5.1 4.9-0.7 1.3-4.7 12.9-0.4 1.9 0.3 0.9 0.4 0.8 1.1 1.4 0.9 1.6 0.6 1.8 0.3 2.1 0.5 7.9 0.4 2 0.5 1.9 0.3 2.5-0.2 5.1-8.3 2.2-2.4 1.8-0.3 1-0.8 1.6-1.4 1.9-4.8 5.1-1 1.4-0.4 2.1-0.4 0.8-0.7 1.6-0.8 0.8-0.9 0.7-2 0.7-2.6 0.5h-1.7l-1-0.1-11.2-3.4-8.1-0.3-1.1-0.2-2-0.6-7.9-5.1-1.3-0.4-1.7-0.2-6.6-0.1-1.1-0.2-0.9-0.3-3.1-2.1-1.1-0.6-1.5-0.4-2.7-0.4h-1.9l-13.6 3h-1.8l-3.2-0.8-6.9-2.6h-1.2l-1 0.4-0.7 0.5-0.9 0.7-1.2 0.7-2.2 0.8-1.5 0.2h-1.4l-2-0.6-13.3-1.6-1.8-0.5-5.8-4.5-1.7-0.9-12.5-3.6-3.6-1.8-2.1-1.7-1.1-1.3-3.5-5.4-0.7-0.7-1.7-0.7-2.8-0.7-4.5-0.1-3.8-0.6-3.7-1.4-1.7-1-5.3-3.8-11.2-5.8-23.1-5-1.2-0.5-0.8-0.4-0.7-0.6-0.6-0.7-0.4-0.8-0.4-0.9-2-6.4-0.4-0.8-0.6-0.7-1.3-1.2-10.4-5.9-4.2-1.6-1.6-0.3h-1.2l-5.8 1.5-0.8 0.5-0.5 0.7-0.3 2.7v0.1l-0.2 0.1-0.8 0.2h-1.8l-2.7-0.7-2.5-0.3-2.3 0.7-2.6 1.3z" name="Salto"/>
<path id="Rivera" d="m463.1 225.2 3.9-0.6 10.3 0.7 4.9-1h3.8l1.5-0.4 1.3-1 0.7-1 0.6-1.1 0.9-1.1 2.5-1.7 6-4.1 2.3-2.2 1.3-2.8 1.6-6.3 2.1-2.4 3-0.4 3.8 0.8 3.6 0.3 2-1.9 0.3-3.5-0.6-7.5 0.8-3.3 2.5-2.4 3.3-0.8 3.3 0.9 4.4 5.2 5.7 3.3 2.5 2.1 3.5 4.3 7.3 6.6 11.7 13.1 2.3 3.5 0.8 3 0.6 6.6 1.1 3.1 1.7 1.7 5.2 3.5 1.8 2.8 2.1 7.6 1.4 3.3 2.5 3 2.6 1.6 6.2 2.4 2.9 1.8 7.5 6.8 3.1 2 2.3 0.5 2.1-1.2 2.1-2.9 2.9-5.9 2-0.7 2.8 3.5 2.6 4.4 4 5.4 4.6 4.5 6.3 3 2 2.1 1.8 2.4 2 2.1 2.1 1.4 4.8 1.8 26 3.8h5.4l2.4 0.7 2 2.1 2.8 5.8 1.8 2.5 8.3 6.7 2.3 2.4 1.8 3.4 0.7 3.3 0.2 7.5 1.6 4v0.1l-0.8 1-2.1 4.4-0.5 0.8-1.1 0.7-1.6 1.7-1.4 2.1-0.8 1.8-0.2 4.4 2.8 8.2 0.7 4.5-0.8 3.3-3.7 9.3-2.2 4-2 5.4-5.3 7.7 2.5 2 2.6 0.4 1.9 0.8 0.6 3.1-1 2.4-4 3.1-1.5 2.2 1.5 3-0.5 3.3-2.3 2.7-3.6 1.2-3.3 0.4-3.3 0.9-2.3-2.6-1.1-1.7-1.9-4.3-2-3-5.8-5.8-2.5-3.7-6.6-7.5-2.7-4.9-2.3-2.6-4.3-3.5-0.6-0.6-3.2-4.5-1.2-1.2-3.6-1.8-6.8-2.6-1.9-0.4-12.1-1.1-3.1-1-6-2.8-2.5-0.5-4.8-0.2-6.5 0.8-9.7-0.8-15.4-3.9-4.5-0.5-2.3 0.2-3.9 0.9-13.8 1-4.3-0.5-4.4-1-1.1-0.1-1 0.2-2.6 1.1-1 0.2h-1.1l-1.1-0.1-1.2-0.7-1.2-1.1-1.7-2.5-1.5-2.7-0.6-1.8-0.1-1.1 0.3-3.3-0.1-1-0.4-0.8-0.9-1.6-0.4-0.8-0.2-1-0.1-1.2 0.2-2.4 0.5-2.2 1.3-3.9 0.2-1.1 0.1-1.1-0.3-1-0.6-1.8-1.4-6-0.7-1.8-0.9-1.6-1-0.8-1.4-1-3-1.3-5.2-1.7-1.1-0.5-1.2-0.8-5.2-5-0.7-0.8-0.4-0.7-0.6-1.2v-0.1l-0.4-0.6-2.3-7.2-0.1-1 0.2-3.5-0.1-2.3-0.3-1-0.6-1.8-1.7-3.3-0.6-0.8-0.8-0.9-2.6-2-11.4-4.8-7.5-4.3-12.9-10.3-0.8-0.4-2.3-0.6h-3l-1.1 0.2-2.6 1.1-2 1.8-3.7 5.8-1.4-1.9-2.5-2.6-0.5-1-0.4-1.1 0.2-2.2 0.7-1.2 1.1-1.5 2.2-1.5 2.1-1 10.9-3.2 2-1.2 1.6-1.6 2-3.8 1-2.7z" name="Rivera"/>
<path id="Rocha" d="m854.1 604.1-2.5 8.6 0.1 13.8 3.5 28.3-3.6 31.1-0.5 16.8 4.5 7.8h3.2l2.8-0.6h2.6l2.5 1.9 1.5 3 1.2 3.4 1.9 2.1 5.1-0.3-2.7 1.9-2.9 2.6-5.7 7-3.5 6.2-2 6.6-3.1 15.7-3 9.5-0.8 8.7-1.5 2.7-5.5 3.8-2.7 2.4-7.6 9.9-8.4 6.5-2.8 3.3-5.6 11.1-1.4 1.9-0.4 2.1-3.4 10.9 2.6 7-0.2 3.4-6.5 2-14.5 8.2-11.6 8.2-23.9 23.5-2 2.6-0.6 3.3 0.1 2.9-0.9 2.1-14.3 3.3-3.6 0.2 0.7-1.6 0.9-1.2 2.7-2.5-1.1-0.9-1-1.2-0.7-1.5-0.4-1.6 0.3-2.4 1.6-4.6 0.4-0.8-2.4-2.4-4.2-1.8-4.5-1.1-3.1-0.1 1.8 1.3 5.8 2.6-1.2 2.4-2.6 2.7-2.9 2-2.4 0.9-1 1.3v2.6l1.1 2 2.6-0.4-0.2-1.5 2.3 0.5 2.9 2.4 1.4 4.2-1.2 2.5-2.9 2.4-35.2 19-0.1-0.2-0.7-2-0.2-1.1 0.1-1.5 0.6-1.9 0.7-1.1 1.2-1.6 0.4-0.8 0.1-0.9-0.1-1-2.1-7.1-0.3-2.2-0.4-7.6 0.4-4.2 1.4-5.1 0.5-1.3 2.4-4.2 0.8-2 0.2-1.1 0.2-1.3-0.1-1.6-0.7-2.3-0.6-1.2-1.4-1.7-0.5-0.8-0.2-1.4-0.4-5-0.3-1.7-0.5-1.2-1.1-1.6-0.3-1.3-0.2-1.9 0.2-3.7 0.4-2.3 1.2-2.4 1.1-0.5h1l0.9 0.3 0.9 0.2 0.7-0.2 0.4-0.3 0.4-0.6 0.8-5.4 0.6-11.4-0.4-4.4-0.6-3.2-0.4-11.7 1.6-10.4 0.3-1.1 0.4-1 1.8-3.6 0.3-1.1 0.4-2 0.1-0.9-3.3-32.1 3.8-6.1 4.8-5.5 0.6-1.2 0.4-2.2 0.3-5.7 0.6-3 0.5-1.6 0.6-1.1 1-1.3 3.5-5.7 0.7-2.1 0.3-1.6-1.5-10.8 0.7-3.9 1.4-2.9 3.4-3.7 12.6-7.4 5.9-5.4 3.4-11.6 2.8-1.3 3.7-0.1 3.7-0.6 1.1-0.6 0.9-0.7 0.8-0.8 0.7-1.2 1.8-1.7 8.3-2.1 3.8-2.4 3.7-3 3.2-3.7 4-8.4 1.6-1.6 5.4-1.6 3.7-2.4 4.9-7 2.8-3.1 2.2-1.2 3.7-1.7 1.7-1.7 0.8-2 0.5-2.2 0.8-2.1 1.6-2.1 0.9-0.7 12.5-3.7 11.4-4.9 14.9-3.5z" name="Rocha"/>
<path id="Treinta y Tres" d="m907.2 543.2-3.3 4.2-10.5 7.8-4.4 4.7-1.3 3.4-0.4 7-1.1 3.4-1.7 2-19.1 12.8-5.4 4.8-4.4 6h-0.1l-1.4 4.8h-0.1l-14.9 3.5-11.4 4.9-12.5 3.7-0.9 0.7-1.6 2.1-0.8 2.1-0.5 2.2-0.8 2-1.7 1.7-3.7 1.7-2.2 1.2-2.8 3.1-4.9 7-3.7 2.4-5.4 1.6-1.6 1.6-4 8.4-3.2 3.7-3.7 3-3.8 2.4-8.3 2.1-1.8 1.7-0.7 1.2-3.9-1.9-4.1-2.7-5.7-2.3-3.4-2-1.3-1.1-2.5-2.7-2.3-4-1.6-3.5-0.5-0.8-0.7-0.6-0.9-0.4-1.5-0.1h-1.8l-4.5 1.2-1.3 0.5-5.1 4-0.8 0.5-1.8 0.7-0.8 0.5-0.7 0.6-0.6 0.8-0.3 1-0.5 2.1-0.8 1.9-0.5 0.7-0.6 0.7-0.7 0.6-0.8 0.5-6.2 2.6-1.4 0.1-1.9-0.2-10.7-3.4-0.8-0.5-2.1-1.8-0.9-0.4-1-0.3-12.8-2.1-4.7-1.3-5.4-3.7-4.3-4.6-1-0.7-1.2-0.5-2-0.5-2.4-0.9-1.2-0.2-1.5 0.1-4.1 1.6-7 3.6-1.2 0.3-1.6 0.1-2.7-0.4-1.4-0.6-1.1-0.7-0.6-0.6-0.9-0.5-3.1-0.9-1.5-0.8-0.5-0.2-0.8 0.1-8.2 1.4-3 1.4-7.7 4.5-3.2-3.9-0.3-1.3-0.3-1.9 0.3-1.2 0.5-1 0.5-0.8 0.6-0.7 2.4-1.6 1-1.2 1.2-2 1.7-4.5 0.6-2.4 0.2-1.8-1.5-8.5-0.2-6.5-1.4-10.2 1.3-3.9 1.3-1.7 8.8-5.7 1.4-1.2 1.1-1.3 0.5-0.7 1.5-3v-3.4l-0.2-1.2-2.3-4-0.3-1.6 0.1-1.4 0.5-1.1 0.8-1.3 1-1.2 0.8-0.7 3.5-2 1-0.8 1.2-1.2 1.9-1.4 5.4-2.2 0.8-0.4 1.3-1.2 2.5-2.7 2.6-2.4 9.3-4.7 2-0.5 4.4-0.5 5.1 0.1 2.5-0.6 7.3-3 1.4-0.2h2.1l2.1 0.5 2.9 1.2 1.3 0.2h1.5l2.4-0.4 1.3-0.6 0.9-0.7 1.1-1.5 1.1-1.9 0.8-1.1 0.8-0.4h1l1.2 0.2 1.4 0.2 2.2-0.4 1.2-0.6 0.8-0.8 0.5-0.9 0.7-2.4 1-1.5 1-0.6 1.1-0.1 2.2 0.4 8.8-0.6 3.3-1.1 7.8-4.4 2.3-0.9 1.6-0.2 0.7 0.6 1.3 1.2 0.8 0.6 0.8 0.4 1.1 0.3 5.9 0.8 3.2 1.1 4.4 0.5 0.9 0.4 1.5 1.1 0.9 0.5 1 0.3 1.1 0.2h1.2l3.3-0.2h1.1l0.9 0.3 0.9 0.4 8.5 5.8 0.7 0.6 1 0.5 1.3 0.3 2.2-0.1 0.9-0.7 0.4-1-0.3-1-0.4-0.9-0.9-1.6-0.3-0.8-0.2-1 0.1-0.9 0.4-0.8 0.6-0.7 3.4-3.1 1-1.2 0.8-0.6 4.4-2.6 1.8-0.4 1.4-0.1 1 0.4 1.6 1 10 8.1 1.6 1 0.9 0.4 1.2 0.3 1.6 0.2 26.2-2.1 5.6 1 3.8 0.2 16.9-2.1 0.8 0.2 0.7 0.4 0.7 0.6 0.6 0.6 1.1 1.5 1.1 0.5 1.5 0.3 3-0.2 1.7 0.1 1.2 0.4 2.1 1.8 1 0.5 1.3 0.4 2 0.3 1.4-0.1 1.2-0.4 2.6-1.6 1.6-0.3 1.3-0.1 3.9 0.4 18.9 4z" name="Treinta y Tres"/>
<path id="Cerro Largo" d="m705.4 332.3 0.6 1.4 4.3 4.2 5.1 3.7 4.8 4.5 4.8 5.6 10.8 10 8.7 6.2 7.7 7.2 3.7 2.6 1.7-0.1 1.5-2 2.9-2.7 2.9-1 3.1 0.3 3 1.3 2.7 2.1 0.9 1.2 1.4 2.7 1.5 1.3 1.5 0.6 5.2 0.5 2.7 0.8 2.2 1.1 4.5 3.1 1.9 2 0.6 1.9 0.4 1.9 1 1.9 1.6 1.9 2 1.8 4.4 2.9 9.2 1.9 2.3 1.5 0.9 2.6 0.2 6.5 4.5 10.8 8 11.9 1.9 5.2 1 6.3 0.5 9.4 0.8 3.1 1.4 2.4 4 3.6 1.6 2.3 2.7 4.8 3.2 4.4 3.8 3.8 9.9 7.1 9.2 10.4 8.9 3 6.8 4.2 2.6 0.9h5.1l5.2 3.2 5.1 2.4 2.4 1.7 10.4 11.4 1.4 2.8-0.5 3.3-2 2.7-5.7 4.5-3.1 3.9h-0.1l-18.9-4-3.9-0.4-1.3 0.1-1.6 0.3-2.6 1.6-1.2 0.4-1.4 0.1-2-0.3-1.3-0.4-1-0.5-2.1-1.8-1.2-0.4-1.7-0.1-3 0.2-1.5-0.3-1.1-0.5-1.1-1.5-0.6-0.6-0.7-0.6-0.7-0.4-0.8-0.2-16.9 2.1-3.8-0.2-5.6-1-26.2 2.1-1.6-0.2-1.2-0.3-0.9-0.4-1.6-1-10-8.1-1.6-1-1-0.4-1.4 0.1-1.8 0.4-4.4 2.6-0.8 0.6-1 1.2-3.4 3.1-0.6 0.7-0.4 0.8-0.1 0.9 0.2 1 0.3 0.8 0.9 1.6 0.4 0.9 0.3 1-0.4 1-0.9 0.7-2.2 0.1-1.3-0.3-1-0.5-0.7-0.6-8.5-5.8-0.9-0.4-0.9-0.3h-1.1l-3.3 0.2h-1.2l-1.1-0.2-1-0.3-0.9-0.5-1.5-1.1-0.9-0.4-4.4-0.5-3.2-1.1-5.9-0.8-1.1-0.3-0.8-0.4-0.8-0.6-1.3-1.2-0.7-0.6-1.6 0.2-2.3 0.9-7.8 4.4-3.3 1.1-8.8 0.6-2.2-0.4-1.1 0.1-1 0.6-1 1.5-0.7 2.4-0.5 0.9-0.8 0.8-1.2 0.6-2.2 0.4-1.4-0.2-1.2-0.2h-1l-0.8 0.4-0.8 1.1-1.1 1.9-1.1 1.5-0.9 0.7-1.3 0.6-2.4 0.4h-1.5l-1.3-0.2-2.9-1.2-2.1-0.5h-2.1l-1.4 0.2-7.3 3-2.5 0.6-5.1-0.1-4.4 0.5-2 0.5-9.3 4.7-2.6 2.4-2.5 2.7-1.3 1.2-0.8 0.4-5.4 2.2-1.9 1.4-1.2 1.2-1 0.8-3.5 2-0.8 0.7-1 1.2-0.8 1.3-0.5 1.1-0.1 1.4 0.3 1.6 2.3 4 0.2 1.2v3.4l-8.1-1.1-11.3 0.4-2.5-0.2-1.6-0.4-0.6-0.7-1.8-2.6v-0.1l-0.5-0.4-14.9-9.7-2.1-1.8-2.9-3.4-1.8-3-0.7-2.1-0.4-2v-1.1l0.9-4.5 0.3-3.5-0.1-1.1-0.3-0.9-0.6-1.3-2.6-4-0.7-1.5-0.3-1.4 0.2-1 0.5-0.8 0.7-0.6 0.8-0.4 2.1-0.4 0.8-0.4 0.6-0.7 0.3-1v-1.1l-0.2-1.1-4.1-9.5-0.2-1.1v-2.2l0.5-2.1 2.2-5.8 2.2-9.8 0.2-2.4-0.1-2.2-0.7-4.1-3.2-6.1 13.9-6.5 5.4-0.3 10.3 4.1 5.3 1.1 5.5-0.8 4.9-2.3 4.1-3.2 3.3-3.8 3.2-5.4 2.4-2.4 5.6-1.7 1.3-1.7 1.1-2.1 1.4-1.9 1.6-1.1 3.3-1.6 1.6-1.1 2.5-3.4 3.4-7.6 2.2-3.8 0.6-2-0.6-2.1-1.1-2-0.5-2.1 0.2-1.7 0.6-1.9 1.3-2.7 3.7-4.1 1.2-2.5 0.5-4.3 1.7-1.9 3.9 1.3 6.3 3.8 2.3-0.3 3.4-0.9 3.3-0.9 3.3-0.4 3.6-1.2 2.3-2.7 0.5-3.3-1.5-3 1.5-2.2 4-3.1 1-2.4-0.6-3.1-1.9-0.8-2.6-0.4-2.5-2 5.3-7.7 2-5.4 2.2-4 3.7-9.3 0.8-3.3-0.7-4.5-2.8-8.2 0.2-4.4 0.8-1.8 1.4-2.1 1.6-1.7 1.1-0.7 0.5-0.8 2.1-4.4 0.8-1z" name="Cerro Largo"/>
<path id="Maldonado" d="m703.1 755 3.3 32.1-0.1 0.9-0.4 2-0.3 1.1-1.8 3.6-0.4 1-0.3 1.1-1.6 10.4 0.4 11.7 0.6 3.2 0.4 4.4-0.6 11.4-0.8 5.4-0.4 0.6-0.4 0.3-0.7 0.2-0.9-0.2-0.9-0.3h-1l-1.1 0.5-1.2 2.4-0.4 2.3-0.2 3.7 0.2 1.9 0.3 1.3 1.1 1.6 0.5 1.2 0.3 1.7 0.4 5 0.2 1.4 0.5 0.8 1.4 1.7 0.6 1.2 0.7 2.3 0.1 1.6-0.2 1.3-0.2 1.1-0.8 2-2.4 4.2-0.5 1.3-1.4 5.1-0.4 4.2 0.4 7.6 0.3 2.2 2.1 7.1 0.1 1-0.1 0.9-0.4 0.8-1.2 1.6-0.7 1.1-0.6 1.9-0.1 1.5 0.2 1.1 0.7 2 0.1 0.2-1.8 0.9-9.8 2.8-5 4.3-3.3 1.5-6.6 2-27.3 13.2-3.3 0.6-3.1 1.1-4 4.8-3 0.6 0.7-1.9 0.3-1.2v-0.8l-1.6-2.5-2.1-2.2-2.8-1.4-6.2-0.8-0.4-0.8 0.1-1.2-1-1.7-1.6-1.2-1.4-0.7-3.5-0.7-7.4 0.4-14.5 3.4-6-1.2-4.1-4.1-8.2-11-5.6-3-0.1-1.5-0.3-1.4-1.3-2.6-3.1-4.6-1.2-1.2-0.5-0.9-0.5-1-0.1-1.6 0.1-1.3 0.8-4.7-0.3-1.3-0.8-1.4-2-1.8-2.3-1.8-1.6-2.1-2.4-5.4 21.2-1.2 4.1-1 3.7-1.8 1.2-0.7 17.8-15.2 1.9-0.6 1.1-0.2 2.3-0.1 4.9 0.4 2.1-0.3 1-0.3 1.9-1.5 8.7-8.2 2.9-2.2 2.1-1.2 3.4-0.4 1.9-0.6 4.9-2.6 2.8-0.4 1.4-0.5 1.4-1 2.4-2 2.8-1.4 0.9-0.6 0.7-1 0.5-1.9 0.3-4.1 0.5-2.3 2.7-9.5 0.5-1.1 0.9-1 1.4-1.1 1.1-0.9 0.7-1.2 0.6-1.9 0.5-3.9 0.3-1 0.1-1.1v-1l-0.1-0.8-0.1-0.6-0.4-1.4-0.1-0.6 0.5-1.5 3.4-5.8 2.3-5.3 4.5-6.9 0.7-1.5 0.4-1 0.9-1.2 1.5-1.4 3.3-2.2 1.9-0.9 1.6-0.6 7.7-1 3.6-1.4 1.2-1.2 1.2-1.9 2-4.3 1.3-4.3 0.2-1.2 0.3-1.1 1.7-2.6z" name="Maldonado"/>
<path id="Canelones" d="m547.4 887.3 2.4 5.4 1.6 2.1 2.3 1.8 2 1.8 0.8 1.4 0.3 1.3-0.8 4.7-0.1 1.3 0.1 1.6 0.5 1 0.5 0.9 1.2 1.2 3.1 4.6 1.3 2.6 0.3 1.4 0.1 1.5-0.5-0.3-14.3-1.1-6.5 0.7-8.1-2.2-6.4-2.9-7 1.6-7.4-3.1-9.9 3.4-5.6-1.6-10.4 3.6-4.8 2-10.3 6.9-7.8 5.7-5.4 3.2-1.1-1.8-0.6-1.9-0.5-3.6v-3.6l0.1-1.3 0.2-1 1.7-3.9 0.6-2.1v-1.2l-0.4-0.9-1-0.5-2.1 0.1-1.3 0.3-1.3 0.1-1.2-0.2-1.3-1.1-0.6-0.9-0.5-0.8-0.3-0.4-0.7-0.5-0.9-0.3-0.9-0.5-0.7-0.6-0.9-1.8-0.3-0.9-0.7-1.3-0.9-0.2-1.4-0.1-3.2 1.1-1.5 0.8-1 1-1.1 1.6-0.6 0.8-1.4 1.2-0.8 0.5-1.7 0.6-0.8-0.1-1.3-0.4-2.3-1.2-1-0.7-0.7-0.7-1.8-3.2-0.5-0.7-1.3-1.4-0.9-0.6-1.1-0.4-1.7-0.3h-1.4l-2.8 0.8-5.2 3.1-1.2-1.9-2.4-2.8-5.6-5-5.1-3-0.7-0.6-0.5-1-0.4-1.3-0.2-5.3-0.9-5.3 0.2-1.3 0.5-1.3 1.2-1.4 1-0.8 1.9-0.9 0.7-0.5 0.7-0.6 0.6-0.8 1-1.6 1.2-1.5 2.7-2.6 0.3-1.2v-1.5l-0.7-2.6-0.6-1.3-0.6-0.9-0.1-0.9v-1.3l1.1-4.6v-3.6l2.8-9.7 1.6-2.9 1.6-1 2-0.8 2.6-0.7 4.7-0.3 2.3 0.1 1.6 0.2 1.8 0.6 6.9 3.9 1.8 0.2 2.7-0.1 7.8-1.8 1.6-0.7 1.2-1.5 1.4-2.7 2-6.1 0.4-1 1-1.1 1.5-1.2 14-9.3 1.5-0.1 2.1 0.1 3.2 1 8.3 4.1 1.3 0.2 1.9 0.1 3.5-0.5 1.8-0.5 1.3-0.5 10.7-6.6 4.3-1.5 19.7-2.8 4.3 17.3 2.1 6.2 6.5 12.2 0.6 1.8 0.2 1.6-0.1 1.2-1.9 9.5-0.1 1.7 0.2 4.1 0.3 0.8 0.9 1.5 6.5 8 2.5 4.9 0.9 2.8z" name="Canelones"/>
<path id="Montevideo" d="m407.5 908.7 5.2-3.1 2.8-0.8h1.4l1.7 0.3 1.1 0.4 0.9 0.6 1.3 1.4 0.5 0.7 1.8 3.2 0.7 0.7 1 0.7 2.3 1.2 1.3 0.4 0.8 0.1 1.7-0.6 0.8-0.5 1.4-1.2 0.6-0.8 1.1-1.6 1-1 1.5-0.8 3.2-1.1 1.4 0.1 0.9 0.2 0.7 1.3 0.3 0.9 0.9 1.8 0.7 0.6 0.9 0.5 0.9 0.3 0.7 0.5 0.3 0.4 0.5 0.8 0.6 0.9 1.3 1.1 1.2 0.2 1.3-0.1 1.3-0.3 2.1-0.1 1 0.5 0.4 0.9v1.2l-0.6 2.1-1.7 3.9-0.2 1-0.1 1.3v3.6l0.5 3.6 0.6 1.9 1.1 1.8-4.9 2.9-5.6-0.5-4.7 2.7-2.3 1.5-0.9 4-3.4-4.8-2.7-0.5-2.9-1.1 1.3-1.8 0.2-2.1-1.7-1.5-2.5-0.4-1 2.9-3.1 2.6h-1.5l-3.5-0.6-3.6 0.6-5-4.3-9.4-5.6-2.5-2.2-0.3-2.9 2.7-2.3 2.6-2.7 4-1-0.5-0.6 0.9-0.9 0.4-0.7 0.3-1.6v-1.4z" name="Montevideo"/>
<path id="San José" d="m401.6 851.3v3.6l-1.1 4.6v1.3l0.1 0.9 0.6 0.9 0.6 1.3 0.7 2.6v1.5l-0.3 1.2-2.7 2.6-1.2 1.5-1 1.6-0.6 0.8-0.7 0.6-0.7 0.5-1.9 0.9-1 0.8-1.2 1.4-0.5 1.3-0.2 1.3 0.9 5.3 0.2 5.3 0.4 1.3 0.5 1 0.7 0.6 5.1 3 5.6 5 2.4 2.8 1.2 1.9 1.5 6.8v1.4l-0.3 1.6-0.4 0.7-0.9 0.9-1.8-2.1-3.1-1.3-8.3-3.3-5.7-0.9-5.6 0.2-3.3 2.3-2.6-0.3-2.4-1.2-5.9-3.7-2.8-1.3-2.8-2-10.5-2.9-12.9-1.7-12.3-5.4-2.6-1.9-2.2-4.7-2.4-2.3-5.2-3.8-3.7-4.3-3.3-3.2-2.9-2.3-4.2-2.7-2.3-2.1 0.2-2.6-1-1.3-2.3-1.6-1-0.9-2.9-3.3-2.9-2.5-5-2.3-2.4-0.5 9.6-8.4 0.7-0.7 0.4-1.3 0.2-1.8-0.1-3.7 0.1-2.1 0.9-2 1-1.2 0.7-1.5 1.2-3.9 0.1-1.3-0.6-1.1-3.2-3.7-0.4-0.8-0.5-0.9-0.1-1.2v-1.6l0.7-2.5 0.6-1.4 0.7-1 3.8-2.7 2.5-1.3 6.7-2 1.1-0.6 0.7-0.4 7-5.7 1.1-1.4 0.3-0.4 0.2-0.6v-0.5l-0.1-1.3-0.8-2-5.9-9.2-5.1-6.1-1.1-0.9-2.7-1.4-0.7-0.5-0.8-1.1-0.7-1.7-1.3-5.6-2.1-4.7 6.7 0.4 22.7 4.4 1.8-0.1 2.2-0.6 3.8-1.5 1.9-0.9 1.3-0.9 6.5-8 2.6-2.2 0.4-0.3 0.7-0.4 10.8-2.7 3.6-1.4 3.2-1.9 6.4-5.3 4.8 1.2 17.2 8.8 2.1 6.1 4.8 22.8 0.7 7.9-0.1 2.1-0.3 1.6-0.4 0.9-3.4 6.1-0.4 1.1-0.4 1.4v1.2l0.3 1 2.8 7.3 0.8 2.8 0.2 1.8-0.7 12.6-0.3 1.8-0.5 0.9-0.6 0.8-0.7 0.6-3 1.6-0.8 0.6-0.8 1-0.6 1.6v1.2l0.3 0.9 8.7 9.4 0.8 1.1z" name="San José"/>
<path id="Colonia" d="m295.4 762 2.1 4.7 1.3 5.6 0.7 1.7 0.8 1.1 0.7 0.5 2.7 1.4 1.1 0.9 5.1 6.1 5.9 9.2 0.8 2 0.1 1.3v0.5l-0.2 0.6-0.3 0.4-1.1 1.4-7 5.7-0.7 0.4-1.1 0.6-6.7 2-2.5 1.3-3.8 2.7-0.7 1-0.6 1.4-0.7 2.5v1.6l0.1 1.2 0.5 0.9 0.4 0.8 3.2 3.7 0.6 1.1-0.1 1.3-1.2 3.9-0.7 1.5-1 1.2-0.9 2-0.1 2.1 0.1 3.7-0.2 1.8-0.4 1.3-0.7 0.7-9.6 8.4-5.6-1.2-14-0.3-8.6 0.6-2.9-2.5-7.2 0.2-4 2.5-2-2.5-4-0.4-4.4 2.1-5.5 2.5-5-5.1-4-0.2-4.6 0.9-6.3 2.9-8.7 3.4-2.9-0.4-4 2.5-4.6-0.4-4.6 0.5-5.2-0.8 1.6-1.5-1.4-2.9-4.4-1.3-2.8-4.6 0.4-7.7-4-4.3-3.1-5.2-11.6-13.9-5.2-2.5-1.8-2.9-2.5-6.2-2.7-2.7-3.9-1.7-4.2-0.7-3.6-0.3-4.3-0.8-2-2.3-1.8-7.1-1.8-4-13.3-19.4-2.9-2.5-5.9-3.6-2.6-2.3-2.1-3.7-1.2-3.9-0.9-5h0.1l5-0.9 2.2-0.7 14.2-5.9 14.7-10.2 2.5-0.8 2.7 0.4 17.7 4.5 0.8 0.9 1 1.3 0.5 0.8 0.7 1.8 0.6 1.9 0.4 0.9 0.9 1.6 0.5 0.6 0.6 0.5 0.4 0.4 0.7 0.3 1.3 0.4 1.6 0.2 2.8-0.1 4.7-0.9 12.2 0.4 1.6 0.4 2.2 1.1 1.1 0.9 0.8 0.8 0.6 0.9-0.2-0.2 1 1.3 0.8 0.7 1.5 1.1 21.4 7.4 4.5 0.4 9.5-0.9 27-7.4 2.9 0.8 3.4 1.6 3 1.7 2.7 2.6 2.9 2.3 0.9 0.5 4.4 0.6h13z" name="Colonia"/>
<path id="Soriano" d="m295.4 762-16.4-2.5h-13l-4.4-0.6-0.9-0.5-2.9-2.3-2.7-2.6-3-1.7-3.4-1.6-2.9-0.8-27 7.4-9.5 0.9-4.5-0.4-21.4-7.4-1.5-1.1-0.8-0.7-1-1.3 0.2 0.2-0.6-0.9-0.8-0.8-1.1-0.9-2.2-1.1-1.6-0.4-12.2-0.4-4.7 0.9-2.8 0.1-1.6-0.2-1.3-0.4-0.7-0.3-0.4-0.4-0.6-0.5-0.5-0.6-0.9-1.6-0.4-0.9-0.6-1.9-0.7-1.8-0.5-0.8-1-1.3-0.8-0.9-17.7-4.5-2.7-0.4-2.5 0.8-14.7 10.2-14.2 5.9-2.2 0.7-5 0.9h-0.1l-3-17.2-0.7-16.3 2.1-16.1-0.5-4-0.9-3.7-0.5-3.9 0.8-4.5 2.1-3.7 5.4-7.1 1-4.1-0.9-3.7-1.1-0.8v-0.1l15-8.9 8.5-11.1 2.9-1.8h7.5l4.5 0.7 1.8-0.8 0.7-3.2v-7.1l0.5-1.9 1.7-1.7 5.3-2.8 1.8 1.1 2.7 2.6 0.8 0.1 1.7 1.4 1.2-1.6 0.7-3.1-0.2-3.1-0.5-0.3-2-1.9-0.9-1.1v-1.4l0.1-1.7-0.1-1.3-1.7-3.7 0.1-1.3 1.6-1.4 2.6-0.7 2.2 0.6 2.3 0.8 2.7 0.4 3.5-0.9 0.7-1.6-0.4-2.2 0.6-2.9 1.5-1.5 4.7-1.2 2.4-1 2.2-2.1 1.6-2.1 1.9-1.6 2.8-0.9 2.8 0.5 4.4 2.6 2.4 0.9 1.9-0.1 3.3-0.9 1.9-0.3 1.7 0.4 2.3 1.8 4.7 1.1 6 2.5 3.1-0.7 1.1-1.4 1.6-4.1 1.1-0.9 5.2-1.4 1.2-0.5 3-2.2 3.4-0.7 3.5 0.5 6.9 3.7 1.4 1.1 0.6 1.5v2.1l0.2 2.3 0.8 1.8 1.7 0.8 1.9-0.5 3.2-2.4 1.9-0.8 1.7-0.2 1.6 0.3 6.4 2.2 2.8 1.5 1.9 2.2 1.7 7.4 2.4-0.7 2.6-2.7 1.6-2.5 0.9 5 0.9 2 1.8 0.8 1.8-0.3 7-3.1 3.9-2.4 1.4-0.6-2.1 5.9-1 1.8-11.3 14.3-2 1.8-16.5 19.8-1.7 3-0.1 1.7 0.2 1.2 0.4 1 0.4 0.8 0.6 0.7 4.1 2.7 0.7 0.6 0.6 0.7 0.5 0.8 0.3 0.9 1.8 8 0.3 1 0.4 0.8 2.6 3.3v0.1h0.1l0.1 0.5 0.4 2.5 0.1 2.2 0.2 1.4 0.3 1.2 0.5 0.8 0.6 0.7 0.7 0.6 3.2 4.5 1.4 1.2 1.5 1.1 1 0.4 4.3 1.1 0.9 0.6 0.8 0.7 0.5 1.2v1.2l-0.3 1-0.3 0.9-0.4 0.8-0.4 1-0.3 1.1-2.3 18.5-0.1 2.4 0.2 0.6 0.2 0.7 6.6 11.3 1.9 4.5 0.2 1 0.5 2.8 0.6 2.2 0.4 1.1 0.4 1.3 0.7 4.8 0.6 1.9 0.3 0.9 0.5 0.8 2.7 3.8z" name="Soriano"/>
<path id="Río Negro" d="m120.4 485.8h0.1l4.6-0.9 8-0.5 1.3 0.3 1.8 0.7 1 0.7 0.7 0.6 0.5 0.6 4.3 5.1 0.7 0.6 0.7 0.5 3.5 1.9 0.6 0.6 0.6 0.8 0.8 1.6 1 3.2 0.2 0.4 0.4 0.6 1.2 0.5 1.9 0.5 3.8 0.4 3.2 0.9 1.6 1.1 1.9 0.4 13.8 1.4 0.8 0.5 1.2 0.3 1.4-0.2 2.3-1.1 1.2-1 0.7-1 0.6-3.8 0.2-1.1 0.4-0.9 0.5-0.8 0.7-0.6 27.3-4.1 1.6-1.1 0.6-0.6 1.1-1.5 0.5-0.9 1-2.7 0.1-0.1 0.1-0.4 0.8-1.5 0.6-0.7 0.7-0.5 0.9-0.4 3.7-1.2 0.7-0.4 1.5-1.4 0.5-0.7 1.2-1.3 1.4-1.1 0.8-0.4 1.6-0.2 2.1 0.1 5.6 1 1.5 0.1 4.1-0.7 2.7-1 2.4-1.4 1.1-0.2 1.4 0.1 3.4 1.6 1.4 0.4 1.6 0.2 2.8-0.5 1.6-0.4 1.1-0.5 10.3-7.5 1.7-0.8 1.5-0.4 9.9-0.1 2.1-0.4 0.8-0.3 1.6-0.9 3-2.3 1.6-0.8 0.8-0.3 1.7 0.1 2.3 0.6 8.6 4 5 3 3.8 1 3.5 0.2 3.4-0.2 3.9-1 1.7 0.2 6.1 1.1 2.1 0.2 1.5-0.1 1.9-0.5 1.1-0.1 2.8 0.4 8.6 2.7 1.6 1 8.7 7.3 2.1 1.4 5 2.7-0.7 8.5-5 20.8-0.6 2.7-3.1 3.7-1.6 2.8-0.6 3.5v2.3l0.4 3.7-1.6 6.3-2.7 5.6-1.4 5.5-3-0.9-2.8 0.9-1.8 2.3-3.1 1.4-4.6 0.2-2.8 1.2-2.1 2-1.4 1.5-1.8 4.1 0.1 1.2v3l-2 0.7-2.9-0.6-2.7 0.8-0.9 1.7 0.1 1.9 0.8 3.5-0.7 2.1-1.5-0.5-2.6-2.3-0.9-0.5-1-1.1-1.4-0.9-1.6-0.1-1.8 1.3v1.6l0.6 1.5 0.1 0.8-2.2 0.5-3.4 0.2-2.7 0.7 0.3 1.8 2.3 2.8-0.1 1.3-1.9 0.4h-3.6l-3-0.6-6.5-2.7-2.9-0.6-2.7 0.7-2.8 1.8-2.6 2.2-2.1 2.2-1.2 0.8-2.8 0.4-0.8 0.8v2.1l1.1 1.1 1.6 0.1 1.5-0.7 3.4 1.4-0.3 2.2 0.8 5.6v1.1l-1.4 0.6-3.9 2.4-7 3.1-1.8 0.3-1.8-0.8-0.9-2-0.9-5-1.6 2.5-2.6 2.7-2.4 0.7-1.7-7.4-1.9-2.2-2.8-1.5-6.4-2.2-1.6-0.3-1.7 0.2-1.9 0.8-3.2 2.4-1.9 0.5-1.7-0.8-0.8-1.8-0.2-2.3v-2.1l-0.6-1.5-1.4-1.1-6.9-3.7-3.5-0.5-3.4 0.7-3 2.2-1.2 0.5-5.2 1.4-1.1 0.9-1.6 4.1-1.1 1.4-3.1 0.7-6-2.5-4.7-1.1-2.3-1.8-1.7-0.4-1.9 0.3-3.3 0.9-1.9 0.1-2.4-0.9-4.4-2.6-2.8-0.5-2.8 0.9-1.9 1.6-1.6 2.1-2.2 2.1-2.4 1-4.7 1.2-1.5 1.5-0.6 2.9 0.4 2.2-0.7 1.6-3.5 0.9-2.7-0.4-2.3-0.8-2.2-0.6-2.6 0.7-1.6 1.4-0.1 1.3 1.7 3.7 0.1 1.3-0.1 1.7v1.4l0.9 1.1 2 1.9 0.5 0.3 0.2 3.1-0.7 3.1-1.2 1.6-1.7-1.4-0.8-0.1-2.7-2.6-1.8-1.1-5.3 2.8-1.7 1.7-0.5 1.9v7.1l-0.7 3.2-1.8 0.8-4.5-0.7h-7.5l-2.9 1.8-8.5 11.1-15 8.9v0.1l-3.3-2.8-1-3.7 1-3.5 2.4-3 5.7-5.6 1.6-3.8 0.3-4.3-2.7-16.3-0.1-7.9 2.4-6 6.5-2.4 14.6 0.8 6.7-0.5 5.8-2.9 5.9-5.5 2.6-3.4 1-3.2 0.3-4.3 0.7-3.4 2.3-7.1 1.2-7.5-1.4-5.6-3.1-4.4-6.8-7.2-1.6-3.2-0.9-3.4-0.2-3.9 0.3-8.4-0.3-4.3-1.2-3.2 1.2-1.4-1.4-4.8-1.7-13-1.8-2.7-1.3-2.9z" name="Río Negro"/>
<path id="Tacuarembó" d="m376.8 485.9 8.4-25.3 2.6-4.1 4.7-4.3 5.8-4.3 5.3-4.9 4.7-5.6 1.2-3.2 4.5-20.7 0.7-2.2 1.8-3.2 0.8-1.9 1.1-3.9 0.7-7.8v-0.1l0.1-1.2-0.1-7.9 0.4-1.9 0.5-1.3 0.7-0.6 0.8-0.4 1.6-0.6 1.4-0.3 0.7-0.2 0.5-0.5 0.4-1 0.1-1.3-0.3-1.2-0.6-1.1-3.8-4.7-0.4-1.1-0.4-1.5-0.2-4.3 0.3-4-0.1-1.2-0.6-1.9-0.8-1.6-5.1-6.2 0.2-5.1-0.3-2.5-0.5-1.9-0.4-2-0.5-7.9-0.3-2.1-0.6-1.8-0.9-1.6-1.1-1.4-0.4-0.8-0.3-0.9 0.4-1.9 4.7-12.9 0.7-1.3 5.1-4.9 0.8-1.1 2.6-5.6 0.8-1.2 1.2-0.7 2.9-1.1 0.8-0.4 1-0.8 1-1.1 1.5-2.1 2-2 0.7-0.5 0.6-1.3 0.4-1.8 1.2-7 1.4-3.2 1-3.4 3.7-5.8 2-1.8 2.6-1.1 1.1-0.2h3l2.3 0.6 0.8 0.4 12.9 10.3 7.5 4.3 11.4 4.8 2.6 2 0.8 0.9 0.6 0.8 1.7 3.3 0.6 1.8 0.3 1 0.1 2.3-0.2 3.5 0.1 1 2.3 7.2 0.4 0.6v0.1l0.6 1.2 0.4 0.7 0.7 0.8 5.2 5 1.2 0.8 1.1 0.5 5.2 1.7 3 1.3 1.4 1 1 0.8 0.9 1.6 0.7 1.8 1.4 6 0.6 1.8 0.3 1-0.1 1.1-0.2 1.1-1.3 3.9-0.5 2.2-0.2 2.4 0.1 1.2 0.2 1 0.4 0.8 0.9 1.6 0.4 0.8 0.1 1-0.3 3.3 0.1 1.1 0.6 1.8 1.5 2.7 1.7 2.5 1.2 1.1 1.2 0.7 1.1 0.1h1.1l1-0.2 2.6-1.1 1-0.2 1.1 0.1 4.4 1 4.3 0.5 13.8-1 3.9-0.9 2.3-0.2 4.5 0.5 15.4 3.9 9.7 0.8 6.5-0.8 4.8 0.2 2.5 0.5 6 2.8 3.1 1 12.1 1.1 1.9 0.4 6.8 2.6 3.6 1.8 1.2 1.2 3.2 4.5 0.6 0.6 4.3 3.5 2.3 2.6 2.7 4.9 6.6 7.5 2.5 3.7 5.8 5.8 2 3 1.9 4.3 1.1 1.7 2.3 2.6-3.4 0.9-2.3 0.3-6.3-3.8-3.9-1.3-1.7 1.9-0.5 4.3-1.2 2.5-3.7 4.1-1.3 2.7-0.6 1.9-0.2 1.7 0.5 2.1 1.1 2 0.6 2.1-0.6 2-2.2 3.8-3.4 7.6-2.5 3.4-1.6 1.1-3.3 1.6-1.6 1.1-1.4 1.9-1.1 2.1-1.3 1.7-5.6 1.7-2.4 2.4-3.2 5.4-3.3 3.8-4.1 3.2-4.9 2.3-5.5 0.8-5.3-1.1-10.3-4.1-5.4 0.3-13.9 6.5-4.9 0.9-1.3-0.2-0.6-0.7-0.7-0.8-5.5-3.2-1.1-0.2-1 0.1-0.9-0.1-1.2-1.1-0.6-1-0.3-1-0.3-3-1.4-1.3-2.7-0.7-2.4 1.2-1.5 2-0.4 2.6-0.8 2.7-0.6 3.1-2.1 2.5-3.3 1-3.5 0.4-4-0.5-3.6-0.9-3.4-1.5-2.5 0.3-2 2.6-2 5.4-2.6 1.2-2.9 0.3-2.6-1.9-3.3-2.9-3.1-0.3-1.8 1-0.3 2.2 1.2 3.5 0.1 2.6-1.5 1.7-0.8 2.2-0.8 3.1-2.5 2.4-3.4 2.4-4.2-1.4-3.9-4.4-3.3 0.2-3.8 2-2.7 3.1-2.2 3.5-4.4 4.4-4.3 5-5.5 1-5.5 0.3-6.5 2.5-6.9 1-2.1 3.8-2.9 4-2.8 4.9-0.9 5.4-5.1 0.3-6-0.2-5.3-1.2-5.1-0.4-4.3 3.5-1.2 1.8-1.6 3.4-3.4-0.3-3.4-3.5-3.3-1.9-4-0.3-3.9 0.5-2.8-0.1-3.1 0.1-3.8 0.7-2.6 1.2-3 2.3-2.9 0.7-4.7-2.8 1.4-5.5 2.7-5.6 1.6-6.3-0.4-3.7v-2.3l0.6-3.5 1.6-2.8 3.1-3.7 0.6-2.7 5-20.8z" name="Tacuarembó"/>
<path id="Durazno" d="m620.2 585.3-1.5 3-0.5 0.7-1.1 1.3-1.4 1.2-8.8 5.7-1.3 1.7-1.3 3.9-8 4.4-2.6 1.8-8.7 8.3-2.1 1.6-1.7 0.8-1.1-0.1-1-0.3-2.6-1.4-1.1-0.3-1.4-0.1-3.5 1.7-3.5 2.3-8.6 4.5-1.3 1.4-3.1 4-30 17-3.6 1.5h-1.1l-5.8-1-1.5-0.1-1.9 0.3-1.1 0.5-0.8 0.7-0.5 0.8-1 1.2-1.5 1.3-4.1 2.7-9.7 4.4-5.3 1.7-1.1 0.1-2.3-0.1-1.1-0.2-0.9-0.4-2.6-1.4-1-0.3-1.2-0.1h-1.1l-8.2 1.6-5.3 0.5-1.5 0.6-0.8 0.7-0.4 1-0.4 2.2-0.5 1.1-0.9 1.1-3.3 2.4-1.5 1.4-1.2 0.5-1.2 0.1-7.6-2.3-4.4-0.5-8.9 0.7-1.1-0.2-1-0.4-0.9-0.5-0.7-0.5-0.5-0.8-0.4-0.8-1.2-3.8-0.4-0.9-0.5-0.8-0.6-0.7-0.7-0.5-1.1-0.3h-1.2l-7.3 0.9-1.2-0.2-1-0.2-1.9-0.9-2.3-1.6-0.8-0.6-1.3-1.4-1-0.5-1.5-0.4-0.9 0.5-0.4 0.9-0.1 1.1 0.1 1.2 0.5 4.4 0.1 4.7-0.4 1.3-0.9 1.3-2 1.6-1.5 0.7-1.2 0.3-12.4-0.3-3-3.5-1.1-2.2-0.1-1.1-0.3-4.5-0.2-1.1-0.5-1.7-0.5-1.1-0.8-1.3-1.1-1.2-0.7-1-9.7-10.7-3.1-5.8-0.5-0.7-1.7-1-8.7-3.4-5.2-1.3-6.2-0.3-1.3-0.5-1.5-0.7-1.9-1.8-0.8-1.3-0.5-1.2-0.5-3.2-0.6-1.9-0.9-1.6-1.1-1.5-0.8-0.5-1.8-0.8-9-2.1-5.2-0.7-8.5 1.2-1.8-0.4-6.4-3.7-7.4-7.4v-1.1l-0.8-5.6 0.3-2.2-3.4-1.4-1.5 0.7-1.6-0.1-1.1-1.1v-2.1l0.8-0.8 2.8-0.4 1.2-0.8 2.1-2.2 2.6-2.2 2.8-1.8 2.7-0.7 2.9 0.6 6.5 2.7 3 0.6h3.6l1.9-0.4 0.1-1.3-2.3-2.8-0.3-1.8 2.7-0.7 3.4-0.2 2.2-0.5-0.1-0.8-0.6-1.5v-1.6l1.8-1.3 1.6 0.1 1.4 0.9 1 1.1 0.9 0.5 2.6 2.3 1.5 0.5 0.7-2.1-0.8-3.5-0.1-1.9 0.9-1.7 2.7-0.8 2.9 0.6 2-0.7v-3l-0.1-1.2 1.8-4.1 1.4-1.5 2.1-2 2.8-1.2 4.6-0.2 3.1-1.4 1.8-2.3 2.8-0.9 3 0.9 4.7 2.8 2.9-0.7 3-2.3 2.6-1.2 3.8-0.7 3.1-0.1 2.8 0.1 3.9-0.5 4 0.3 3.3 1.9 3.4 3.5 3.4 0.3 1.6-3.4 1.2-1.8 4.3-3.5 5.1 0.4 5.3 1.2 6 0.2 5.1-0.3 0.9-5.4 2.8-4.9 2.9-4 2.1-3.8 6.9-1 6.5-2.5 5.5-0.3 5.5-1 4.3-5 4.4-4.4 2.2-3.5 2.7-3.1 3.8-2 3.3-0.2 3.9 4.4 4.2 1.4 3.4-2.4 2.5-2.4 0.8-3.1 0.8-2.2 1.5-1.7-0.1-2.6-1.2-3.5 0.3-2.2 1.8-1 3.1 0.3 3.3 2.9 2.6 1.9 2.9-0.3 2.6-1.2 2-5.4 2-2.6 2.5-0.3 3.4 1.5 3.6 0.9 4 0.5 3.5-0.4 3.3-1 2.1-2.5 0.6-3.1 0.8-2.7 0.4-2.6 1.5-2 2.4-1.2 2.7 0.7 1.4 1.3 0.3 3 0.3 1 0.6 1 1.2 1.1 0.9 0.1 1-0.1 1.1 0.2 5.5 3.2 0.7 0.8 0.6 0.7 1.3 0.2 4.9-0.9 3.2 6.1 0.7 4.1 0.1 2.2-0.2 2.4-2.2 9.8-2.2 5.8-0.5 2.1v2.2l0.2 1.1 4.1 9.5 0.2 1.1v1.1l-0.3 1-0.6 0.7-0.8 0.4-2.1 0.4-0.8 0.4-0.7 0.6-0.5 0.8-0.2 1 0.3 1.4 0.7 1.5 2.6 4 0.6 1.3 0.3 0.9 0.1 1.1-0.3 3.5-0.9 4.5v1.1l0.4 2 0.7 2.1 1.8 3 2.9 3.4 2.1 1.8 14.9 9.7 0.5 0.4v0.1l1.8 2.6 0.6 0.7 1.6 0.4 2.5 0.2 11.3-0.4z" name="Durazno"/>
<path id="Flores" d="m392 750.6-17.2-8.8-4.8-1.2-6.4 5.3-3.2 1.9-3.6 1.4-10.8 2.7-0.7 0.4-0.4 0.3-2.6 2.2-6.5 8-1.3 0.9-1.9 0.9-3.8 1.5-2.2 0.6-1.8 0.1-22.7-4.4-6.7-0.4-1.3-2.1-2.7-3.8-0.5-0.8-0.3-0.9-0.6-1.9-0.7-4.8-0.4-1.3-0.4-1.1-0.6-2.2-0.5-2.8-0.2-1-1.9-4.5-6.6-11.3-0.2-0.7-0.2-0.6 0.1-2.4 2.3-18.5 0.3-1.1 0.4-1 0.4-0.8 0.3-0.9 0.3-1v-1.2l-0.5-1.2-0.8-0.7-0.9-0.6-4.3-1.1-1-0.4-1.5-1.1-1.4-1.2-3.2-4.5-0.7-0.6-0.6-0.7-0.5-0.8-0.3-1.2-0.2-1.4-0.1-2.2-0.4-2.5-0.1-0.5h-0.1v-0.1l-2.6-3.3-0.4-0.8-0.3-1-1.8-8-0.3-0.9-0.5-0.8-0.6-0.7-0.7-0.6-4.1-2.7-0.6-0.7-0.4-0.8-0.4-1-0.2-1.2 0.1-1.7 1.7-3 16.5-19.8 2-1.8 11.3-14.3 1-1.8 2.1-5.9 7.4 7.4 6.4 3.7 1.8 0.4 8.5-1.2 5.2 0.7 9 2.1 1.8 0.8 0.8 0.5 1.1 1.5 0.9 1.6 0.6 1.9 0.5 3.2 0.5 1.2 0.8 1.3 1.9 1.8 1.5 0.7 1.3 0.5 6.2 0.3 5.2 1.3 8.7 3.4 1.7 1 0.5 0.7 3.1 5.8 9.7 10.7 0.7 1 1.1 1.2 0.8 1.3 0.5 1.1 0.5 1.7 0.2 1.1 0.3 4.5 0.1 1.1 1.1 2.2 3 3.5 2.4 5 8.9 32.9 2.4 3.6 2.7 5.3 0.7 2 0.3 1.7-0.9 17.6-0.1 1.2-0.3 1.1-0.4 1-0.4 0.9-0.5 0.8-0.6 0.8-1.3 1.4z" name="Flores"/>
<path id="Florida" d="m604.3 602.8 1.4 10.2 0.2 6.5 1.5 8.5-0.2 1.8-0.6 2.4-1.7 4.5-1.2 2-1 1.2-2.4 1.6-0.6 0.7-0.5 0.8-0.5 1-0.3 1.2 0.3 1.9 0.3 1.3 3.2 3.9 1 1.5 0.8 1.6 0.3 0.9 0.2 1.1 0.2 3.4-0.2 2.5-0.5 1.5-0.8 1.6-1.8 2.3-1 1-0.9 0.7-5.4 1.9-1.6 0.9-1.3 0.9-0.4 0.5-0.6 0.6-0.8 1.3-1 2.3-2.8 7.8-0.8 1.2-1.5 1.6-1.1 0.9-1 0.7-1.7 0.7-5 1.3-1.8 0.7-0.7 0.6-0.8 1-0.6 1.5-0.5 3-0.1 1.7 0.2 1.3 0.3 0.9 0.5 0.9 3.9 6.3 0.4 0.8 0.4 1 0.2 1v2.3l-0.4 4.9-0.6 2.4-5.3 12.2-0.6 1.9-0.4 6.2-0.5 1.4-0.9 1.4-2 1.8-3.1 2-1.4 1.3-0.6 0.7-1.3 2.3-2 5.1-1.7 2.4-1.8 1.9-1.1 1.5-0.7 1.2-0.6 2.4v2.5l-0.2 1.2-0.3 1-0.7 1.1-1 1.2-7.6 6.7-1.8 2-0.8 1.2-0.9 1.7-1.3 3.2-1 3.4-0.7 1.5-1.1 1.5-4.4 4.7-4.6 6.5-19.7 2.8-4.3 1.5-10.7 6.6-1.3 0.5-1.8 0.5-3.5 0.5-1.9-0.1-1.3-0.2-8.3-4.1-3.2-1-2.1-0.1-1.5 0.1-14 9.3-1.5 1.2-1 1.1-0.4 1-2 6.1-1.4 2.7-1.2 1.5-1.6 0.7-7.8 1.8-2.7 0.1-1.8-0.2-6.9-3.9-1.8-0.6-1.6-0.2-2.3-0.1-4.7 0.3-2.6 0.7-2 0.8-1.6 1-1.6 2.9-2.8 9.7-1.1-2.5-0.8-1.1-8.7-9.4-0.3-0.9v-1.2l0.6-1.6 0.8-1 0.8-0.6 3-1.6 0.7-0.6 0.6-0.8 0.5-0.9 0.3-1.8 0.7-12.6-0.2-1.8-0.8-2.8-2.8-7.3-0.3-1v-1.2l0.4-1.4 0.4-1.1 3.4-6.1 0.4-0.9 0.3-1.6 0.1-2.1-0.7-7.9-4.8-22.8-2.1-6.1 1.9-1.6 1.3-1.4 0.6-0.8 0.5-0.8 0.4-0.9 0.4-1 0.3-1.1 0.1-1.2 0.9-17.6-0.3-1.7-0.7-2-2.7-5.3-2.4-3.6-8.9-32.9-2.4-5 12.4 0.3 1.2-0.3 1.5-0.7 2-1.6 0.9-1.3 0.4-1.3-0.1-4.7-0.5-4.4-0.1-1.2 0.1-1.1 0.4-0.9 0.9-0.5 1.5 0.4 1 0.5 1.3 1.4 0.8 0.6 2.3 1.6 1.9 0.9 1 0.2 1.2 0.2 7.3-0.9h1.2l1.1 0.3 0.7 0.5 0.6 0.7 0.5 0.8 0.4 0.9 1.2 3.8 0.4 0.8 0.5 0.8 0.7 0.5 0.9 0.5 1 0.4 1.1 0.2 8.9-0.7 4.4 0.5 7.6 2.3 1.2-0.1 1.2-0.5 1.5-1.4 3.3-2.4 0.9-1.1 0.5-1.1 0.4-2.2 0.4-1 0.8-0.7 1.5-0.6 5.3-0.5 8.2-1.6h1.1l1.2 0.1 1 0.3 2.6 1.4 0.9 0.4 1.1 0.2 2.3 0.1 1.1-0.1 5.3-1.7 9.7-4.4 4.1-2.7 1.5-1.3 1-1.2 0.5-0.8 0.8-0.7 1.1-0.5 1.9-0.3 1.5 0.1 5.8 1h1.1l3.6-1.5 30-17 3.1-4 1.3-1.4 8.6-4.5 3.5-2.3 3.5-1.7 1.4 0.1 1.1 0.3 2.6 1.4 1 0.3 1.1 0.1 1.7-0.8 2.1-1.6 8.7-8.3 2.6-1.8z" name="Florida"/>
<path id="Lavalleja" d="m759.1 668.1-0.8 0.8-0.9 0.7-1.1 0.6-3.7 0.6-3.7 0.1-2.8 1.3-3.4 11.6-5.9 5.4-12.6 7.4-3.4 3.7-1.4 2.9-0.7 3.9 1.5 10.8-0.3 1.6-0.7 2.1-3.5 5.7-1 1.3-0.6 1.1-0.5 1.6-0.6 3-0.3 5.7-0.4 2.2-0.6 1.2-4.8 5.5-3.8 6.1-6.6 5-1.7 2.6-0.3 1.1-0.2 1.2-1.3 4.3-2 4.3-1.2 1.9-1.2 1.2-3.6 1.4-7.7 1-1.6 0.6-1.9 0.9-3.3 2.2-1.5 1.4-0.9 1.2-0.4 1-0.7 1.5-4.5 6.9-2.3 5.3-3.4 5.8-0.5 1.5 0.1 0.6 0.4 1.4 0.1 0.6 0.1 0.8v1l-0.1 1.1-0.3 1-0.5 3.9-0.6 1.9-0.7 1.2-1.1 0.9-1.4 1.1-0.9 1-0.5 1.1-2.7 9.5-0.5 2.3-0.3 4.1-0.5 1.9-0.7 1-0.9 0.6-2.8 1.4-2.4 2-1.4 1-1.4 0.5-2.8 0.4-4.9 2.6-1.9 0.6-3.4 0.4-2.1 1.2-2.9 2.2-8.7 8.2-1.9 1.5-1 0.3-2.1 0.3-4.9-0.4-2.3 0.1-1.1 0.2-1.9 0.6-17.8 15.2-1.2 0.7-3.7 1.8-4.1 1-21.2 1.2v-5.3l-0.9-2.8-2.5-4.9-6.5-8-0.9-1.5-0.3-0.8-0.2-4.1 0.1-1.7 1.9-9.5 0.1-1.2-0.2-1.6-0.6-1.8-6.5-12.2-2.1-6.2-4.3-17.3 4.6-6.5 4.4-4.7 1.1-1.5 0.7-1.5 1-3.4 1.3-3.2 0.9-1.7 0.8-1.2 1.8-2 7.6-6.7 1-1.2 0.7-1.1 0.3-1 0.2-1.2v-2.5l0.6-2.4 0.7-1.2 1.1-1.5 1.8-1.9 1.7-2.4 2-5.1 1.3-2.3 0.6-0.7 1.4-1.3 3.1-2 2-1.8 0.9-1.4 0.5-1.4 0.4-6.2 0.6-1.9 5.3-12.2 0.6-2.4 0.4-4.9v-2.3l-0.2-1-0.4-1-0.4-0.8-3.9-6.3-0.5-0.9-0.3-0.9-0.2-1.3 0.1-1.7 0.5-3 0.6-1.5 0.8-1 0.7-0.6 1.8-0.7 5-1.3 1.7-0.7 1-0.7 1.1-0.9 1.5-1.6 0.8-1.2 2.8-7.8 1-2.3 0.8-1.3 0.6-0.6 0.4-0.5 1.3-0.9 1.6-0.9 5.4-1.9 0.9-0.7 1-1 1.8-2.3 0.8-1.6 0.5-1.5 0.2-2.5-0.2-3.4-0.2-1.1-0.3-0.9-0.8-1.6-1-1.5 7.7-4.5 3-1.4 8.2-1.4 0.8-0.1 0.5 0.2 1.5 0.8 3.1 0.9 0.9 0.5 0.6 0.6 1.1 0.7 1.4 0.6 2.7 0.4 1.6-0.1 1.2-0.3 7-3.6 4.1-1.6 1.5-0.1 1.2 0.2 2.4 0.9 2 0.5 1.2 0.5 1 0.7 4.3 4.6 5.4 3.7 4.7 1.3 12.8 2.1 1 0.3 0.9 0.4 2.1 1.8 0.8 0.5 10.7 3.4 1.9 0.2 1.4-0.1 6.2-2.6 0.8-0.5 0.7-0.6 0.6-0.7 0.5-0.7 0.8-1.9 0.5-2.1 0.3-1 0.6-0.8 0.7-0.6 0.8-0.5 1.8-0.7 0.8-0.5 5.1-4 1.3-0.5 4.5-1.2h1.8l1.5 0.1 0.9 0.4 0.7 0.6 0.5 0.8 1.6 3.5 2.3 4 2.5 2.7 1.3 1.1 3.4 2 5.7 2.3 4.1 2.7z" name="Lavalleja"/>
</g>
</svg>
